<svg width="60" height="60" viewBox="0 0 60 60" fill="none" xmlns="http://www.w3.org/2000/svg">
<path d="M14.8094 27.7372L36.2227 11.6025C37.2258 10.8467 37.8156 9.66372 37.8156 8.40783V3.8668C37.8156 2.2137 35.924 1.27431 34.6069 2.27334L2.27412 26.7987C2.08736 26.9404 1.88265 27.0793 1.67499 27.2202C0.837331 27.7886 -0.048078 28.3894 0.0050412 29.3335C0.0411327 29.975 0.271129 30.6693 0.698678 31.0356L34.5143 59.0107C35.8117 60.1224 37.8156 59.2005 37.8156 57.492V52.3667C37.8156 51.1941 37.3011 50.0806 36.4082 49.3206L14.7166 30.8575C13.7415 30.0276 13.7867 28.5078 14.8094 27.7372ZM59.8157 4.86679V57.492C59.8157 59.2005 57.8118 60.1224 56.5143 59.0107L22.6988 31.0356C21.7304 30.2059 21.7754 28.6941 22.7914 27.9234L56.607 2.27334C57.9241 1.2743 59.8157 3.21369 59.8157 4.86679Z" fill="white"/>
</svg>
