<svg width="60" height="60" viewBox="0 0 60 60" fill="none" xmlns="http://www.w3.org/2000/svg">
    <path d="M30.84 7.264C20.832 7.264 15.36 13.204 14.424 25.084C14.424 25.66 14.748 25.948 15.396 25.948H44.448C45.024 25.948 45.312 25.66 45.312 25.084C44.88 13.204 40.056 7.264 30.84 7.264ZM33.108 59.32C24.252 59.32 17.52 56.908 12.912 52.084C8.304 47.188 6 39.88 6 30.16C6 20.152 8.196 12.808 12.588 8.12801C17.052 3.37601 23.136 1 30.84 1C45.024 1 52.548 9.388 53.412 26.164C53.484 27.892 52.872 29.368 51.576 30.592C50.352 31.744 48.876 32.32 47.148 32.32H15.18C14.604 32.32 14.316 32.644 14.316 33.292C14.964 46.468 21.48 53.056 33.864 53.056C37.968 53.056 42.18 52.3 46.5 50.788C47.292 50.5 48.048 50.608 48.768 51.112C49.488 51.544 49.848 52.192 49.848 53.056C49.848 55.504 48.732 57.016 46.5 57.592C41.892 58.744 37.428 59.32 33.108 59.32Z" fill="white"/>
</svg>
