<svg width="60" height="60" viewBox="0 0 60 60" fill="none" xmlns="http://www.w3.org/2000/svg">
    <path d="M28.3175 2.61703L22.9808 10.9185C22.1252 12.2495 23.0809 14 24.6632 14H25.9998V26.0001H18.9998C15.686 26.0001 12.9998 23.3138 12.9998 20.0001V14.0001H13.4458C15.0051 14.0001 15.9646 12.295 15.1554 10.9621L12.9998 7.4117V7.00006H12.7498L10.2094 2.81587C9.43063 1.53314 7.56908 1.53314 6.79028 2.81586L1.84433 10.9621C1.0351 12.295 1.99463 14.0001 3.5539 14.0001H4.99976V20.0001C4.99976 27.732 11.2678 34.0001 18.9998 34.0001H25.9998V56.0001C25.9998 58.2092 27.7906 60.0001 29.9998 60.0001C32.2089 60.0001 33.9998 58.2092 33.9998 56.0001V34.0001H41.9998C49.7317 34.0001 55.9998 27.732 55.9998 20.0001V14.0001H56.4458C58.0051 14.0001 58.9646 12.295 58.1554 10.9621L55.9998 7.4117V7.00006H55.7498L53.2094 2.81587C52.4306 1.53314 50.5691 1.53314 49.7903 2.81586L44.8443 10.9621C44.0351 12.295 44.9946 14.0001 46.5539 14.0001H47.9998V20.0001C47.9998 23.3138 45.3135 26.0001 41.9998 26.0001H33.9998V14H35.3365C36.9189 14 37.8745 12.2495 37.0189 10.9185L31.6822 2.61703C30.8949 1.39239 29.1048 1.39239 28.3175 2.61703Z" fill="white"/>
</svg>
