<svg width="60" height="60" viewBox="0 0 60 60" fill="none" xmlns="http://www.w3.org/2000/svg">
    <path d="M31.334 23.0673C31.346 22.9968 31.3448 22.9214 31.3282 22.8467C31.3115 22.7721 31.2796 22.6979 31.233 22.6309C31.1864 22.5638 31.1246 22.5037 31.0514 22.4568C30.9782 22.4098 30.8926 22.3758 30.8011 22.3597C30.7095 22.3436 30.6113 22.3454 30.5142 22.3674C30.4172 22.3894 30.3206 22.4318 30.2333 22.4937C30.1461 22.5555 30.0681 22.6376 30.007 22.735C29.946 22.8324 29.9017 22.9457 29.8808 23.0673C29.8599 23.1889 29.8621 23.3194 29.8908 23.4482C29.9194 23.5771 29.9744 23.7053 30.055 23.8211C30.1356 23.9368 30.2421 24.0406 30.3688 24.1218C30.4955 24.2031 30.643 24.2615 30.8011 24.2894C30.9592 24.3173 31.1289 24.3141 31.2966 24.2762C31.4643 24.2383 31.631 24.165 31.7815 24.0579C31.9321 23.9508 32.0672 23.8095 32.1726 23.6412C32.2781 23.473 32.3544 23.2773 32.3906 23.0673C32.4267 22.8573 32.4228 22.6319 32.3734 22.4093C32.324 22.1867 32.2289 21.9653 32.0896 21.7653C31.9504 21.5654 31.7664 21.3861 31.5478 21.2459C31.3292 21.1058 31.0742 21.0046 30.8011 20.9566C30.5279 20.9086 30.2349 20.9138 29.9451 20.9793C29.6553 21.0448 29.3676 21.1714 29.1077 21.3563C28.8477 21.5411 28.6144 21.7854 28.4321 22.0758C28.2498 22.3661 28.1181 22.7045 28.0556 23.0673C27.993 23.4301 28 23.8192 28.0852 24.204C28.1704 24.5887 28.3351 24.9707 28.5756 25.3158C28.8162 25.661 29.1337 25.9711 29.5115 26.2129C29.8892 26.4548 30.3292 26.6299 30.8011 26.7129C31.2729 26.7959 31.7791 26.7869 32.2794 26.6736C32.7798 26.5603 33.2769 26.3418 33.7259 26.0225C34.175 25.7032 34.5779 25.2814 34.8928 24.7796C35.2076 24.2779 35.4351 23.6939 35.543 23.0673C35.6508 22.4406 35.6391 21.7686 35.4917 21.1042C35.3442 20.4398 35.0603 19.7797 34.645 19.1834C34.2297 18.5871 33.681 18.0519 33.0284 17.6341C32.3758 17.2162 31.616 16.9139 30.8011 16.7706C29.9861 16.6273 29.112 16.6429 28.2476 16.8387C27.3832 17.0345 26.5249 17.4116 25.7493 17.9631C24.9738 18.5145 24.2777 19.243 23.7341 20.1096C23.1906 20.9762 22.7972 21.985 22.611 23.0673C22.4248 24.1496 22.4449 25.3103 22.6995 26.4579C22.9541 27.6055 23.4448 28.7455 24.1619 29.7754C24.879 30.8054 25.8268 31.7296 26.9541 32.4514C28.0813 33.1731 29.3935 33.6953 30.8011 33.9427C32.2086 34.1901 33.7186 34.1632 35.2113 33.8252C36.7041 33.4872 38.1868 32.8355 39.5263 31.8831C40.8658 30.9308 42.0683 29.6723 43.007 28.1756C43.9458 26.679 44.625 24.9364 44.9468 23.0673C45.2687 21.1981 45.2337 19.1931 44.7941 17.211C44.3544 15.2289 43.5067 13.2599 42.268 11.4812C41.0293 9.70248 39.3924 8.10584 37.4457 6.85915C35.4991 5.61247 33.2323 4.71072 30.8011 4.28349C28.3699 3.85626 25.762 3.90252 23.1837 4.48636C20.6054 5.0702 18.0447 6.19579 15.7309 7.8406C13.4172 9.4854 11.3406 11.6591 9.71901 14.2442C8.09746 16.8292 6.92464 19.839 6.36874 23.0673C5.81285 26.2956 5.87338 29.7586 6.6328 33.1821C7.39222 36.6057 8.8562 40.0062 10.9956 43.0785C13.135 46.1509 15.9624 48.9083 19.3247 51.0616C22.687 53.2149 26.6019 54.7723 30.8011 55.5104C35.0003 56.2484 39.5045 56.1682 43.9576 55.1599C47.4609 54.3667 50.9455 52.9942 54.2183 51.0616" stroke="white" stroke-width="8" stroke-linecap="round"/>
</svg>
