<svg width="60" height="60" viewBox="0 0 60 60" fill="none" xmlns="http://www.w3.org/2000/svg">
    <path fill-rule="evenodd" clip-rule="evenodd" d="M30 60C46.5685 60 60 46.5685 60 30C60 13.4315 46.5685 0 30 0C13.4315 0 0 13.4315 0 30C0 46.5685 13.4315 60 30 60ZM17.5 23C22.5 23 24 26.7467 24 21.5C24 16.2533 21.0899 12 17.5 12C13.9101 12 11 16.2533 11 21.5C11 26.7467 12.5 23 17.5 23ZM49 21.5C49 26.7467 47 23 42.5 23C37.5 23 36 26.7467 36 21.5C36 16.2533 38.9101 12 42.5 12C46.0899 12 49 16.2533 49 21.5ZM46.2319 43.3569C47.5336 41.5719 47.566 37.7644 45.3569 37.7681C40 37.7771 34.5 37.7681 13.6309 37.7771C11.8509 39.0855 11.4687 41.5892 12.7771 43.3691C21.4195 55.1263 38.0116 54.6293 46.2319 43.3569Z" fill="white"/>
</svg>
