<svg width="60" height="60" viewBox="0 0 60 60" fill="none" xmlns="http://www.w3.org/2000/svg">
    <path d="M31.3277 23.8256C30.5716 24.495 29.4284 24.495 28.6723 23.8256C20.3044 16.4162 16 12.3836 16 7.48911C16 3.40414 19.332 0 23.532 0C25.3098 0 26.9542 0.466935 28.3272 1.3292C29.3213 1.95351 30.6791 1.95452 31.6712 1.32703C33.0324 0.466154 34.6396 0 36.3 0C40.5 0 44 3.24074 44 7.32571C44 12.3756 39.6956 16.4158 31.3277 23.8256Z" fill="white"/>
    <path d="M23.8256 28.6723C16.4158 20.3044 12.3756 16 7.32571 16C3.24074 16 0 19.5 0 23.7C0 25.3604 0.466154 26.9676 1.32703 28.3288C1.95452 29.3209 1.95351 30.6787 1.3292 31.6728C0.466935 33.0458 0 34.6902 0 36.468C0 40.668 3.40414 44 7.48911 44C12.3836 44 16.4162 39.6956 23.8256 31.3277C24.495 30.5716 24.495 29.4284 23.8256 28.6723Z" fill="white"/>
    <path d="M52.6663 44C47.6105 44 43.5657 39.695 36.1704 31.326C35.5028 30.5705 35.5028 29.4295 36.1704 28.674C43.5653 20.305 47.6025 16 52.5027 16C56.5921 16 60 19.332 60 23.532C60 25.3092 59.5328 26.9532 58.6701 28.326C58.045 29.3206 58.044 30.6798 58.6723 31.6724C59.5336 33.0333 60 34.64 60 36.3C60 40.5 56.7557 44 52.6663 44Z" fill="white"/>
    <path d="M28.6723 36.1744C20.3044 43.5842 16 47.6244 16 52.6743C16 56.7593 19.5 60 23.7 60C25.3604 60 26.9676 59.5338 28.3288 58.673C29.3209 58.0455 30.6787 58.0465 31.6728 58.6708C33.0458 59.5331 34.6902 60 36.468 60C40.668 60 44 56.5959 44 52.5109C44 47.6164 39.6956 43.5838 31.3277 36.1744C30.5716 35.505 29.4284 35.505 28.6723 36.1744Z" fill="white"/>
</svg>
