<svg width="60" height="60" viewBox="0 0 60 60" fill="none" xmlns="http://www.w3.org/2000/svg">
    <path d="M28.0979 2.8541C28.6966 1.01147 31.3034 1.01148 31.9021 2.8541L37.409 19.8024C37.6767 20.6265 38.4446 21.1844 39.3111 21.1844L57.1316 21.1844C59.0691 21.1844 59.8746 23.6636 58.3072 24.8024L43.8901 35.2771C43.1891 35.7864 42.8958 36.6891 43.1635 37.5132L48.6704 54.4615C49.2691 56.3041 47.1601 57.8364 45.5927 56.6976L31.1756 46.2229C30.4746 45.7136 29.5254 45.7136 28.8244 46.2229L14.4073 56.6976C12.8399 57.8364 10.7309 56.3041 11.3296 54.4615L16.8365 37.5132C17.1042 36.6891 16.8109 35.7864 16.1099 35.2771L1.69281 24.8024C0.125385 23.6636 0.93094 21.1844 2.86839 21.1844L20.6889 21.1844C21.5554 21.1844 22.3233 20.6265 22.591 19.8024L28.0979 2.8541Z" fill="white"/>
</svg>
