<svg width="60" height="60" viewBox="0 0 60 60" fill="none" xmlns="http://www.w3.org/2000/svg">
    <path d="M43.9238 20.8241H57.7988V6.94905" stroke="white" stroke-width="4.625" stroke-linecap="round" stroke-linejoin="round"/>
    <path d="M12.0127 11.013C14.3748 8.65088 17.179 6.77717 20.2652 5.49882C23.3514 4.22046 26.6592 3.5625 29.9997 3.5625C33.3402 3.5625 36.648 4.22046 39.7342 5.49882C42.8205 6.77717 45.6247 8.65088 47.9868 11.013L57.7979 20.8241" stroke="white" stroke-width="4.625" stroke-linecap="round" stroke-linejoin="round"/>
    <path d="M16.0762 37.1759H2.20117V51.0509" stroke="white" stroke-width="4.625" stroke-linecap="round" stroke-linejoin="round"/>
    <path d="M47.9873 46.9871C45.6252 49.3491 42.821 51.2229 39.7348 52.5012C36.6486 53.7796 33.3408 54.4375 30.0003 54.4375C26.6598 54.4375 23.352 53.7796 20.2658 52.5012C17.1796 51.2229 14.3753 49.3491 12.0133 46.9871L2.20215 37.1759" stroke="white" stroke-width="4.625" stroke-linecap="round" stroke-linejoin="round"/>
</svg>
