<svg width="60" height="60" viewBox="0 0 60 60" fill="none" xmlns="http://www.w3.org/2000/svg">
    <path fill-rule="evenodd" clip-rule="evenodd" d="M42.707 1.00008C44.9162 1.00008 46.707 2.79094 46.707 5.00008V55.5859C46.707 57.795 44.9162 59.5859 42.707 59.5859C40.4979 59.5859 38.707 57.795 38.707 55.5859V40.2427L26.8283 52.1214C25.2663 53.6835 22.7336 53.6835 21.1715 52.1214C19.6094 50.5593 19.6094 48.0266 21.1715 46.4645L33.3431 34.293H17C14.7909 34.293 13 32.5021 13 30.293C13 28.0838 14.7909 26.293 17 26.293H32.3431L21.1715 15.1214C19.6094 13.5593 19.6094 11.0266 21.1715 9.46455C22.7336 7.90245 25.2663 7.90245 26.8284 9.46455L38.707 21.3432V5.00008C38.707 2.79094 40.4979 1.00008 42.707 1.00008Z" fill="white"/>
</svg>
