<svg width="60" height="41" viewBox="0 0 60 41" fill="none" xmlns="http://www.w3.org/2000/svg">
    <path d="M11.5728 22.6867C7.48192 21.2653 4.52145 19.5707 2.69134 17.6027C0.897112 15.5982 0 13.1929 0 10.3867C0 7.17956 1.00477 4.64667 3.0143 2.788C5.02383 0.929334 7.78694 0 11.3036 0C14.605 0 17.5116 0.400888 20.0235 1.20266C20.7771 1.45778 21.3872 1.94978 21.8537 2.67866C22.356 3.37111 22.6072 4.15467 22.6072 5.02933C22.6072 5.64889 22.3381 6.12266 21.7998 6.45066C21.2616 6.77866 20.7054 6.81511 20.1312 6.56C17.404 5.39378 14.6409 4.81067 11.8419 4.81067C9.90412 4.81067 8.41491 5.30267 7.37426 6.28667C6.33361 7.27067 5.81329 8.63733 5.81329 10.3867C5.81329 11.808 6.29773 13.1018 7.26661 14.268C8.23549 15.3978 9.67087 16.2907 11.5728 16.9467C16.3095 18.5502 19.5929 20.336 21.423 22.304C23.289 24.272 24.222 26.7684 24.222 29.7933C24.222 33.4742 23.1096 36.2622 20.8848 38.1573C18.6599 40.0524 15.3765 41 11.0345 41C8.19961 41 5.63387 40.5627 3.33726 39.688C1.65069 38.9956 0.807401 37.6471 0.807401 35.6427C0.807401 35.0231 1.07653 34.5676 1.6148 34.276C2.15307 33.9844 2.69134 33.9844 3.2296 34.276C5.45444 35.4787 7.87665 36.08 10.4962 36.08C15.6995 36.08 18.3011 33.9844 18.3011 29.7933C18.3011 28.1898 17.7808 26.8231 16.7401 25.6933C15.7354 24.5636 14.0129 23.5613 11.5728 22.6867Z" fill="white"/>
    <path d="M47.6198 41C42.0936 41 37.5722 39.1413 34.0555 35.424C30.5388 31.7067 28.7805 26.732 28.7805 20.5C28.7805 14.1587 30.5568 9.16578 34.1093 5.52133C37.6619 1.84044 42.5242 0 48.6964 0C51.2083 0 53.5228 0.182222 55.64 0.546666C56.3577 0.692444 56.9498 1.05689 57.4163 1.64C57.8828 2.22311 58.1161 2.89733 58.1161 3.66267C58.1161 4.28222 57.8649 4.79244 57.3625 5.19333C56.8601 5.55778 56.3039 5.66711 55.6939 5.52133C53.792 5.04756 51.6389 4.81067 49.2347 4.81067C44.6056 4.81067 41.035 6.15911 38.5231 8.856C36.0471 11.5164 34.8091 15.3978 34.8091 20.5C34.8091 25.3836 36.0292 29.2284 38.4693 32.0347C40.9094 34.8044 44.139 36.1893 48.1581 36.1893C50.1676 36.1893 52.1054 35.8978 53.9714 35.3147C54.2226 35.2782 54.3482 35.096 54.3482 34.768V22.0307C54.3482 21.7027 54.1867 21.5387 53.8637 21.5387H45.09C44.4441 21.5387 43.8879 21.32 43.4214 20.8827C42.9907 20.4089 42.7754 19.844 42.7754 19.188C42.7754 18.532 42.9907 17.9853 43.4214 17.548C43.8879 17.0742 44.4441 16.8373 45.09 16.8373H56.9319C57.7572 16.8373 58.4749 17.1471 59.0849 17.7667C59.695 18.3862 60 19.1151 60 19.9533V35.424C60 36.3716 59.7309 37.2462 59.1926 38.048C58.6902 38.8133 58.0084 39.3418 57.1472 39.6333C54.3482 40.5444 51.1724 41 47.6198 41Z" fill="white"/>
</svg>
