<svg width="60" height="60" viewBox="0 0 60 60" fill="none" xmlns="http://www.w3.org/2000/svg">
    <rect y="45" width="15" height="15" rx="2" fill="white"/>
    <rect x="15" y="30" width="15" height="15" rx="2" fill="white"/>
    <rect x="30" y="15" width="15" height="15" rx="2" fill="white"/>
    <path d="M45 2C45 0.89543 45.8954 0 47 0H58C59.1046 0 60 0.895431 60 2V13C60 14.1046 59.1046 15 58 15H47C45.8954 15 45 14.1046 45 13V2Z" fill="white"/>
    <path d="M45 32C45 30.8954 45.8954 30 47 30H58C59.1046 30 60 30.8954 60 32V43C60 44.1046 59.1046 45 58 45H47C45.8954 45 45 44.1046 45 43V32Z" fill="white"/>
    <path d="M30 47C30 45.8954 30.8954 45 32 45H43C44.1046 45 45 45.8954 45 47V58C45 59.1046 44.1046 60 43 60H32C30.8954 60 30 59.1046 30 58V47Z" fill="white"/>
    <path d="M0 17C0 15.8954 0.895431 15 2 15H13C14.1046 15 15 15.8954 15 17V28C15 29.1046 14.1046 30 13 30H2C0.89543 30 0 29.1046 0 28V17Z" fill="white"/>
    <path d="M15 2C15 0.89543 15.8954 0 17 0H28C29.1046 0 30 0.895431 30 2V13C30 14.1046 29.1046 15 28 15H17C15.8954 15 15 14.1046 15 13V2Z" fill="white"/>
</svg>
