<svg width="60" height="60" viewBox="0 0 60 60" fill="none" xmlns="http://www.w3.org/2000/svg">
    <path d="M28.8301 41.5859C27.0279 41.5859 25.5425 40.1034 25.7606 38.3145C25.9194 37.0114 26.1659 35.8987 26.5 34.9766C27.0859 33.3594 28.2812 31.5664 30.0859 29.5977L34.6914 24.8516C36.6602 22.625 37.6445 20.2344 37.6445 17.6797C37.6445 15.2188 37 13.2969 35.7109 11.9141C34.4219 10.5078 32.5469 9.80469 30.0859 9.80469C27.6953 9.80469 25.7734 10.4375 24.3203 11.7031C23.6691 12.2703 23.1638 12.9246 22.8044 13.666C22.0258 15.2721 20.6937 16.8008 18.9087 16.8008V16.8008C17.1082 16.8008 15.6012 15.3075 16.0357 13.5602C16.6171 11.2224 17.8318 9.24397 19.6797 7.625C22.3516 5.28125 25.8203 4.10938 30.0859 4.10938C34.5156 4.10938 37.9609 5.30469 40.4219 7.69531C42.9062 10.0625 44.1484 13.3203 44.1484 17.4688C44.1484 21.5703 42.25 25.6133 38.4531 29.5977L34.6211 33.3945C33.4661 34.6761 32.701 36.3368 32.3257 38.3767C32.0034 40.1282 30.611 41.5859 28.8301 41.5859V41.5859ZM25.2695 52.7305C25.2695 51.6758 25.5859 50.7969 26.2188 50.0938C26.875 49.3672 27.8359 49.0039 29.1016 49.0039C30.3672 49.0039 31.3281 49.3672 31.9844 50.0938C32.6406 50.7969 32.9688 51.6758 32.9688 52.7305C32.9688 53.7852 32.6406 54.6641 31.9844 55.3672C31.3281 56.0469 30.3672 56.3867 29.1016 56.3867C27.8359 56.3867 26.875 56.0469 26.2188 55.3672C25.5859 54.6641 25.2695 53.7852 25.2695 52.7305Z" fill="white"/>
</svg>
