<svg width="115" height="109" viewBox="0 0 115 109" fill="none" xmlns="http://www.w3.org/2000/svg">
<rect width="115" height="108.068" fill="#191919"/>
<path d="M70.8007 52.9336C70.8007 60.3193 64.8134 66.3066 57.4277 66.3066C50.042 66.3066 44.0547 60.3193 44.0547 52.9336C44.0547 45.5479 50.042 39.5606 57.4277 39.5606" stroke="#EAEAEA" stroke-width="1.37421"/>
<path d="M34.8091 52.2732C34.8091 38.5048 45.9706 27.3433 59.739 27.3433C73.5074 27.3433 84.6689 38.5048 84.6689 52.2732C84.6689 66.0416 73.5074 77.2031 59.739 77.2031" stroke="#EAEAEA" stroke-width="1.37421"/>
<path d="M94.5774 59.3098C91.7082 79.774 72.7927 94.0376 52.3285 91.1684C31.8642 88.2992 17.6007 69.3837 20.4699 48.9194C23.3391 28.4552 42.2546 14.1916 62.7188 17.0608" stroke="#EAEAEA" stroke-width="1.37421"/>
<circle cx="65.1873" cy="16.4468" r="3.63217" fill="#EAEAEA"/>
<circle cx="34.1488" cy="55.0799" r="3.63217" fill="#EAEAEA"/>
<circle cx="70.8006" cy="50.1269" r="3.63217" fill="#EAEAEA"/>
<circle cx="93.9144" cy="56.7309" r="3.63217" fill="#EAEAEA"/>
<circle cx="57.5926" cy="76.5428" r="3.63217" fill="#EAEAEA"/>
<circle cx="60.5643" cy="39.5606" r="3.14138" fill="#191919" stroke="#EAEAEA" stroke-width="0.981581"/>
</svg>
