<svg id="Layer_1" data-name="Layer 1" xmlns="http://www.w3.org/2000/svg" xmlns:xlink="http://www.w3.org/1999/xlink" viewBox="0 0 1234 529">
  <defs>
    <style>
      .cls-1, .cls-6, .cls-7 {
        fill: none;
      }

      .cls-1 {
        stroke: gray;
        stroke-linecap: round;
      }

      .cls-1, .cls-6, .cls-7, .cls-8 {
        stroke-miterlimit: 10;
      }

      .cls-2 {
        fill: gray;
      }

      .cls-3 {
        font-size: 34px;
        font-family: SpaceMono-Regular, Space Mono;
      }

      .cls-3, .cls-4, .cls-8 {
        fill: #e6e6e6;
      }

      .cls-5 {
        fill: #303030;
      }

      .cls-6, .cls-8 {
        stroke: #e6e6e6;
      }

      .cls-6 {
        stroke-width: 2px;
      }

      .cls-7 {
        stroke: #5b5b5b;
        stroke-width: 3px;
      }

      .cls-9 {
        fill: #6974e0;
      }

      .cls-10 {
        fill: #3e904e;
      }

      .cls-11 {
        fill: #e47256;
      }
    </style>
  </defs>
  <g id="prime-13" width="1752" height="1752" transform="translate(6 106) scale(1.17)">
    <svg xmlns="http://www.w3.org/2000/svg" width="350" height="350"><style>.p #bg{fill:#ddd} .c #bg{fill:#222} .p .factor,.p #text{fill:#222} .c .factor,.c #text{fill:#ddd} .sexy{fill:#e44C21} .cousin{fill:#348C47} .twin {fill:#3C4CE1} #grid .factor{r: 8} .c #icons *{fill: #ddd} .p #icons * {fill:#222} #icons .stroke *{fill:none} #icons .stroke {fill:none;stroke:#222;stroke-width:8} .c #icons .stroke{stroke:#ddd} .square{stroke-width:2;fill:none;stroke:#222;r:8} .c .square{stroke:#ddd} #icons #i-4 circle{stroke-width:20}</style><g class="p"><rect id="bg" width="100%" height="100%" /><g id="grid" transform="translate(26,26)"><g opacity=".2"><circle r="8" cx="0" cy="23" class="square"><animate attributeName="opacity" values="1;.3;1" dur="2.666640s" repeatCount="indefinite"/></circle><circle r="8" cx="69" cy="23" class="square"><animate attributeName="opacity" values="1;.3;1" dur="2.222200s" repeatCount="indefinite"/></circle><circle r="8" cx="115" cy="23" class="square"><animate attributeName="opacity" values="1;.3;1" dur="2.000000s" repeatCount="indefinite"/></circle><circle r="8" cx="161" cy="23" class="square"><animate attributeName="opacity" values="1;.3;1" dur="1.818160s" repeatCount="indefinite"/></circle><circle r="8" cx="0" cy="46" class="square"><animate attributeName="opacity" values="1;.3;1" dur="1.379280s" repeatCount="indefinite"/></circle><circle r="8" cx="46" cy="46" class="square"><animate attributeName="opacity" values="1;.3;1" dur="1.290320s" repeatCount="indefinite"/></circle><circle r="8" cx="92" cy="46" class="square"><animate attributeName="opacity" values="1;.3;1" dur="1.212120s" repeatCount="indefinite"/></circle><circle r="8" cx="161" cy="46" class="square"><animate attributeName="opacity" values="1;.3;1" dur="1.111080s" repeatCount="indefinite"/></circle><circle r="8" cx="253" cy="46" class="square"><animate attributeName="opacity" values="1;.3;1" dur="1.000000s" repeatCount="indefinite"/></circle></g><circle r="8" cx="0" cy="23" class="twin"><animate attributeName="opacity" values="1;.3;1" dur="2.666640s" repeatCount="indefinite"/></circle><circle r="8" cx="23" cy="23" class="twin"><animate attributeName="opacity" values="1;.3;1" dur="2.500000s" repeatCount="indefinite"/></circle><circle r="8" cx="69" cy="23" class="twin"><animate attributeName="opacity" values="1;.3;1" dur="2.222200s" repeatCount="indefinite"/></circle><circle r="8" cx="0" cy="92" class="cousin"><animate attributeName="opacity" values="1;.3;1" dur="0.701720s" repeatCount="indefinite"/></circle><circle r="8" cx="92" cy="92" class="cousin"><animate attributeName="opacity" values="1;.3;1" dur="0.655720s" repeatCount="indefinite"/></circle><circle r="8" cx="0" cy="115" class="sexy"><animate attributeName="opacity" values="1;.3;1" dur="0.563360s" repeatCount="indefinite"/></circle><circle r="8" cx="23" cy="115" class="sexy"><animate attributeName="opacity" values="1;.3;1" dur="0.555520s" repeatCount="indefinite"/></circle><circle r="8" cx="46" cy="115" class="sexy"><animate attributeName="opacity" values="1;.3;1" dur="0.547920s" repeatCount="indefinite"/></circle><circle r="8" cx="0" cy="138" class="sexy"><animate attributeName="opacity" values="1;.3;1" dur="0.470560s" repeatCount="indefinite"/></circle><circle r="8" cx="23" cy="138" class="sexy"><animate attributeName="opacity" values="1;.3;1" dur="0.465080s" repeatCount="indefinite"/></circle><circle r="8" cx="92" cy="138" class="sexy"><animate attributeName="opacity" values="1;.3;1" dur="0.449400s" repeatCount="indefinite"/></circle><circle r="8" cx="0" cy="0" class="factor"><animate attributeName="opacity" values="1;.3;1" dur="40s" repeatCount="indefinite"/></circle><circle r="8" cx="46" cy="0" class="factor"><animate attributeName="opacity" values="1;.3;1" dur="13.333320s" repeatCount="indefinite"/></circle><circle r="8" cx="69" cy="0" class="factor"><animate attributeName="opacity" values="1;.3;1" dur="10.000000s" repeatCount="indefinite"/></circle></g><g id="text" transform="translate(18,318)"><g transform="translate(0,0)"><path d="M4 12.2V1h-.2L1.6 6H0L2.5.2h3.2v12h3.8v1.4H.2v-1.5H4Z" /></g><g transform="translate(12,0)"><path d="M3.3 7V4.8L7.7 2v-.2H.1V.3h9v2.4L4.7 5.5v.3h.8a3.7 3.7 0 0 1 4 3.8v.3a3.8 3.8 0 0 1-1.3 3A4.8 4.8 0 0 1 4.9 14c-.8 0-1.5-.1-2-.3a4.4 4.4 0 0 1-2.5-2.4C0 10.7 0 10.2 0 9.5v-1h1.6v1c0 .4 0 .8.2 1.2l.7 1 1 .6a3.8 3.8 0 0 0 2.5 0 3 3 0 0 0 1-.6c.3-.2.5-.5.6-.9.2-.3.2-.7.2-1v-.2c0-.8-.2-1.4-.7-1.9-.5-.4-1.2-.7-2-.7H3.4Z" /></g></g><g id="icons" transform="translate(317,317)"><g id="i-24" transform="scale(.266) translate(-0,0)"><circle cx="30" cy="30" r="30"/></g><g id="i-19" transform="scale(.266) translate(-86,0)"><path fill-rule="evenodd" clip-rule="evenodd" d="M30 60a30 30 0 1 0 0-60 30 30 0 0 0 0 60ZM17.5 23c5 0 6.5 3.7 6.5-1.5S21 12 17.5 12c-3.6 0-6.5 4.3-6.5 9.5s1.5 1.5 6.5 1.5ZM49 21.5c0 5.2-2 1.5-6.5 1.5-5 0-6.5 3.7-6.5-1.5s3-9.5 6.5-9.5c3.6 0 6.5 4.3 6.5 9.5Zm-2.8 21.9c1.3-1.8 1.4-5.6-.8-5.6H13.6a4 4 0 0 0-.8 5.6 20.5 20.5 0 0 0 33.4 0Z"/></g><g id="i-17" transform="scale(.266) translate(-172,0)"><path d="M31.3 23.8a2 2 0 0 1-2.6 0C20.3 16.4 16 12.4 16 7.5 16 3.4 19.3 0 23.5 0a9 9 0 0 1 4.8 1.3c1 .7 2.4.7 3.4 0C33 .5 34.7 0 36.3 0 40.5 0 44 3.2 44 7.3c0 5-4.3 9.1-12.7 16.5Z"/><path d="M23.8 28.7C16.4 20.3 12.4 16 7.3 16c-4 0-7.3 3.5-7.3 7.7 0 1.7.5 3.3 1.3 4.6.7 1 .7 2.4 0 3.4A9 9 0 0 0 0 36.5C0 40.7 3.4 44 7.5 44c4.9 0 9-4.3 16.3-12.7a2 2 0 0 0 0-2.6Z"/><path d="M52.7 44c-5 0-9.1-4.3-16.5-12.7a2 2 0 0 1 0-2.6C43.6 20.3 47.6 16 52.5 16c4 0 7.5 3.3 7.5 7.5a9 9 0 0 1-1.3 4.8c-.7 1-.7 2.4 0 3.4.8 1.3 1.3 3 1.3 4.6 0 4.2-3.2 7.7-7.3 7.7Z"/><path d="M28.7 36.2C20.3 43.6 16 47.6 16 52.7c0 4 3.5 7.3 7.7 7.3 1.7 0 3.3-.5 4.6-1.3 1-.7 2.4-.7 3.4 0a9 9 0 0 0 4.8 1.3c4.2 0 7.5-3.4 7.5-7.5 0-4.9-4.3-9-12.7-16.3a2 2 0 0 0-2.6 0Z"/></g><g id="i-15" transform="scale(.266) translate(-258,0)"><path d="m14.8 27.7 21.4-16.1a4 4 0 0 0 1.6-3.2V4a2 2 0 0 0-3.2-1.6L2.3 26.8l-.6.4c-.9.6-1.7 1.2-1.7 2.1 0 .7.3 1.4.7 1.7l33.8 28a2 2 0 0 0 3.3-1.5v-5.1a4 4 0 0 0-1.4-3L14.7 30.8a2 2 0 0 1 .1-3.2ZM59.8 5v52.6a2 2 0 0 1-3.3 1.5L22.7 31a2 2 0 0 1 0-3l34-25.7c1.2-1 3.1 1 3.1 2.6Z"/></g><g id="i-7" transform="scale(.266) translate(-344,0)"><path class="stroke" d="M31.3 23a.6.6 0 0 0 0-.4.6.6 0 0 0-.5-.2h-.3a.8.8 0 0 0-.5.3l-.1.4v.3a1 1 0 0 0 .5.7 1.2 1.2 0 0 0 .9.2l.5-.2.4-.5.2-.5a1.7 1.7 0 0 0-.3-1.3 2 2 0 0 0-1.3-.8h-.9l-.8.4c-.3.1-.5.4-.7.7-.2.3-.3.6-.3 1a3 3 0 0 0 .5 2.2 3.3 3.3 0 0 0 2.2 1.4h1.5a4 4 0 0 0 1.4-.7c.5-.3.9-.7 1.2-1.2a5.1 5.1 0 0 0-.2-5.6 5.8 5.8 0 0 0-3.9-2.4c-.8-.2-1.7-.2-2.6 0a7 7 0 0 0-2.5 1.2 8 8 0 0 0-2 2.1c-.5.9-.9 1.9-1 3a8.8 8.8 0 0 0 1.5 6.7 10 10 0 0 0 6.6 4.1c1.4.3 3 .3 4.4 0a13 13 0 0 0 7.8-5.6c1-1.6 1.6-3.4 2-5.2a15.2 15.2 0 0 0-2.7-11.6 17.2 17.2 0 0 0-11.5-7.2c-2.4-.4-5-.4-7.6.2-2.6.6-5.2 1.7-7.5 3.3a22.6 22.6 0 0 0-6 6.4 24.5 24.5 0 0 0-3.3 8.9A26.3 26.3 0 0 0 11 43a29.7 29.7 0 0 0 19.8 12.4A33.5 33.5 0 0 0 54.2 51"/></g></g></g></svg>
  </g>
  <g>
    <path class="cls-1" d="M40,116S128.6,6,299.88,6C450.5,6,542,91.06,561.89,111.58"/>
    <path class="cls-2" d="M566,116a30.25,30.25,0,0,0-9.31-3l4.65-2,2.3-4.5A30.2,30.2,0,0,0,566,116Z"/>
  </g>
  <text class="cls-3" transform="translate(474 159.4)">(1101)₂= 13</text>
  <g>
    <path class="cls-1" d="M65.5,116s80.05-98,234.61-98C435,18,517.83,92.62,536.74,111.63"/>
    <path class="cls-2" d="M540.91,116a30.35,30.35,0,0,0-9.35-2.87l4.62-2,2.24-4.54A30.14,30.14,0,0,0,540.91,116Z"/>
  </g>
  <g>
    <path class="cls-1" d="M92.17,116S161.85,32,300,32c119.4,0,195.15,62.8,213.47,79.8"/>
    <path class="cls-2" d="M517.74,116a30.37,30.37,0,0,0-9.45-2.5l4.53-2.23,2.06-4.62A30.33,30.33,0,0,0,517.74,116Z"/>
  </g>
  <g>
    <path class="cls-1" d="M118.18,116s60.4-71,182.25-71c104.13,0,171.38,51.86,188.73,66.94"/>
    <path class="cls-2" d="M493.61,116a30.21,30.21,0,0,0-9.54-2.14l4.45-2.4,1.88-4.7A30.35,30.35,0,0,0,493.61,116Z"/>
  </g>
  <g>
    <path class="cls-4" d="M862.68,157.25l7.79-23.8h3.87l7.79,23.8h-2.28l-2-6.33H867l-2,6.33Zm4.93-8.3h9.59l-4.59-14.21h-.41Z"/>
    <path class="cls-4" d="M893.62,157.72a8.79,8.79,0,0,1-4.3-1,7.56,7.56,0,0,1-3-3,9.2,9.2,0,0,1-1.08-4.55v-.34a9.21,9.21,0,0,1,1.08-4.58,7.55,7.55,0,0,1,3-3,8.69,8.69,0,0,1,4.3-1,8.31,8.31,0,0,1,4,.9,6.91,6.91,0,0,1,2.58,2.35,7.5,7.5,0,0,1,1.18,3l-2,.41a6,6,0,0,0-.85-2.43,4.92,4.92,0,0,0-1.9-1.77,6.34,6.34,0,0,0-3-.67,6.25,6.25,0,0,0-3.23.84,6,6,0,0,0-2.26,2.34,7.3,7.3,0,0,0-.83,3.59v.27a7.3,7.3,0,0,0,.83,3.59,6.09,6.09,0,0,0,2.26,2.35,6.34,6.34,0,0,0,3.23.83,5.67,5.67,0,0,0,4.15-1.41,6.18,6.18,0,0,0,1.77-3.45l2,.4a8.26,8.26,0,0,1-1.27,3,7.34,7.34,0,0,1-2.62,2.34A8.31,8.31,0,0,1,893.62,157.72Z"/>
    <path class="cls-4" d="M911.84,157.25a2.65,2.65,0,0,1-2-.68,2.6,2.6,0,0,1-.67-1.91v-12.1h-5.3v-1.84h5.3v-6.18h2v6.18H917v1.84h-5.78v11.83a.9.9,0,0,0,1,1h3.88v1.84Z"/>
    <path class="cls-4" d="M927.93,157.59a7.25,7.25,0,0,1-3.28-.75,5.72,5.72,0,0,1-2.42-2.26,7.31,7.31,0,0,1-.9-3.79V140.72h2v9.93a4.94,4.94,0,0,0,1.36,3.89,5.26,5.26,0,0,0,3.64,1.21,5.8,5.8,0,0,0,4.25-1.68,6.88,6.88,0,0,0,1.7-5.08v-8.27h2v16.53h-2v-3.06H934a6.26,6.26,0,0,1-2,2.36A6.69,6.69,0,0,1,927.93,157.59Z"/>
    <path class="cls-4" d="M947.41,157.72a8,8,0,0,1-3.15-.59,5,5,0,0,1-2.22-1.75,4.67,4.67,0,0,1-.82-2.79,4.41,4.41,0,0,1,.82-2.75,4.94,4.94,0,0,1,2.21-1.64,8.49,8.49,0,0,1,3.09-.54h6v-1.33a4.14,4.14,0,0,0-1.15-3.12,4.65,4.65,0,0,0-3.37-1.13,5.16,5.16,0,0,0-3.45,1.08A5.29,5.29,0,0,0,943.7,146l-2-.58a7.92,7.92,0,0,1,1.29-2.64,6.28,6.28,0,0,1,2.35-1.87,8.12,8.12,0,0,1,3.5-.69,6.76,6.76,0,0,1,4.85,1.63,6,6,0,0,1,1.71,4.56v8c0,.68.32,1,1,1H958v1.77h-2.17a2.22,2.22,0,0,1-1.67-.63,2.35,2.35,0,0,1-.61-1.72v-.24h-.34a8.33,8.33,0,0,1-1.14,1.47,5.16,5.16,0,0,1-1.82,1.15A7.66,7.66,0,0,1,947.41,157.72Zm.13-1.83a5.82,5.82,0,0,0,4.24-1.58,6,6,0,0,0,1.61-4.47v-.41h-6a5.32,5.32,0,0,0-3,.76,2.63,2.63,0,0,0-1.17,2.37,2.84,2.84,0,0,0,1.21,2.46A5.11,5.11,0,0,0,947.54,155.89Z"/>
    <path class="cls-4" d="M961.86,157.25v-23.8h2v23.8Z"/>
    <path class="cls-4" d="M983.14,157.25,977,140.72h2.18l5.44,15H985l5.44-15h2.17l-6.18,16.53Z"/>
    <path class="cls-4" d="M1001.37,157.72a8,8,0,0,1-3.15-.59,5.13,5.13,0,0,1-2.23-1.75,4.74,4.74,0,0,1-.81-2.79,4.46,4.46,0,0,1,.81-2.75,5,5,0,0,1,2.21-1.64,8.51,8.51,0,0,1,3.1-.54h6.05v-1.33a4.14,4.14,0,0,0-1.16-3.12,4.63,4.63,0,0,0-3.36-1.13,5.16,5.16,0,0,0-3.45,1.08,5.23,5.23,0,0,0-1.72,2.87l-2-.58a7.92,7.92,0,0,1,1.29-2.64,6.28,6.28,0,0,1,2.35-1.87,8.12,8.12,0,0,1,3.5-.69,6.73,6.73,0,0,1,4.84,1.63,6,6,0,0,1,1.72,4.56v8c0,.68.32,1,1,1h1.6v1.77h-2.18a2.21,2.21,0,0,1-1.66-.63,2.35,2.35,0,0,1-.61-1.72v-.24h-.34a8.33,8.33,0,0,1-1.14,1.47,5.16,5.16,0,0,1-1.82,1.15A7.66,7.66,0,0,1,1001.37,157.72Zm.13-1.83a5.78,5.78,0,0,0,4.23-1.58,6,6,0,0,0,1.62-4.47v-.41h-6a5.27,5.27,0,0,0-2.94.76,2.63,2.63,0,0,0-1.17,2.37,2.86,2.86,0,0,0,1.2,2.46A5.15,5.15,0,0,0,1001.5,155.89Z"/>
    <path class="cls-4" d="M1015.82,157.25v-23.8h2v23.8Z"/>
    <path class="cls-4" d="M1030.2,157.59a7.25,7.25,0,0,1-3.28-.75,5.72,5.72,0,0,1-2.42-2.26,7.31,7.31,0,0,1-.9-3.79V140.72h2v9.93a4.94,4.94,0,0,0,1.36,3.89,5.26,5.26,0,0,0,3.64,1.21,5.81,5.81,0,0,0,4.25-1.68,6.88,6.88,0,0,0,1.7-5.08v-8.27h2v16.53h-2v-3.06h-.41a6.26,6.26,0,0,1-2,2.36A6.71,6.71,0,0,1,1030.2,157.59Z"/>
    <path class="cls-4" d="M1052.23,157.72a8.79,8.79,0,0,1-4.44-1.07,7.41,7.41,0,0,1-2.94-3,9.17,9.17,0,0,1-1-4.45v-.41a9.17,9.17,0,0,1,1-4.47,7.54,7.54,0,0,1,2.91-3,8.21,8.21,0,0,1,4.23-1.07,8.42,8.42,0,0,1,4.1,1,6.94,6.94,0,0,1,2.8,2.78,8.76,8.76,0,0,1,1,4.34v1.09h-14.07a6.59,6.59,0,0,0,1.88,4.78,6.33,6.33,0,0,0,4.51,1.68,5.45,5.45,0,0,0,3.59-1.06,6.9,6.9,0,0,0,2-2.58l1.84.82a9.89,9.89,0,0,1-1.41,2.19,7.15,7.15,0,0,1-2.33,1.77A8.38,8.38,0,0,1,1052.23,157.72Zm-6.36-10.06h12a5.71,5.71,0,0,0-1.73-4.13,6.56,6.56,0,0,0-8.23,0A6.47,6.47,0,0,0,1045.87,147.66Z"/>
  </g>
  <rect class="cls-4" x="796.5" y="118.5" width="51" height="51" rx="14.38"/>
  <rect class="cls-4" x="796.5" y="200.5" width="51" height="51" rx="14.38"/>
  <rect class="cls-4" x="796.5" y="279.5" width="51" height="51" rx="14.38"/>
  <rect class="cls-4" x="796.5" y="339.5" width="51" height="51" rx="14.38"/>
  <rect class="cls-4" x="796.5" y="399.5" width="51" height="51" rx="14.38"/>
  <circle class="cls-5" cx="822" cy="144" r="17"/>
  <g>
    <polyline class="cls-6" points="491.13 182.63 480.85 182.63 480.85 227.96 480.85 267 491.13 267"/>
    <text class="cls-3" transform="translate(505.53 213.78)">13²= 169<tspan x="0" y="40.8">13³= 2197</tspan></text>
    <g>
      <path class="cls-4" d="M864.65,241.25v-23.8h4.25L876.11,240h.41l7.21-22.51H888v23.8h-2.11V218.74h-.41l-7.21,22.51h-3.87l-7.21-22.51h-.41v22.51Z"/>
      <path class="cls-4" d="M894.91,221.87a1.69,1.69,0,0,1-1.25-.51,1.71,1.71,0,0,1-.51-1.26,1.67,1.67,0,0,1,.51-1.27,1.72,1.72,0,0,1,1.25-.5,1.74,1.74,0,0,1,1.28.5,1.7,1.7,0,0,1,.49,1.27,1.73,1.73,0,0,1-.49,1.26A1.71,1.71,0,0,1,894.91,221.87Zm-1,19.38V224.72h2v16.53Z"/>
      <path class="cls-4" d="M901.92,241.25V224.72h2v3.06h.41a6.22,6.22,0,0,1,2-2.36,6.72,6.72,0,0,1,4.05-1,7.27,7.27,0,0,1,3.3.75,5.77,5.77,0,0,1,2.39,2.26,7.33,7.33,0,0,1,.9,3.79v10.07h-2v-9.93a5,5,0,0,0-1.37-3.91,5.33,5.33,0,0,0-3.63-1.19,5.8,5.8,0,0,0-4.25,1.68A6.86,6.86,0,0,0,904,233v8.26Z"/>
      <path class="cls-4" d="M928.23,241.25a2.69,2.69,0,0,1-2-.68,2.62,2.62,0,0,1-.66-1.91v-12.1h-5.3v-1.84h5.3v-6.18h2v6.18h5.78v1.84h-5.78v11.83a.9.9,0,0,0,1,1h3.88v1.84Z"/>
      <path class="cls-4" d="M942.89,241.72a8,8,0,0,1-3.15-.59,5.13,5.13,0,0,1-2.23-1.75,4.74,4.74,0,0,1-.81-2.79,4.46,4.46,0,0,1,.81-2.75,5,5,0,0,1,2.22-1.64,8.46,8.46,0,0,1,3.09-.54h6v-1.33a4.1,4.1,0,0,0-1.16-3.12,4.63,4.63,0,0,0-3.36-1.13,5.16,5.16,0,0,0-3.45,1.08,5.29,5.29,0,0,0-1.72,2.87l-2-.58a7.92,7.92,0,0,1,1.29-2.64,6.16,6.16,0,0,1,2.35-1.86,8,8,0,0,1,3.5-.7,6.73,6.73,0,0,1,4.84,1.63,6,6,0,0,1,1.72,4.56v8c0,.68.32,1,1,1h1.6v1.77h-2.17a2.22,2.22,0,0,1-1.67-.63,2.35,2.35,0,0,1-.61-1.72v-.24h-.34a8.33,8.33,0,0,1-1.14,1.47,5.16,5.16,0,0,1-1.82,1.15A7.66,7.66,0,0,1,942.89,241.72Zm.13-1.83a5.82,5.82,0,0,0,4.24-1.58,6,6,0,0,0,1.61-4.47v-.41h-6a5.27,5.27,0,0,0-2.94.76,2.63,2.63,0,0,0-1.17,2.37A2.84,2.84,0,0,0,940,239,5.11,5.11,0,0,0,943,239.89Z"/>
      <path class="cls-4" d="M966.18,241.72a7.21,7.21,0,0,1-4.24-1.07,6.85,6.85,0,0,1-2.22-2.43h-.41v3h-2v-23.8h2v10.16h.41A6.05,6.05,0,0,1,961,226a6.16,6.16,0,0,1,2.07-1.26,8.5,8.5,0,0,1,3.08-.49,7.87,7.87,0,0,1,4,1,7.45,7.45,0,0,1,2.86,3,9.34,9.34,0,0,1,1,4.54v.41a9.1,9.1,0,0,1-1.07,4.54,7.57,7.57,0,0,1-2.87,3A7.9,7.9,0,0,1,966.18,241.72Zm-.48-1.83a6.08,6.08,0,0,0,4.57-1.8,6.84,6.84,0,0,0,1.75-5v-.27a6.79,6.79,0,0,0-1.75-5,6.66,6.66,0,0,0-9.13,0,6.8,6.8,0,0,0-1.76,5v.27a6.84,6.84,0,0,0,1.76,5A6.12,6.12,0,0,0,965.7,239.89Z"/>
      <path class="cls-4" d="M979.3,241.25v-23.8h2v23.8Z"/>
      <path class="cls-4" d="M994.94,241.72a8.79,8.79,0,0,1-4.44-1.07,7.47,7.47,0,0,1-2.94-3,9.17,9.17,0,0,1-1-4.45v-.41a9.17,9.17,0,0,1,1-4.47,7.54,7.54,0,0,1,2.91-3,8.34,8.34,0,0,1,4.23-1.07,8.42,8.42,0,0,1,4.1,1,6.94,6.94,0,0,1,2.8,2.78,8.76,8.76,0,0,1,1,4.34v1.09H988.55a6.63,6.63,0,0,0,1.88,4.78,6.33,6.33,0,0,0,4.51,1.68,5.45,5.45,0,0,0,3.59-1.06,6.9,6.9,0,0,0,2-2.58l1.84.82a9.89,9.89,0,0,1-1.41,2.19,7.15,7.15,0,0,1-2.33,1.77A8.38,8.38,0,0,1,994.94,241.72Zm-6.36-10.06h12a5.71,5.71,0,0,0-1.73-4.13,5.94,5.94,0,0,0-4.12-1.45,6,6,0,0,0-4.11,1.45A6.47,6.47,0,0,0,988.58,231.66Z"/>
      <path class="cls-4" d="M1016.43,248.05V224.72h2v3h.41a7,7,0,0,1,2.22-2.43,7.28,7.28,0,0,1,4.24-1.07,7.81,7.81,0,0,1,4,1,7.59,7.59,0,0,1,2.87,2.94,9.06,9.06,0,0,1,1.07,4.55v.41a9.31,9.31,0,0,1-1,4.54,7.48,7.48,0,0,1-2.86,3,8,8,0,0,1-4,1,8.54,8.54,0,0,1-3.08-.49,6,6,0,0,1-2.07-1.27,6.53,6.53,0,0,1-1.24-1.6h-.41v9.69Zm8.36-8.16a6.08,6.08,0,0,0,4.57-1.8,6.84,6.84,0,0,0,1.76-5v-.27a6.8,6.8,0,0,0-1.76-5,6.65,6.65,0,0,0-9.12,0,6.76,6.76,0,0,0-1.77,5v.27a6.8,6.8,0,0,0,1.77,5A6.08,6.08,0,0,0,1024.79,239.89Z"/>
      <path class="cls-4" d="M1045.94,241.72a8.67,8.67,0,0,1-4.4-1.07,7.4,7.4,0,0,1-2.93-3,9.28,9.28,0,0,1-1-4.47v-.41a9.28,9.28,0,0,1,1-4.47,7.4,7.4,0,0,1,2.93-3,9.58,9.58,0,0,1,8.8,0,7.4,7.4,0,0,1,2.93,3,9.28,9.28,0,0,1,1,4.47v.41a9.28,9.28,0,0,1-1,4.47,7.4,7.4,0,0,1-2.93,3A8.69,8.69,0,0,1,1045.94,241.72Zm0-1.83a6,6,0,0,0,4.62-1.85,7,7,0,0,0,1.7-4.92v-.27a6.94,6.94,0,0,0-1.7-4.91,6.66,6.66,0,0,0-9.23,0,6.94,6.94,0,0,0-1.71,4.91v.27a7,7,0,0,0,1.71,4.92A6,6,0,0,0,1045.94,239.89Z"/>
      <path class="cls-4" d="M1061.75,241.25,1058,224.72h2.11l3.26,15.17h.41l4.25-15.17h3.47l4.25,15.17h.41l3.26-15.17h2.11l-3.74,16.53h-3.57L1070,226.08h-.41l-4.25,15.17Z"/>
      <path class="cls-4" d="M1093.68,241.72a8.79,8.79,0,0,1-4.44-1.07,7.41,7.41,0,0,1-2.94-3,9.18,9.18,0,0,1-1.06-4.45v-.41a9.17,9.17,0,0,1,1.06-4.47,7.54,7.54,0,0,1,2.91-3,8.31,8.31,0,0,1,4.23-1.07,8.42,8.42,0,0,1,4.1,1,6.94,6.94,0,0,1,2.8,2.78,8.76,8.76,0,0,1,1,4.34v1.09h-14.08a6.6,6.6,0,0,0,1.89,4.78,6.31,6.31,0,0,0,4.51,1.68,5.42,5.42,0,0,0,3.58-1.06,7,7,0,0,0,2-2.58l1.83.82a9.89,9.89,0,0,1-1.41,2.19,7,7,0,0,1-2.33,1.77A8.33,8.33,0,0,1,1093.68,241.72Zm-6.36-10.06h12a5.67,5.67,0,0,0-1.74-4.13,5.89,5.89,0,0,0-4.11-1.45,6,6,0,0,0-4.12,1.45A6.51,6.51,0,0,0,1087.32,231.66Z"/>
      <path class="cls-4" d="M1106.39,241.25V224.72h2v2.08h.41a3.22,3.22,0,0,1,1.41-1.63,5.5,5.5,0,0,1,2.6-.51h1.94v1.9h-2.17a4.22,4.22,0,0,0-3,1.05,4.39,4.39,0,0,0-1.12,3.3v10.34Z"/>
      <path class="cls-4" d="M1125.19,241.72a8.94,8.94,0,0,1-5.11-1.42,6.45,6.45,0,0,1-2.6-4.73l2-.37a5.85,5.85,0,0,0,1.11,2.84,4.51,4.51,0,0,0,2,1.47,7.26,7.26,0,0,0,2.56.45,5.74,5.74,0,0,0,3.28-.84,2.61,2.61,0,0,0,1.25-2.29,2.13,2.13,0,0,0-1.18-2.08,11.73,11.73,0,0,0-3.11-.91l-1.56-.28a11.5,11.5,0,0,1-2.82-.83,5,5,0,0,1-2-1.51,3.79,3.79,0,0,1-.73-2.38,4,4,0,0,1,1.68-3.37,8.77,8.77,0,0,1,9,.05,5.7,5.7,0,0,1,2.16,3.69l-1.91.41a3.89,3.89,0,0,0-1.61-2.79,5.82,5.82,0,0,0-3.18-.81,5.47,5.47,0,0,0-3,.71,2.34,2.34,0,0,0-1.12,2.11,2.16,2.16,0,0,0,1,2,7.86,7.86,0,0,0,2.78.93l1.57.27a15.86,15.86,0,0,1,3.06.8,5.33,5.33,0,0,1,2.16,1.48,3.82,3.82,0,0,1,.8,2.52,4.2,4.2,0,0,1-1.77,3.62A8.06,8.06,0,0,1,1125.19,241.72Z"/>
    </g>
    <circle class="cls-7" cx="822" cy="226" r="17"/>
  </g>
  <g>
    <path class="cls-4" d="M873.65,74.25V50.45H888v2H875.83v8.91h11.25v2H875.83v9h12.34v2Z"/>
    <path class="cls-4" d="M893,74.25V57.72h2v3.06h.41a6.32,6.32,0,0,1,2-2.36,6.72,6.72,0,0,1,4-1,7.27,7.27,0,0,1,3.3.75,5.73,5.73,0,0,1,2.4,2.26,7.33,7.33,0,0,1,.9,3.79V74.25h-2V64.32a5,5,0,0,0-1.36-3.91A5.35,5.35,0,0,0,901,59.22a5.8,5.8,0,0,0-4.25,1.68A6.89,6.89,0,0,0,895,66v8.26Z"/>
    <path class="cls-4" d="M921.36,74.72a8.83,8.83,0,0,1-4.31-1,7.53,7.53,0,0,1-3-3A9.09,9.09,0,0,1,913,66.16v-.34a9.1,9.1,0,0,1,1.09-4.58,7.52,7.52,0,0,1,3-3,8.73,8.73,0,0,1,4.31-1,8.27,8.27,0,0,1,4,.9A7,7,0,0,1,928,60.5a7.63,7.63,0,0,1,1.17,3l-2,.41a6.13,6.13,0,0,0-.85-2.43,5,5,0,0,0-1.91-1.77,6.89,6.89,0,0,0-6.26.17,6,6,0,0,0-2.26,2.34,7.41,7.41,0,0,0-.83,3.59v.27a7.41,7.41,0,0,0,.83,3.59,6.09,6.09,0,0,0,2.26,2.35,6.38,6.38,0,0,0,3.24.83,5.64,5.64,0,0,0,4.14-1.41A6.12,6.12,0,0,0,927.27,68l2,.4a8.29,8.29,0,0,1-1.28,3,7.26,7.26,0,0,1-2.62,2.34A8.27,8.27,0,0,1,921.36,74.72Z"/>
    <path class="cls-4" d="M941.86,74.72a8.73,8.73,0,0,1-4.41-1.07,7.44,7.44,0,0,1-2.92-3,9.28,9.28,0,0,1-1-4.47v-.41a9.28,9.28,0,0,1,1-4.47,7.44,7.44,0,0,1,2.92-3,9.6,9.6,0,0,1,8.81,0,7.37,7.37,0,0,1,2.92,3,9.17,9.17,0,0,1,1,4.47v.41a9.17,9.17,0,0,1-1,4.47,7.37,7.37,0,0,1-2.92,3A8.72,8.72,0,0,1,941.86,74.72Zm0-1.83A6,6,0,0,0,946.48,71a7,7,0,0,0,1.7-4.92v-.27a7,7,0,0,0-1.7-4.91,6.66,6.66,0,0,0-9.23,0,7,7,0,0,0-1.72,4.91v.27A7,7,0,0,0,937.25,71,6,6,0,0,0,941.86,72.89Z"/>
    <path class="cls-4" d="M962.53,74.72a7.88,7.88,0,0,1-4-1,7.6,7.6,0,0,1-2.88-3,9.21,9.21,0,0,1-1.07-4.54v-.41a9.23,9.23,0,0,1,1.06-4.54,7.41,7.41,0,0,1,2.87-3,7.89,7.89,0,0,1,4-1,8.49,8.49,0,0,1,3.09.49A6.21,6.21,0,0,1,967.68,59a6.27,6.27,0,0,1,1.24,1.61h.41V50.45h2v23.8h-2v-3H969a7,7,0,0,1-2.23,2.43A7.19,7.19,0,0,1,962.53,74.72Zm.47-1.83a6.1,6.1,0,0,0,4.58-1.8,6.84,6.84,0,0,0,1.75-5v-.27a6.79,6.79,0,0,0-1.75-5,6.66,6.66,0,0,0-9.13,0,6.76,6.76,0,0,0-1.77,5v.27a6.8,6.8,0,0,0,1.77,5A6.11,6.11,0,0,0,963,72.89Z"/>
    <path class="cls-4" d="M985,74.72a8.79,8.79,0,0,1-4.44-1.07,7.41,7.41,0,0,1-2.94-3,9.17,9.17,0,0,1-1.05-4.45v-.41a9.17,9.17,0,0,1,1.05-4.47,7.54,7.54,0,0,1,2.91-3,8.21,8.21,0,0,1,4.23-1.07,8.42,8.42,0,0,1,4.1,1,6.94,6.94,0,0,1,2.8,2.78,8.76,8.76,0,0,1,1,4.34v1.09H978.58a6.55,6.55,0,0,0,1.88,4.78A6.31,6.31,0,0,0,985,72.89a5.45,5.45,0,0,0,3.59-1.06,6.9,6.9,0,0,0,2-2.58l1.84.82a9.89,9.89,0,0,1-1.41,2.19A7.26,7.26,0,0,1,988.61,74,8.41,8.41,0,0,1,985,74.72Zm-6.36-10.06h12a5.67,5.67,0,0,0-1.74-4.13,5.89,5.89,0,0,0-4.11-1.45,6,6,0,0,0-4.11,1.45A6.47,6.47,0,0,0,978.61,64.66Z"/>
    <path class="cls-4" d="M1004.82,74.72a7.9,7.9,0,0,1-4-1,7.57,7.57,0,0,1-2.87-3,9.21,9.21,0,0,1-1.07-4.54v-.41a9.34,9.34,0,0,1,1-4.54,7.41,7.41,0,0,1,2.87-3,7.94,7.94,0,0,1,4-1,8.51,8.51,0,0,1,3.1.49A6.31,6.31,0,0,1,1010,59a6.5,6.5,0,0,1,1.24,1.61h.4V50.45h2v23.8h-2v-3h-.41a6.85,6.85,0,0,1-2.22,2.43A7.21,7.21,0,0,1,1004.82,74.72Zm.48-1.83a6.08,6.08,0,0,0,4.57-1.8,6.84,6.84,0,0,0,1.75-5v-.27a6.79,6.79,0,0,0-1.75-5,6.66,6.66,0,0,0-9.13,0,6.8,6.8,0,0,0-1.76,5v.27a6.84,6.84,0,0,0,1.76,5A6.12,6.12,0,0,0,1005.3,72.89Z"/>
    <path class="cls-4" d="M1029.44,54.87a1.74,1.74,0,0,1-1.77-1.77,1.67,1.67,0,0,1,.51-1.27,1.74,1.74,0,0,1,1.26-.5,1.71,1.71,0,0,1,1.77,1.77,1.74,1.74,0,0,1-.5,1.26A1.67,1.67,0,0,1,1029.44,54.87Zm-1,19.38V57.72h2V74.25Z"/>
    <path class="cls-4" d="M1036.44,74.25V57.72h2v3.06h.4a6.26,6.26,0,0,1,2-2.36,6.72,6.72,0,0,1,4.05-1,7.2,7.2,0,0,1,3.29.75,5.73,5.73,0,0,1,2.4,2.26,7.33,7.33,0,0,1,.9,3.79V74.25h-2V64.32a4.94,4.94,0,0,0-1.36-3.91,5.34,5.34,0,0,0-3.64-1.19,5.81,5.81,0,0,0-4.25,1.68,6.89,6.89,0,0,0-1.7,5.09v8.26Z"/>
    <path class="cls-4" d="M1074.86,74.72a7.19,7.19,0,0,1-4.23-1.07,7,7,0,0,1-2.23-2.43h-.4v3h-2V50.45h2V60.61h.41a6.5,6.5,0,0,1,1.24-1.61,6.21,6.21,0,0,1,2.08-1.26,8.48,8.48,0,0,1,3.07-.49,7.88,7.88,0,0,1,4.05,1,7.52,7.52,0,0,1,2.86,3,9.34,9.34,0,0,1,1,4.54v.41a9.21,9.21,0,0,1-1.07,4.54,7.64,7.64,0,0,1-2.87,3A7.94,7.94,0,0,1,1074.86,74.72Zm-.47-1.83a6.09,6.09,0,0,0,4.57-1.8,6.84,6.84,0,0,0,1.75-5v-.27a6.79,6.79,0,0,0-1.75-5,6.66,6.66,0,0,0-9.13,0,6.76,6.76,0,0,0-1.77,5v.27a6.8,6.8,0,0,0,1.77,5A6.12,6.12,0,0,0,1074.39,72.89Z"/>
    <path class="cls-4" d="M1089,54.87a1.74,1.74,0,0,1-1.77-1.77,1.67,1.67,0,0,1,.51-1.27,1.74,1.74,0,0,1,1.26-.5,1.71,1.71,0,0,1,1.77,1.77,1.74,1.74,0,0,1-.5,1.26A1.69,1.69,0,0,1,1089,54.87Zm-1,19.38V57.72h2V74.25Z"/>
    <path class="cls-4" d="M1096,74.25V57.72h2v3.06h.41a6.26,6.26,0,0,1,2-2.36,6.71,6.71,0,0,1,4-1,7.27,7.27,0,0,1,3.3.75,5.73,5.73,0,0,1,2.4,2.26,7.33,7.33,0,0,1,.9,3.79V74.25h-2V64.32a4.94,4.94,0,0,0-1.36-3.91,5.35,5.35,0,0,0-3.64-1.19,5.8,5.8,0,0,0-4.25,1.68,6.89,6.89,0,0,0-1.7,5.09v8.26Z"/>
    <path class="cls-4" d="M1121.88,74.72a8,8,0,0,1-3.14-.59,5.13,5.13,0,0,1-2.23-1.75,4.74,4.74,0,0,1-.81-2.79,4.46,4.46,0,0,1,.81-2.75,5,5,0,0,1,2.21-1.64,8.51,8.51,0,0,1,3.1-.54h6V63.33a4.14,4.14,0,0,0-1.16-3.12,4.63,4.63,0,0,0-3.36-1.13,5.16,5.16,0,0,0-3.45,1.08,5.23,5.23,0,0,0-1.72,2.87l-2-.58a7.92,7.92,0,0,1,1.29-2.64,6.32,6.32,0,0,1,2.34-1.87,8.2,8.2,0,0,1,3.51-.69,6.73,6.73,0,0,1,4.84,1.63,6,6,0,0,1,1.72,4.56v8c0,.68.32,1,.95,1h1.6v1.77h-2.18a2.21,2.21,0,0,1-1.66-.63,2.35,2.35,0,0,1-.62-1.72v-.24h-.33a8.33,8.33,0,0,1-1.14,1.47,5.16,5.16,0,0,1-1.82,1.15A7.68,7.68,0,0,1,1121.88,74.72Zm.14-1.83a5.78,5.78,0,0,0,4.23-1.58,6,6,0,0,0,1.62-4.47v-.41h-6a5.27,5.27,0,0,0-2.94.76,2.63,2.63,0,0,0-1.17,2.37,2.86,2.86,0,0,0,1.2,2.46A5.15,5.15,0,0,0,1122,72.89Z"/>
    <path class="cls-4" d="M1136.33,74.25V57.72h2V59.8h.4a3.19,3.19,0,0,1,1.42-1.63,5.47,5.47,0,0,1,2.6-.51h1.94v1.9h-2.18a4.19,4.19,0,0,0-3,1,4.35,4.35,0,0,0-1.12,3.3V74.25Z"/>
    <path class="cls-4" d="M1151,81.05V79.21h9.65a.9.9,0,0,0,1-1v-6.8h-.41a5.83,5.83,0,0,1-1.14,1.55,5.42,5.42,0,0,1-1.9,1.19,8,8,0,0,1-2.94.46,7.28,7.28,0,0,1-3.28-.75,5.8,5.8,0,0,1-2.42-2.24,7.25,7.25,0,0,1-.9-3.78V57.72h2v10a4.91,4.91,0,0,0,1.36,3.87,5.3,5.3,0,0,0,3.64,1.19,5.82,5.82,0,0,0,4.25-1.66,6.82,6.82,0,0,0,1.7-5.07v-8.3h2V78.46a2.64,2.64,0,0,1-.66,1.91,2.68,2.68,0,0,1-2,.68Z"/>
  </g>
  <line class="cls-8" x1="816" y1="91" x2="1227.29" y2="91"/>
  <g>
    <text class="cls-3" transform="translate(505.24 317.38)">11,Ø</text>
    <g>
      <path class="cls-4" d="M870.64,318.25V296.42h-8v-2h18.09v2h-8v21.83Z"/>
      <path class="cls-4" d="M884.75,318.25,881,301.72h2.11l3.26,15.17h.41L891,301.72h3.46l4.25,15.17h.41l3.27-15.17h2.11l-3.75,16.53h-3.56L893,303.08h-.41l-4.25,15.17Z"/>
      <path class="cls-4" d="M910.52,298.87a1.74,1.74,0,0,1-1.77-1.77,1.67,1.67,0,0,1,.51-1.27,1.74,1.74,0,0,1,1.26-.5,1.71,1.71,0,0,1,1.77,1.77,1.74,1.74,0,0,1-.5,1.26A1.67,1.67,0,0,1,910.52,298.87Zm-1,19.38V301.72h2v16.53Z"/>
      <path class="cls-4" d="M917.52,318.25V301.72h2v3.06h.4a6.26,6.26,0,0,1,2-2.36,6.72,6.72,0,0,1,4.05-1,7.2,7.2,0,0,1,3.29.75,5.73,5.73,0,0,1,2.4,2.26,7.33,7.33,0,0,1,.9,3.79v10.07h-2v-9.93a4.94,4.94,0,0,0-1.36-3.91,5.35,5.35,0,0,0-3.64-1.19,5.81,5.81,0,0,0-4.25,1.68,6.9,6.9,0,0,0-1.7,5.09v8.26Z"/>
      <path class="cls-4" d="M947,318.25v-23.8h8.8a8.6,8.6,0,0,1,3.79.8,6.2,6.2,0,0,1,3.66,5.93v.41a6.44,6.44,0,0,1-1,3.65,6.32,6.32,0,0,1-2.68,2.3,8.84,8.84,0,0,1-3.76.78h-6.63v9.93Zm2.17-11.9h6.39a6,6,0,0,0,4-1.26,4.39,4.39,0,0,0,1.48-3.54v-.34a4.43,4.43,0,0,0-1.44-3.55,6.06,6.06,0,0,0-4.07-1.24h-6.39Z"/>
      <path class="cls-4" d="M967.5,318.25V301.72h2v2.08h.41a3.22,3.22,0,0,1,1.41-1.63,5.5,5.5,0,0,1,2.6-.51h1.94v1.9h-2.17a4.18,4.18,0,0,0-3,1.05,4.35,4.35,0,0,0-1.13,3.3v10.34Z"/>
      <path class="cls-4" d="M981.07,298.87a1.74,1.74,0,0,1-1.77-1.77,1.67,1.67,0,0,1,.51-1.27,1.74,1.74,0,0,1,1.26-.5,1.71,1.71,0,0,1,1.77,1.77,1.74,1.74,0,0,1-.5,1.26A1.69,1.69,0,0,1,981.07,298.87Zm-1,19.38V301.72h2v16.53Z"/>
      <path class="cls-4" d="M988.07,318.25V301.72h2v2.18h.41a5.57,5.57,0,0,1,1.63-1.72,5.5,5.5,0,0,1,3.2-.8,5.12,5.12,0,0,1,5,3.13h.41a5.21,5.21,0,0,1,5.24-3.13,6,6,0,0,1,2.95.7,5.13,5.13,0,0,1,2,1.94,5.81,5.81,0,0,1,.71,2.91v11.32h-2V307.13a3.85,3.85,0,0,0-1.07-2.84,4.08,4.08,0,0,0-3-1.07,4.56,4.56,0,0,0-3.3,1.28,4.94,4.94,0,0,0-1.32,3.72v10h-2V307.13a3.85,3.85,0,0,0-1.07-2.84,4.1,4.1,0,0,0-3-1.07,4.52,4.52,0,0,0-3.3,1.28,4.9,4.9,0,0,0-1.33,3.72v10Z"/>
      <path class="cls-4" d="M1025,318.72a8.79,8.79,0,0,1-4.44-1.07,7.41,7.41,0,0,1-2.94-3,9.18,9.18,0,0,1-1.06-4.45v-.41a9.17,9.17,0,0,1,1.06-4.47,7.59,7.59,0,0,1,2.9-3,9,9,0,0,1,8.33-.1,7,7,0,0,1,2.81,2.78,8.76,8.76,0,0,1,1,4.34v1.09H1018.6a6.6,6.6,0,0,0,1.89,4.78,6.31,6.31,0,0,0,4.51,1.68,5.42,5.42,0,0,0,3.58-1.06,7,7,0,0,0,2-2.58l1.83.82a9.89,9.89,0,0,1-1.41,2.19,7,7,0,0,1-2.33,1.77A8.33,8.33,0,0,1,1025,318.72Zm-6.36-10.06h12a5.71,5.71,0,0,0-1.74-4.13,5.91,5.91,0,0,0-4.11-1.45,6,6,0,0,0-4.12,1.45A6.51,6.51,0,0,0,1018.64,308.66Z"/>
      <path class="cls-4" d="M1044.27,318.72a8.94,8.94,0,0,1-5.11-1.42,6.45,6.45,0,0,1-2.6-4.73l2-.37a5.85,5.85,0,0,0,1.11,2.84,4.51,4.51,0,0,0,2,1.47,7.26,7.26,0,0,0,2.56.45,5.74,5.74,0,0,0,3.28-.84,2.61,2.61,0,0,0,1.25-2.29,2.13,2.13,0,0,0-1.18-2.08,11.73,11.73,0,0,0-3.11-.91l-1.56-.28a11.5,11.5,0,0,1-2.82-.83,5,5,0,0,1-2-1.51,3.79,3.79,0,0,1-.73-2.38,4,4,0,0,1,1.68-3.37,8.77,8.77,0,0,1,9,0,5.7,5.7,0,0,1,2.16,3.69l-1.91.41a3.89,3.89,0,0,0-1.61-2.79,5.82,5.82,0,0,0-3.18-.81,5.47,5.47,0,0,0-3,.71,2.34,2.34,0,0,0-1.12,2.11,2.16,2.16,0,0,0,1,2,7.86,7.86,0,0,0,2.78.93l1.57.27a15.86,15.86,0,0,1,3.06.8,5.33,5.33,0,0,1,2.16,1.48,3.82,3.82,0,0,1,.8,2.52,4.2,4.2,0,0,1-1.77,3.62A8.06,8.06,0,0,1,1044.27,318.72Z"/>
      <path class="cls-4" d="M1073.72,326.07a12.47,12.47,0,0,1-5.36-1.07,7.57,7.57,0,0,1-3.5-3.44,13.21,13.21,0,0,1-1.24-6.17V303.76a13.17,13.17,0,0,1,1.24-6.18,7.52,7.52,0,0,1,3.5-3.42,12.47,12.47,0,0,1,5.36-1.07v1.77c-2.81,0-4.87.81-6.17,2.29s-2,3.75-2,6.78v11.29c0,3,.65,5.27,2,6.77s3.36,2.26,6.17,2.31Z"/>
      <path class="cls-4" d="M1083.61,313.42V307.3h-6.15v-1.9h6.15v-6.12h2v6.12h6.16v1.9h-6.16v6.12Zm-6.15,4.83v-1.91h14.28v1.91Z"/>
      <path class="cls-4" d="M1097.11,318.25V315.9a7.63,7.63,0,0,1,.92-4,6.64,6.64,0,0,1,2.56-2.36,21.1,21.1,0,0,1,3.9-1.56l1.7-.55a14.2,14.2,0,0,0,2.94-1.24,5.09,5.09,0,0,0,2.7-4.81v-.14a4.82,4.82,0,0,0-1.72-3.91,6.59,6.59,0,0,0-4.36-1.42,6.94,6.94,0,0,0-4.63,1.51,5.68,5.68,0,0,0-1.8,4.61v.44h-2V302a8.19,8.19,0,0,1,1.09-4.37,7,7,0,0,1,3-2.72,10.67,10.67,0,0,1,8.67,0,6.69,6.69,0,0,1,3.89,6.28v.3a7.18,7.18,0,0,1-.9,3.79,7,7,0,0,1-2.54,2.42,20.31,20.31,0,0,1-3.84,1.65l-1.7.51a21.63,21.63,0,0,0-3.11,1.2,4.8,4.8,0,0,0-1.95,1.67,5.14,5.14,0,0,0-.68,2.87v.78h14.51v1.91Z"/>
      <path class="cls-4" d="M1116.08,326.07V324.3c2.83-.05,4.9-.82,6.19-2.31s1.94-3.75,1.94-6.77V303.93q0-4.55-1.94-6.78c-1.29-1.48-3.36-2.25-6.19-2.29v-1.77a12.5,12.5,0,0,1,5.36,1.07,7.57,7.57,0,0,1,3.5,3.42,13.3,13.3,0,0,1,1.24,6.18v11.63a13.34,13.34,0,0,1-1.24,6.17,7.61,7.61,0,0,1-3.5,3.44A12.5,12.5,0,0,1,1116.08,326.07Z"/>
    </g>
    <circle class="cls-9" cx="822" cy="305" r="17"/>
    <g>
      <path class="cls-4" d="M873.09,378.72a9.13,9.13,0,0,1-6.69-2.46q-2.49-2.46-2.49-7.23v-5.37q0-4.76,2.49-7.22a9.1,9.1,0,0,1,6.69-2.47,8.32,8.32,0,0,1,6.34,2.33,8.88,8.88,0,0,1,2.19,6.34v.17h-2.18v-.24a7.18,7.18,0,0,0-1.54-4.77,5.91,5.91,0,0,0-4.81-1.86,6.68,6.68,0,0,0-5.16,2,8,8,0,0,0-1.85,5.64v5.51a8,8,0,0,0,1.85,5.65,6.71,6.71,0,0,0,5.16,2,5.93,5.93,0,0,0,4.81-1.85,7.22,7.22,0,0,0,1.54-4.78v-.51h2.18v.44a8.87,8.87,0,0,1-2.19,6.34A8.28,8.28,0,0,1,873.09,378.72Z"/>
      <path class="cls-4" d="M894.06,378.72a8.72,8.72,0,0,1-4.4-1.07,7.37,7.37,0,0,1-2.92-3,9.17,9.17,0,0,1-1-4.47v-.41a9.17,9.17,0,0,1,1-4.47,7.37,7.37,0,0,1,2.92-3,9.6,9.6,0,0,1,8.81,0,7.44,7.44,0,0,1,2.92,3,9.28,9.28,0,0,1,1,4.47v.41a9.28,9.28,0,0,1-1,4.47,7.44,7.44,0,0,1-2.92,3A8.73,8.73,0,0,1,894.06,378.72Zm0-1.83a6,6,0,0,0,4.63-1.85,7,7,0,0,0,1.7-4.92v-.27a7,7,0,0,0-1.7-4.91,6.66,6.66,0,0,0-9.23,0,6.9,6.9,0,0,0-1.72,4.91v.27a6.94,6.94,0,0,0,1.72,4.92A6,6,0,0,0,894.06,376.89Z"/>
      <path class="cls-4" d="M914,378.59a7.28,7.28,0,0,1-3.28-.75,5.7,5.7,0,0,1-2.41-2.26,7.31,7.31,0,0,1-.9-3.79V361.72h2v9.93a4.94,4.94,0,0,0,1.36,3.89,5.24,5.24,0,0,0,3.63,1.21,5.8,5.8,0,0,0,4.25-1.68,6.84,6.84,0,0,0,1.7-5.08v-8.27h2v16.53h-2v-3.06H920a6.14,6.14,0,0,1-2,2.36A6.72,6.72,0,0,1,914,378.59Z"/>
      <path class="cls-4" d="M934.93,378.72a9,9,0,0,1-5.12-1.42,6.51,6.51,0,0,1-2.6-4.73l2-.37a5.94,5.94,0,0,0,1.1,2.84,4.62,4.62,0,0,0,2,1.47,7.31,7.31,0,0,0,2.57.45,5.76,5.76,0,0,0,3.28-.84,2.61,2.61,0,0,0,1.24-2.29,2.12,2.12,0,0,0-1.17-2.08,11.73,11.73,0,0,0-3.11-.91l-1.57-.28a11.63,11.63,0,0,1-2.82-.83,5,5,0,0,1-2-1.51,3.85,3.85,0,0,1-.73-2.38,3.93,3.93,0,0,1,1.69-3.37,8.77,8.77,0,0,1,9,0,5.7,5.7,0,0,1,2.16,3.69l-1.91.41a3.92,3.92,0,0,0-1.61-2.79,5.82,5.82,0,0,0-3.18-.81,5.51,5.51,0,0,0-3,.71,2.36,2.36,0,0,0-1.12,2.11,2.16,2.16,0,0,0,1,2,7.85,7.85,0,0,0,2.79.93l1.56.27a15.77,15.77,0,0,1,3.07.8,5.23,5.23,0,0,1,2.15,1.48,3.77,3.77,0,0,1,.8,2.52,4.2,4.2,0,0,1-1.77,3.62A8,8,0,0,1,934.93,378.72Z"/>
      <path class="cls-4" d="M947.34,358.87a1.74,1.74,0,0,1-1.77-1.77,1.67,1.67,0,0,1,.51-1.27,1.76,1.76,0,0,1,3,1.27,1.78,1.78,0,0,1-.49,1.26A1.71,1.71,0,0,1,947.34,358.87Zm-1,19.38V361.72h2v16.53Z"/>
      <path class="cls-4" d="M954.34,378.25V361.72h2v3.06h.4a6.26,6.26,0,0,1,2-2.36,6.72,6.72,0,0,1,4-1,7.2,7.2,0,0,1,3.29.75,5.73,5.73,0,0,1,2.4,2.26,7.33,7.33,0,0,1,.9,3.79v10.07h-2v-9.93a4.94,4.94,0,0,0-1.36-3.91,5.34,5.34,0,0,0-3.64-1.19,5.81,5.81,0,0,0-4.25,1.68,6.9,6.9,0,0,0-1.7,5.09v8.26Z"/>
      <path class="cls-4" d="M983.86,378.25v-23.8h8.8a8.6,8.6,0,0,1,3.79.8,6.35,6.35,0,0,1,2.67,2.29,6.45,6.45,0,0,1,1,3.64v.41a6.51,6.51,0,0,1-1,3.65,6.4,6.4,0,0,1-2.69,2.3,8.84,8.84,0,0,1-3.76.78H986v9.93Zm2.17-11.9h6.39a6,6,0,0,0,4-1.26,4.39,4.39,0,0,0,1.48-3.54v-.34a4.43,4.43,0,0,0-1.44-3.55,6.06,6.06,0,0,0-4.07-1.24H986Z"/>
      <path class="cls-4" d="M1004.32,378.25V361.72h2v2.08h.4a3.19,3.19,0,0,1,1.42-1.63,5.47,5.47,0,0,1,2.6-.51h1.93v1.9h-2.17a4.18,4.18,0,0,0-3,1.05,4.35,4.35,0,0,0-1.13,3.3v10.34Z"/>
      <path class="cls-4" d="M1017.89,358.87a1.74,1.74,0,0,1-1.77-1.77,1.67,1.67,0,0,1,.51-1.27,1.76,1.76,0,0,1,3,1.27,1.78,1.78,0,0,1-.49,1.26A1.71,1.71,0,0,1,1017.89,358.87Zm-1,19.38V361.72h2v16.53Z"/>
      <path class="cls-4" d="M1024.89,378.25V361.72h2v2.18h.4a5.1,5.1,0,0,1,4.83-2.52,5.35,5.35,0,0,1,3.25.92,5.23,5.23,0,0,1,1.78,2.21h.41a5.21,5.21,0,0,1,5.24-3.13,6.08,6.08,0,0,1,3,.7,5.17,5.17,0,0,1,2,1.94,5.81,5.81,0,0,1,.71,2.91v11.32h-2V367.13a3.85,3.85,0,0,0-1.07-2.84,4.08,4.08,0,0,0-3-1.07,4.56,4.56,0,0,0-3.3,1.28,4.94,4.94,0,0,0-1.32,3.72v10h-2V367.13a3.85,3.85,0,0,0-1.07-2.84,4.1,4.1,0,0,0-3-1.07,4.52,4.52,0,0,0-3.3,1.28,4.94,4.94,0,0,0-1.33,3.72v10Z"/>
      <path class="cls-4" d="M1061.82,378.72a8.79,8.79,0,0,1-4.44-1.07,7.41,7.41,0,0,1-2.94-3,9.18,9.18,0,0,1-1.06-4.45v-.41a9.17,9.17,0,0,1,1.06-4.47,7.54,7.54,0,0,1,2.91-3,8.31,8.31,0,0,1,4.23-1.07,8.42,8.42,0,0,1,4.1,1,6.94,6.94,0,0,1,2.8,2.78,8.76,8.76,0,0,1,1,4.34v1.09h-14.08a6.6,6.6,0,0,0,1.89,4.78,6.31,6.31,0,0,0,4.51,1.68,5.42,5.42,0,0,0,3.58-1.06,6.93,6.93,0,0,0,2-2.58l1.84.82a10,10,0,0,1-1.42,2.19,7.11,7.11,0,0,1-2.32,1.77A8.41,8.41,0,0,1,1061.82,378.72Zm-6.36-10.06h12a5.67,5.67,0,0,0-1.74-4.13,5.89,5.89,0,0,0-4.11-1.45,6,6,0,0,0-4.12,1.45A6.51,6.51,0,0,0,1055.46,368.66Z"/>
      <path class="cls-4" d="M1081.09,378.72a8.94,8.94,0,0,1-5.11-1.42,6.45,6.45,0,0,1-2.6-4.73l2-.37a5.85,5.85,0,0,0,1.11,2.84,4.51,4.51,0,0,0,2,1.47,7.26,7.26,0,0,0,2.56.45,5.77,5.77,0,0,0,3.29-.84,2.63,2.63,0,0,0,1.24-2.29,2.11,2.11,0,0,0-1.18-2.08,11.73,11.73,0,0,0-3.11-.91l-1.56-.28a11.63,11.63,0,0,1-2.82-.83,5,5,0,0,1-2-1.51,3.79,3.79,0,0,1-.73-2.38,4,4,0,0,1,1.68-3.37,8.77,8.77,0,0,1,9,0,5.7,5.7,0,0,1,2.16,3.69l-1.91.41a3.89,3.89,0,0,0-1.61-2.79,5.82,5.82,0,0,0-3.18-.81,5.47,5.47,0,0,0-3,.71,2.34,2.34,0,0,0-1.12,2.11,2.16,2.16,0,0,0,1,2,7.85,7.85,0,0,0,2.79.93l1.56.27a15.86,15.86,0,0,1,3.06.8,5.2,5.2,0,0,1,2.16,1.48,3.82,3.82,0,0,1,.8,2.52,4.2,4.2,0,0,1-1.77,3.62A8.06,8.06,0,0,1,1081.09,378.72Z"/>
      <path class="cls-4" d="M1110.54,386.07a12.5,12.5,0,0,1-5.36-1.07,7.61,7.61,0,0,1-3.5-3.44,13.21,13.21,0,0,1-1.24-6.17V363.76a13.17,13.17,0,0,1,1.24-6.18,7.57,7.57,0,0,1,3.5-3.42,12.5,12.5,0,0,1,5.36-1.07v1.77c-2.81,0-4.87.81-6.17,2.29s-2,3.75-2,6.78v11.29c0,3,.65,5.27,2,6.77s3.36,2.26,6.17,2.31Z"/>
      <path class="cls-4" d="M1120.43,373.42V367.3h-6.15v-1.9h6.15v-6.12h2v6.12h6.15v1.9h-6.15v6.12Zm-6.15,4.83v-1.91h14.28v1.91Z"/>
      <path class="cls-4" d="M1145.83,378.25v-4.9h-12.72v-2.51l10.75-16.39h4.08v17h4.15v1.9h-4.15v4.9Zm-10.51-6.8h10.51V355.67h-.41l-10.1,15.44Z"/>
      <path class="cls-4" d="M1153.38,386.07V384.3q4.24-.07,6.19-2.31c1.29-1.5,1.93-3.75,1.93-6.77V363.93q0-4.55-1.93-6.78c-1.3-1.48-3.36-2.25-6.19-2.29v-1.77a12.42,12.42,0,0,1,5.35,1.07,7.54,7.54,0,0,1,3.51,3.42,13.3,13.3,0,0,1,1.24,6.18v11.63a13.34,13.34,0,0,1-1.24,6.17,7.59,7.59,0,0,1-3.51,3.44A12.42,12.42,0,0,1,1153.38,386.07Z"/>
    </g>
    <circle class="cls-10" cx="822" cy="365" r="17"/>
    <g>
      <path class="cls-4" d="M872.44,438.72a11,11,0,0,1-4.56-.9,7.1,7.1,0,0,1-3.16-2.75,8.79,8.79,0,0,1-1.15-4.71v-.65h2.17v.65a6,6,0,0,0,1.89,4.88,7.26,7.26,0,0,0,4.81,1.58,6.79,6.79,0,0,0,4.56-1.38,4.44,4.44,0,0,0,1.59-3.52,3.57,3.57,0,0,0-.69-2.29,5,5,0,0,0-1.94-1.4,19.78,19.78,0,0,0-2.87-.93l-2.18-.54a18,18,0,0,1-3.47-1.28,6.39,6.39,0,0,1-2.41-2,5.31,5.31,0,0,1-.89-3.17,5.69,5.69,0,0,1,1-3.37,6.35,6.35,0,0,1,2.77-2.19A10.28,10.28,0,0,1,872,414a10.4,10.4,0,0,1,4.23.82,6.87,6.87,0,0,1,3,2.4,6.78,6.78,0,0,1,1.1,4v1.59h-2.17v-1.59a5.17,5.17,0,0,0-.82-3,4.71,4.71,0,0,0-2.21-1.7,8.6,8.6,0,0,0-3.13-.54,7,7,0,0,0-4.1,1.14,3.78,3.78,0,0,0-1.61,3.28,3.58,3.58,0,0,0,.66,2.27,4.54,4.54,0,0,0,1.87,1.36,19.39,19.39,0,0,0,2.84.92l2.18.55a17.28,17.28,0,0,1,3.43,1.17,6.53,6.53,0,0,1,2.52,2,5.45,5.45,0,0,1,.95,3.34,6.28,6.28,0,0,1-1,3.61,6.68,6.68,0,0,1-2.9,2.36A10.65,10.65,0,0,1,872.44,438.72Z"/>
      <path class="cls-4" d="M893.28,438.72a8.79,8.79,0,0,1-4.44-1.07,7.54,7.54,0,0,1-2.94-3,9.17,9.17,0,0,1-1-4.45v-.41a9.17,9.17,0,0,1,1-4.47,7.68,7.68,0,0,1,2.91-3,9,9,0,0,1,8.33-.1A7,7,0,0,1,900,425a8.76,8.76,0,0,1,1,4.34v1.09H886.89a6.6,6.6,0,0,0,1.89,4.78,6.31,6.31,0,0,0,4.5,1.68,5.45,5.45,0,0,0,3.59-1.06,6.9,6.9,0,0,0,2-2.58l1.84.82a9.89,9.89,0,0,1-1.41,2.19,7.15,7.15,0,0,1-2.33,1.77A8.38,8.38,0,0,1,893.28,438.72Zm-6.36-10.06h12a5.71,5.71,0,0,0-1.73-4.13,5.94,5.94,0,0,0-4.12-1.45,6,6,0,0,0-4.11,1.45A6.47,6.47,0,0,0,886.92,428.66Z"/>
      <path class="cls-4" d="M903.58,438.25l6.91-8.4-6.67-8.13h2.55l5.41,6.77h.41l5.4-6.77h2.55l-6.66,8.13,6.9,8.4H917.8l-5.61-7h-.41l-5.61,7Z"/>
      <path class="cls-4" d="M927.15,445.05v-1.84h9.65a.9.9,0,0,0,1-1v-6.8h-.41a5.83,5.83,0,0,1-1.14,1.55,5.42,5.42,0,0,1-1.9,1.19,8,8,0,0,1-2.94.46,7.28,7.28,0,0,1-3.28-.75,5.8,5.8,0,0,1-2.42-2.24,7.25,7.25,0,0,1-.9-3.78v-10.1h2v10a4.91,4.91,0,0,0,1.36,3.87,5.3,5.3,0,0,0,3.64,1.19,5.82,5.82,0,0,0,4.25-1.66,6.82,6.82,0,0,0,1.7-5.07v-8.3h2v20.74a2.64,2.64,0,0,1-.66,1.91,2.68,2.68,0,0,1-2,.68Z"/>
      <path class="cls-4" d="M954.55,438.25v-23.8h8.81a8.66,8.66,0,0,1,3.79.8,6.41,6.41,0,0,1,2.67,2.29,6.53,6.53,0,0,1,1,3.64v.41a6.24,6.24,0,0,1-3.69,6,8.8,8.8,0,0,1-3.75.78h-6.64v9.93Zm2.17-11.9h6.4a6,6,0,0,0,4-1.26,4.41,4.41,0,0,0,1.47-3.54v-.34a4.43,4.43,0,0,0-1.44-3.55,6,6,0,0,0-4.06-1.24h-6.4Z"/>
      <path class="cls-4" d="M975,438.25V421.72h2v2.08h.41a3.13,3.13,0,0,1,1.41-1.63,5.47,5.47,0,0,1,2.6-.51h1.94v1.9h-2.18a4.19,4.19,0,0,0-3,1.05,4.35,4.35,0,0,0-1.12,3.3v10.34Z"/>
      <path class="cls-4" d="M988.58,418.87a1.74,1.74,0,0,1-1.77-1.77,1.67,1.67,0,0,1,.51-1.27,1.86,1.86,0,0,1,2.54,0,1.7,1.7,0,0,1,.49,1.27,1.73,1.73,0,0,1-.49,1.26A1.71,1.71,0,0,1,988.58,418.87Zm-1,19.38V421.72h2v16.53Z"/>
      <path class="cls-4" d="M995.59,438.25V421.72h2v2.18H998a5.07,5.07,0,0,1,4.82-2.52,5.15,5.15,0,0,1,5,3.13h.4a5.23,5.23,0,0,1,5.24-3.13,6.08,6.08,0,0,1,3,.7,5.1,5.1,0,0,1,2,1.94,5.71,5.71,0,0,1,.71,2.91v11.32h-2V427.13a3.81,3.81,0,0,0-1.07-2.84,4.07,4.07,0,0,0-3-1.07,4.52,4.52,0,0,0-3.29,1.28,4.9,4.9,0,0,0-1.33,3.72v10h-2V427.13a3.85,3.85,0,0,0-1.07-2.84,4.1,4.1,0,0,0-3-1.07,4.54,4.54,0,0,0-3.3,1.28,4.94,4.94,0,0,0-1.32,3.72v10Z"/>
      <path class="cls-4" d="M1032.51,438.72a8.79,8.79,0,0,1-4.44-1.07,7.47,7.47,0,0,1-2.94-3,9.17,9.17,0,0,1-1.05-4.45v-.41a9.17,9.17,0,0,1,1.05-4.47,7.54,7.54,0,0,1,2.91-3,8.34,8.34,0,0,1,4.23-1.07,8.42,8.42,0,0,1,4.1,1,6.94,6.94,0,0,1,2.8,2.78,8.76,8.76,0,0,1,1,4.34v1.09h-14.07a6.63,6.63,0,0,0,1.88,4.78,6.35,6.35,0,0,0,4.51,1.68,5.45,5.45,0,0,0,3.59-1.06,6.9,6.9,0,0,0,2-2.58l1.84.82a9.89,9.89,0,0,1-1.41,2.19,7.15,7.15,0,0,1-2.33,1.77A8.38,8.38,0,0,1,1032.51,438.72Zm-6.36-10.06h12a5.71,5.71,0,0,0-1.73-4.13,5.94,5.94,0,0,0-4.12-1.45,6,6,0,0,0-4.11,1.45A6.47,6.47,0,0,0,1026.15,428.66Z"/>
      <path class="cls-4" d="M1051.79,438.72a9,9,0,0,1-5.12-1.42,6.48,6.48,0,0,1-2.6-4.73l2-.37a5.84,5.84,0,0,0,1.1,2.84,4.62,4.62,0,0,0,2,1.47,7.27,7.27,0,0,0,2.57.45,5.76,5.76,0,0,0,3.28-.84,2.61,2.61,0,0,0,1.24-2.29,2.12,2.12,0,0,0-1.17-2.08,11.84,11.84,0,0,0-3.11-.91l-1.57-.28a11.63,11.63,0,0,1-2.82-.83,5,5,0,0,1-2-1.51,3.79,3.79,0,0,1-.73-2.38,4,4,0,0,1,1.68-3.37,8.77,8.77,0,0,1,9,0,5.61,5.61,0,0,1,2.16,3.69l-1.9.41a3.93,3.93,0,0,0-1.62-2.79,5.82,5.82,0,0,0-3.18-.81,5.49,5.49,0,0,0-3,.71,2.34,2.34,0,0,0-1.12,2.11,2.16,2.16,0,0,0,1,2,7.85,7.85,0,0,0,2.79.93l1.56.27a15.86,15.86,0,0,1,3.06.8,5.2,5.2,0,0,1,2.16,1.48,3.82,3.82,0,0,1,.8,2.52,4.2,4.2,0,0,1-1.77,3.62A8,8,0,0,1,1051.79,438.72Z"/>
      <path class="cls-4" d="M1081.23,446.07a12.42,12.42,0,0,1-5.35-1.07,7.59,7.59,0,0,1-3.51-3.44,13.34,13.34,0,0,1-1.24-6.17V423.76a13.3,13.3,0,0,1,1.24-6.18,7.54,7.54,0,0,1,3.51-3.42,12.42,12.42,0,0,1,5.35-1.07v1.77c-2.81,0-4.87.81-6.17,2.29s-2,3.75-2,6.78v11.29c0,3,.65,5.27,2,6.77s3.36,2.26,6.17,2.31Z"/>
      <path class="cls-4" d="M1091.12,433.42V427.3H1085v-1.9h6.15v-6.12h2v6.12h6.15v1.9h-6.15v6.12Zm-6.15,4.83v-1.91h14.28v1.91Z"/>
      <path class="cls-4" d="M1113.16,438.72a9.21,9.21,0,0,1-4.24-1,7.34,7.34,0,0,1-3-2.75,8.07,8.07,0,0,1-1.1-4.32v-8.4a9.15,9.15,0,0,1,1-4.43,7,7,0,0,1,2.87-2.88,10.64,10.64,0,0,1,8.94-.07,6.59,6.59,0,0,1,2.72,2.55,7.05,7.05,0,0,1,.92,3.61h-2.11a5,5,0,0,0-1.51-3.78,7.49,7.49,0,0,0-9.08.23,6.11,6.11,0,0,0-1.65,4.53v3.64h.41a6.17,6.17,0,0,1,2.16-2.12,7.66,7.66,0,0,1,4.17-1,8.05,8.05,0,0,1,4,1,7.2,7.2,0,0,1,2.81,2.72,8,8,0,0,1,1,4.16v.41a7.7,7.7,0,0,1-1.11,4.18,7.34,7.34,0,0,1-3,2.72A9.2,9.2,0,0,1,1113.16,438.72Zm0-1.9a6.32,6.32,0,0,0,4.48-1.6,5.64,5.64,0,0,0,1.74-4.38v-.28a6.32,6.32,0,0,0-.8-3.23,5.65,5.65,0,0,0-2.19-2.12,7.16,7.16,0,0,0-6.46,0,5.75,5.75,0,0,0-2.2,2.12,6.32,6.32,0,0,0-.8,3.23v.28a5.64,5.64,0,0,0,1.74,4.38A6.33,6.33,0,0,0,1113.16,436.82Z"/>
      <path class="cls-4" d="M1123.39,446.07V444.3c2.83-.05,4.9-.82,6.19-2.31s1.94-3.75,1.94-6.77V423.93q0-4.55-1.94-6.78c-1.29-1.48-3.36-2.25-6.19-2.29v-1.77a12.5,12.5,0,0,1,5.36,1.07,7.57,7.57,0,0,1,3.5,3.42,13.17,13.17,0,0,1,1.24,6.18v11.63a13.21,13.21,0,0,1-1.24,6.17,7.61,7.61,0,0,1-3.5,3.44A12.5,12.5,0,0,1,1123.39,446.07Z"/>
    </g>
    <circle class="cls-11" cx="822" cy="425" r="17"/>
    <text class="cls-3" transform="translate(505.24 377.38)">Ø,17 </text>
    <text class="cls-3" transform="translate(505.24 437.38)">7,19</text>
    <polyline class="cls-6" points="491.13 285.63 480.85 285.63 480.85 369.64 480.85 442 491.13 442"/>
  </g>
  <polyline class="cls-6" points="491.13 471 480.85 471 480.85 493.56 480.85 513 491.13 513"/>
  <g>
    <path class="cls-4" d="M502.14,506.46v-23.8h8.8a8.68,8.68,0,0,1,3.8.8,6.32,6.32,0,0,1,2.66,2.29,6.45,6.45,0,0,1,1,3.64v.41a6.24,6.24,0,0,1-3.69,5.95,8.81,8.81,0,0,1-3.76.78h-6.63v9.93Zm2.17-11.9h6.4a6,6,0,0,0,4-1.26,4.41,4.41,0,0,0,1.47-3.54v-.34a4.43,4.43,0,0,0-1.44-3.55,6,6,0,0,0-4.06-1.24h-6.4Z"/>
    <path class="cls-4" d="M522.61,506.46V489.93h2V492H525a3.13,3.13,0,0,1,1.41-1.63,5.47,5.47,0,0,1,2.6-.51h1.94v1.9h-2.18a4.19,4.19,0,0,0-3,1.05,4.35,4.35,0,0,0-1.12,3.3v10.34Z"/>
    <path class="cls-4" d="M542.09,506.93a8.73,8.73,0,0,1-4.41-1.07,7.44,7.44,0,0,1-2.92-3,9.28,9.28,0,0,1-1-4.47V498a9.28,9.28,0,0,1,1-4.47,7.44,7.44,0,0,1,2.92-3,9.6,9.6,0,0,1,8.81,0,7.46,7.46,0,0,1,2.93,3,9.28,9.28,0,0,1,1,4.47v.41a9.28,9.28,0,0,1-1,4.47,7.46,7.46,0,0,1-2.93,3A8.72,8.72,0,0,1,542.09,506.93Zm0-1.83a6,6,0,0,0,4.62-1.85,7,7,0,0,0,1.7-4.92v-.27a7,7,0,0,0-1.7-4.91,6.66,6.66,0,0,0-9.23,0,7,7,0,0,0-1.72,4.91v.27a7,7,0,0,0,1.72,4.92A6,6,0,0,0,542.09,505.1Z"/>
    <path class="cls-4" d="M555.62,513.26V489.93h2v3H558a6.89,6.89,0,0,1,2.23-2.43,7.17,7.17,0,0,1,4.23-1.07,7.81,7.81,0,0,1,4,1,7.59,7.59,0,0,1,2.87,2.94,9.06,9.06,0,0,1,1.08,4.55v.41a9.32,9.32,0,0,1-1.06,4.54,7.41,7.41,0,0,1-2.86,3,7.94,7.94,0,0,1-4,1,8.54,8.54,0,0,1-3.08-.49,6,6,0,0,1-2.07-1.27,7,7,0,0,1-1.24-1.6h-.41v9.69ZM564,505.1a6.12,6.12,0,0,0,4.58-1.8,6.88,6.88,0,0,0,1.75-5v-.27a6.84,6.84,0,0,0-1.75-5,6.66,6.66,0,0,0-9.13,0,6.76,6.76,0,0,0-1.77,5v.27a6.8,6.8,0,0,0,1.77,5A6.09,6.09,0,0,0,564,505.1Z"/>
    <path class="cls-4" d="M585.2,506.93a8.79,8.79,0,0,1-4.44-1.07,7.41,7.41,0,0,1-2.94-3,9.17,9.17,0,0,1-1.05-4.45V498a9.17,9.17,0,0,1,1.05-4.47,7.54,7.54,0,0,1,2.91-3,8.21,8.21,0,0,1,4.23-1.07,8.42,8.42,0,0,1,4.1,1,6.94,6.94,0,0,1,2.8,2.78,8.76,8.76,0,0,1,1,4.34v1.09H578.81a6.59,6.59,0,0,0,1.88,4.78,6.31,6.31,0,0,0,4.51,1.68,5.45,5.45,0,0,0,3.59-1.06,6.9,6.9,0,0,0,2-2.58l1.84.82a9.89,9.89,0,0,1-1.41,2.19,7.15,7.15,0,0,1-2.33,1.77A8.41,8.41,0,0,1,585.2,506.93Zm-6.36-10.06h12a5.71,5.71,0,0,0-1.73-4.13,6.56,6.56,0,0,0-8.23,0A6.47,6.47,0,0,0,578.84,496.87Z"/>
    <path class="cls-4" d="M597.92,506.46V489.93h2V492h.4a3.19,3.19,0,0,1,1.42-1.63,5.47,5.47,0,0,1,2.6-.51h1.94v1.9h-2.18a4.19,4.19,0,0,0-3,1.05,4.35,4.35,0,0,0-1.12,3.3v10.34Z"/>
    <path class="cls-4" d="M616.44,506.46a2.65,2.65,0,0,1-2-.68,2.6,2.6,0,0,1-.67-1.91v-12.1h-5.3v-1.84h5.3v-6.18h2v6.18h5.78v1.84h-5.78V503.6a.9.9,0,0,0,1,1h3.88v1.84Z"/>
    <path class="cls-4" d="M627.19,487.08a1.74,1.74,0,0,1-1.77-1.77,1.67,1.67,0,0,1,.51-1.27,1.74,1.74,0,0,1,1.26-.5,1.71,1.71,0,0,1,1.77,1.77,1.74,1.74,0,0,1-.5,1.26A1.69,1.69,0,0,1,627.19,487.08Zm-1,19.38V489.93h2v16.53Z"/>
    <path class="cls-4" d="M641.81,506.93a8.79,8.79,0,0,1-4.44-1.07,7.41,7.41,0,0,1-2.94-3,9.17,9.17,0,0,1-1-4.45V498a9.17,9.17,0,0,1,1-4.47,7.54,7.54,0,0,1,2.91-3,8.21,8.21,0,0,1,4.23-1.07,8.42,8.42,0,0,1,4.1,1,6.94,6.94,0,0,1,2.8,2.78,8.76,8.76,0,0,1,1,4.34v1.09H635.42a6.55,6.55,0,0,0,1.88,4.78,6.31,6.31,0,0,0,4.51,1.68A5.47,5.47,0,0,0,645.4,504a6.9,6.9,0,0,0,2-2.58l1.84.82a9.89,9.89,0,0,1-1.41,2.19,7.26,7.26,0,0,1-2.33,1.77A8.41,8.41,0,0,1,641.81,506.93Zm-6.36-10.06h12a5.67,5.67,0,0,0-1.74-4.13,5.89,5.89,0,0,0-4.11-1.45,6,6,0,0,0-4.11,1.45A6.47,6.47,0,0,0,635.45,496.87Z"/>
    <path class="cls-4" d="M661.08,506.93a8.94,8.94,0,0,1-5.11-1.42,6.45,6.45,0,0,1-2.6-4.73l2-.37a5.85,5.85,0,0,0,1.11,2.84,4.51,4.51,0,0,0,2,1.47,7.26,7.26,0,0,0,2.56.45,5.77,5.77,0,0,0,3.29-.84,2.63,2.63,0,0,0,1.24-2.29,2.11,2.11,0,0,0-1.18-2.08,11.61,11.61,0,0,0-3.11-.91l-1.56-.28a12.1,12.1,0,0,1-2.82-.83,5,5,0,0,1-2-1.51,3.79,3.79,0,0,1-.73-2.38,4,4,0,0,1,1.68-3.37,8.77,8.77,0,0,1,9,.05,5.7,5.7,0,0,1,2.16,3.69l-1.9.41a3.93,3.93,0,0,0-1.62-2.79,5.82,5.82,0,0,0-3.18-.81,5.47,5.47,0,0,0-3,.71,2.34,2.34,0,0,0-1.12,2.11,2.16,2.16,0,0,0,1,2,7.85,7.85,0,0,0,2.79.93l1.56.27a15.86,15.86,0,0,1,3.06.8,5.2,5.2,0,0,1,2.16,1.48,3.82,3.82,0,0,1,.8,2.52,4.2,4.2,0,0,1-1.77,3.62A8.06,8.06,0,0,1,661.08,506.93Z"/>
    <path class="cls-4" d="M673.46,493.33a1.94,1.94,0,1,1,0-3.87,1.85,1.85,0,0,1,1.94,1.94,1.89,1.89,0,0,1-.54,1.39A1.92,1.92,0,0,1,673.46,493.33Zm0,13.6a1.94,1.94,0,1,1,0-3.87A1.85,1.85,0,0,1,675.4,505a1.89,1.89,0,0,1-.54,1.39A1.92,1.92,0,0,1,673.46,506.93Z"/>
  </g>
  <g>
    <path class="cls-4" d="M797.25,489.05v-16.8h10v1.39h-8.45v6.29h7.75v1.39h-7.75v7.73Z"/>
    <path class="cls-4" d="M811,475.37a1.23,1.23,0,0,1-1.25-1.25,1.19,1.19,0,0,1,.36-.9,1.25,1.25,0,0,1,.89-.35,1.2,1.2,0,0,1,1.25,1.25,1.25,1.25,0,0,1-.35.89A1.19,1.19,0,0,1,811,475.37Zm-.72,13.68V477.38h1.44v11.67Z"/>
    <path class="cls-4" d="M822.21,489.38a5.11,5.11,0,0,1-3-.75,4.87,4.87,0,0,1-1.57-1.72h-.29v2.14H816v-16.8h1.45v7.17h.28a4.37,4.37,0,0,1,.88-1.14,4.52,4.52,0,0,1,1.46-.89,6.1,6.1,0,0,1,2.17-.34,5.61,5.61,0,0,1,2.86.73,5.28,5.28,0,0,1,2,2.09,6.61,6.61,0,0,1,.74,3.2v.29a6.5,6.5,0,0,1-.75,3.2,5.44,5.44,0,0,1-2,2.09A5.59,5.59,0,0,1,822.21,489.38Zm-.33-1.29a4.31,4.31,0,0,0,3.23-1.28,4.8,4.8,0,0,0,1.23-3.5v-.19a4.84,4.84,0,0,0-1.23-3.51,4.73,4.73,0,0,0-6.45,0,4.81,4.81,0,0,0-1.24,3.51v.19a4.77,4.77,0,0,0,1.24,3.5A4.33,4.33,0,0,0,821.88,488.09Z"/>
    <path class="cls-4" d="M836.81,489.38a6.23,6.23,0,0,1-3.11-.75,5.28,5.28,0,0,1-2.07-2.12,6.6,6.6,0,0,1-.73-3.15v-.29a6.67,6.67,0,0,1,.73-3.16,5.32,5.32,0,0,1,2.07-2.11,6.82,6.82,0,0,1,6.22,0,5.36,5.36,0,0,1,2.06,2.11,6.55,6.55,0,0,1,.73,3.16v.29a6.49,6.49,0,0,1-.73,3.15,5.32,5.32,0,0,1-2.06,2.12A6.25,6.25,0,0,1,836.81,489.38Zm0-1.29a4.22,4.22,0,0,0,3.26-1.31,4.93,4.93,0,0,0,1.2-3.47v-.19a4.93,4.93,0,0,0-1.2-3.47,4.71,4.71,0,0,0-6.52,0,4.94,4.94,0,0,0-1.21,3.47v.19a4.94,4.94,0,0,0,1.21,3.47A4.25,4.25,0,0,0,836.81,488.09Z"/>
    <path class="cls-4" d="M846.36,489.05V477.38h1.39v2.16H848a4.43,4.43,0,0,1,1.42-1.67,4.75,4.75,0,0,1,2.85-.73,5.18,5.18,0,0,1,2.33.53,4,4,0,0,1,1.69,1.6,5.17,5.17,0,0,1,.64,2.67v7.11h-1.44v-7a3.5,3.5,0,0,0-1-2.76,3.77,3.77,0,0,0-2.57-.84,4.06,4.06,0,0,0-3,1.19,4.82,4.82,0,0,0-1.2,3.58v5.84Z"/>
    <path class="cls-4" d="M864.62,489.38a5.7,5.7,0,0,1-2.22-.42,3.58,3.58,0,0,1-1.57-1.23,3.37,3.37,0,0,1-.58-2,3.2,3.2,0,0,1,.58-1.95,3.47,3.47,0,0,1,1.56-1.15,6.08,6.08,0,0,1,2.18-.38h4.28v-.94a3,3,0,0,0-.82-2.21,3.32,3.32,0,0,0-2.38-.79,3.44,3.44,0,0,0-3.64,2.79l-1.4-.41a5.58,5.58,0,0,1,.92-1.86,4.35,4.35,0,0,1,1.65-1.32,5.67,5.67,0,0,1,2.47-.49,4.73,4.73,0,0,1,3.42,1.15,4.22,4.22,0,0,1,1.22,3.21v5.67c0,.48.22.72.67.72h1.13v1.25h-1.54a1.56,1.56,0,0,1-1.18-.45,1.69,1.69,0,0,1-.43-1.21v-.17h-.24a5.31,5.31,0,0,1-.8,1,3.62,3.62,0,0,1-1.29.82A5.4,5.4,0,0,1,864.62,489.38Zm.1-1.29a4.12,4.12,0,0,0,3-1.12,4.22,4.22,0,0,0,1.14-3.16v-.28H864.6a3.74,3.74,0,0,0-2.08.54,1.85,1.85,0,0,0-.83,1.66,2,2,0,0,0,.86,1.74A3.6,3.6,0,0,0,864.72,488.09Z"/>
    <path class="cls-4" d="M879.79,489.38a6.19,6.19,0,0,1-3-.73,5.43,5.43,0,0,1-2.1-2.1,6.47,6.47,0,0,1-.76-3.22v-.24a6.44,6.44,0,0,1,.76-3.22,5.41,5.41,0,0,1,2.1-2.09,6.19,6.19,0,0,1,3-.73,5.87,5.87,0,0,1,2.84.63,5,5,0,0,1,1.83,1.66,5.47,5.47,0,0,1,.83,2.15l-1.42.28a4.27,4.27,0,0,0-.6-1.71,3.51,3.51,0,0,0-1.34-1.25,4.89,4.89,0,0,0-4.42.12,4.26,4.26,0,0,0-1.6,1.66,5.17,5.17,0,0,0-.58,2.53v.19a5.17,5.17,0,0,0,.58,2.53,4.33,4.33,0,0,0,1.6,1.66,4.45,4.45,0,0,0,2.28.59,4,4,0,0,0,2.93-1,4.35,4.35,0,0,0,1.25-2.44l1.41.29a5.68,5.68,0,0,1-.9,2.15,5.14,5.14,0,0,1-1.85,1.66A5.87,5.87,0,0,1,879.79,489.38Z"/>
    <path class="cls-4" d="M894.26,489.38a6.15,6.15,0,0,1-3-.73,5.3,5.3,0,0,1-2.1-2.1,6.37,6.37,0,0,1-.77-3.22v-.24a6.34,6.34,0,0,1,.77-3.22,5.28,5.28,0,0,1,2.1-2.09,6.15,6.15,0,0,1,3-.73,5.94,5.94,0,0,1,2.85.63,5,5,0,0,1,1.82,1.66,5.32,5.32,0,0,1,.83,2.15l-1.42.28a4.27,4.27,0,0,0-.6-1.71,3.51,3.51,0,0,0-1.34-1.25,4.89,4.89,0,0,0-4.42.12,4.17,4.17,0,0,0-1.59,1.66,5.06,5.06,0,0,0-.59,2.53v.19a5.06,5.06,0,0,0,.59,2.53A4.24,4.24,0,0,0,892,487.5a4.45,4.45,0,0,0,2.28.59,4,4,0,0,0,2.93-1,4.35,4.35,0,0,0,1.25-2.44l1.41.29a5.68,5.68,0,0,1-.9,2.15,5.19,5.19,0,0,1-1.84,1.66A5.94,5.94,0,0,1,894.26,489.38Z"/>
    <path class="cls-4" d="M904.13,475.37a1.2,1.2,0,0,1-.89-.36,1.21,1.21,0,0,1-.36-.89,1.19,1.19,0,0,1,.36-.9,1.23,1.23,0,0,1,.89-.35,1.25,1.25,0,0,1,.9.35,1.21,1.21,0,0,1,.34.9,1.24,1.24,0,0,1-.34.89A1.22,1.22,0,0,1,904.13,475.37Zm-.72,13.68V477.38h1.44v11.67Z"/>
    <path class="cls-4" d="M915.26,489.05V477.38h1.39v2.16h.29a4.43,4.43,0,0,1,1.42-1.67,4.77,4.77,0,0,1,2.85-.73,5.15,5.15,0,0,1,2.33.53,3.94,3.94,0,0,1,1.69,1.6,5.08,5.08,0,0,1,.64,2.67v7.11h-1.44v-7a3.5,3.5,0,0,0-1-2.76,3.77,3.77,0,0,0-2.57-.84,4.06,4.06,0,0,0-3,1.19,4.82,4.82,0,0,0-1.2,3.58v5.84Z"/>
    <path class="cls-4" d="M934.25,489.29a5.17,5.17,0,0,1-2.32-.53,4,4,0,0,1-1.7-1.6,5.08,5.08,0,0,1-.64-2.67v-7.11H931v7a3.52,3.52,0,0,0,1,2.75,3.73,3.73,0,0,0,2.57.85,4.1,4.1,0,0,0,3-1.19,4.85,4.85,0,0,0,1.2-3.59v-5.83h1.44v11.67h-1.39v-2.16h-.29a4.34,4.34,0,0,1-1.42,1.66A4.7,4.7,0,0,1,934.25,489.29Z"/>
    <path class="cls-4" d="M944.42,489.05V477.38h1.39v1.54h.29a3.6,3.6,0,0,1,3.41-1.78,3.77,3.77,0,0,1,2.29.65,3.62,3.62,0,0,1,1.26,1.56h.29a3.68,3.68,0,0,1,3.7-2.21,4.29,4.29,0,0,1,2.08.49,3.62,3.62,0,0,1,1.4,1.37,4.12,4.12,0,0,1,.5,2.05v8h-1.44V481.2a2.71,2.71,0,0,0-.76-2,2.87,2.87,0,0,0-2.12-.75,3.24,3.24,0,0,0-2.33.9,3.48,3.48,0,0,0-.93,2.63v7.08H952V481.2a2.75,2.75,0,0,0-.76-2,2.87,2.87,0,0,0-2.12-.75,3.22,3.22,0,0,0-2.33.9,3.45,3.45,0,0,0-.94,2.63v7.08Z"/>
    <path class="cls-4" d="M971.35,489.38a5.14,5.14,0,0,1-3-.75,5.06,5.06,0,0,1-1.57-1.72h-.29v2.14h-1.39v-16.8h1.44v7.17h.29a4.23,4.23,0,0,1,2.34-2,6.07,6.07,0,0,1,2.17-.34,5.61,5.61,0,0,1,2.86.73,5.26,5.26,0,0,1,2,2.09,6.5,6.5,0,0,1,.75,3.2v.29a6.5,6.5,0,0,1-.76,3.2,5.31,5.31,0,0,1-2,2.09A5.55,5.55,0,0,1,971.35,489.38Zm-.34-1.29a4.29,4.29,0,0,0,3.23-1.28,4.77,4.77,0,0,0,1.24-3.5v-.19a4.81,4.81,0,0,0-1.24-3.51,4.72,4.72,0,0,0-6.44,0,4.81,4.81,0,0,0-1.25,3.51v.19a4.77,4.77,0,0,0,1.25,3.5A4.29,4.29,0,0,0,971,488.09Z"/>
    <path class="cls-4" d="M986,489.38a6.28,6.28,0,0,1-3.13-.75,5.39,5.39,0,0,1-2.08-2.13,6.53,6.53,0,0,1-.74-3.14v-.29a6.56,6.56,0,0,1,.74-3.16,5.47,5.47,0,0,1,2.05-2.11,6.41,6.41,0,0,1,5.88-.07,4.94,4.94,0,0,1,2,2,6.13,6.13,0,0,1,.72,3.06v.77h-9.93a4.64,4.64,0,0,0,1.33,3.37,4.46,4.46,0,0,0,3.18,1.19,3.84,3.84,0,0,0,2.53-.75,4.87,4.87,0,0,0,1.38-1.82l1.3.57a6.47,6.47,0,0,1-1,1.55,4.86,4.86,0,0,1-1.64,1.25A5.83,5.83,0,0,1,986,489.38Zm-4.49-7.1H990a4,4,0,0,0-1.22-2.92,4.65,4.65,0,0,0-5.81,0A4.59,4.59,0,0,0,981.5,482.28Z"/>
    <path class="cls-4" d="M995,489.05V477.38h1.39v1.47h.29a2.24,2.24,0,0,1,1-1.16,3.87,3.87,0,0,1,1.84-.36h1.37v1.35h-1.54a3,3,0,0,0-2.11.74,3.05,3.05,0,0,0-.79,2.33v7.3Z"/>
    <path class="cls-4" d="M1002.12,491.83v-1h.57a.68.68,0,0,0,.77-.77v-.76h-.31a1.36,1.36,0,0,1-1-.38,1.2,1.2,0,0,1-.4-.94,1.22,1.22,0,0,1,.4-1,1.35,1.35,0,0,1,1-.37,1.33,1.33,0,0,1,1,.39,1.31,1.31,0,0,1,.4,1v2a1.6,1.6,0,0,1-1.8,1.82Z"/>
    <path class="cls-4" d="M1013.4,489.05v-16.8h10.15v1.39h-8.62v6.29h8v1.39h-8v6.33h8.71v1.4Z"/>
    <path class="cls-4" d="M1027.05,489.05V477.38h1.4v1.54h.28a4.23,4.23,0,0,1,5.7-1.13,3.62,3.62,0,0,1,1.26,1.56h.29a4,4,0,0,1,1.27-1.56,4,4,0,0,1,2.43-.65,4.36,4.36,0,0,1,2.09.49,3.66,3.66,0,0,1,1.39,1.37,4.12,4.12,0,0,1,.5,2.05v8h-1.44V481.2a2.75,2.75,0,0,0-.75-2,2.91,2.91,0,0,0-2.13-.75,3.24,3.24,0,0,0-2.33.9,3.48,3.48,0,0,0-.93,2.63v7.08h-1.44V481.2a2.71,2.71,0,0,0-.76-2,2.87,2.87,0,0,0-2.12-.75,3.22,3.22,0,0,0-2.33.9,3.49,3.49,0,0,0-.94,2.63v7.08Z"/>
    <path class="cls-4" d="M1048.46,475.37a1.23,1.23,0,0,1-1.25-1.25,1.19,1.19,0,0,1,.36-.9,1.25,1.25,0,0,1,.89-.35,1.2,1.2,0,0,1,1.25,1.25,1.25,1.25,0,0,1-.35.89A1.19,1.19,0,0,1,1048.46,475.37Zm-.72,13.68V477.38h1.44v11.67Z"/>
    <path class="cls-4" d="M1053.41,489.05V477.38h1.39v1.47h.28a2.31,2.31,0,0,1,1-1.16,3.87,3.87,0,0,1,1.84-.36h1.37v1.35h-1.54a3,3,0,0,0-2.11.74,3.06,3.06,0,0,0-.8,2.33v7.3Z"/>
    <path class="cls-4" d="M1062.26,493.85V477.38h1.39v2.14h.29a5.06,5.06,0,0,1,1.57-1.72,5.14,5.14,0,0,1,3-.75,5.55,5.55,0,0,1,2.83.73,5.39,5.39,0,0,1,2,2.07,6.52,6.52,0,0,1,.76,3.22v.29a6.5,6.5,0,0,1-.75,3.2,5.26,5.26,0,0,1-2,2.09,5.61,5.61,0,0,1-2.86.73,5.84,5.84,0,0,1-2.17-.35,4.26,4.26,0,0,1-1.47-.9A4.85,4.85,0,0,1,1064,487h-.29v6.84Zm5.9-5.76a4.29,4.29,0,0,0,3.23-1.28,4.77,4.77,0,0,0,1.24-3.5v-.19a4.81,4.81,0,0,0-1.24-3.51,4.72,4.72,0,0,0-6.44,0,4.81,4.81,0,0,0-1.25,3.51v.19a4.77,4.77,0,0,0,1.25,3.5A4.29,4.29,0,0,0,1068.16,488.09Z"/>
    <path class="cls-4" d="M1077.24,491.83v-1h.57a.68.68,0,0,0,.77-.77v-.76h-.31a1.34,1.34,0,0,1-1-.38,1.2,1.2,0,0,1-.4-.94,1.22,1.22,0,0,1,.4-1,1.43,1.43,0,0,1,1.94,0,1.35,1.35,0,0,1,.4,1v2a1.6,1.6,0,0,1-1.8,1.82Z"/>
    <path class="cls-4" d="M797.25,517.85v-16.8h1.54v15.4h8.83v1.4Z"/>
    <path class="cls-4" d="M814.78,518.09a5.17,5.17,0,0,1-2.32-.53,4.11,4.11,0,0,1-1.71-1.6,5.17,5.17,0,0,1-.63-2.67v-7.11h1.44v7a3.52,3.52,0,0,0,1,2.75,3.71,3.71,0,0,0,2.57.85,4.1,4.1,0,0,0,3-1.19,4.85,4.85,0,0,0,1.2-3.59v-5.83h1.44v11.67h-1.4v-2.16h-.28a4.34,4.34,0,0,1-1.42,1.66A4.72,4.72,0,0,1,814.78,518.09Z"/>
    <path class="cls-4" d="M830.28,518.18a6.19,6.19,0,0,1-3-.73,5.43,5.43,0,0,1-2.1-2.1,6.47,6.47,0,0,1-.76-3.22v-.24a6.44,6.44,0,0,1,.76-3.22,5.41,5.41,0,0,1,2.1-2.09,6.19,6.19,0,0,1,3-.73,5.87,5.87,0,0,1,2.84.63,5,5,0,0,1,1.83,1.66,5.47,5.47,0,0,1,.83,2.15l-1.42.28a4.27,4.27,0,0,0-.6-1.71,3.51,3.51,0,0,0-1.34-1.25,4.89,4.89,0,0,0-4.42.12,4.19,4.19,0,0,0-1.6,1.66,5.17,5.17,0,0,0-.58,2.53v.19a5.17,5.17,0,0,0,.58,2.53,4.26,4.26,0,0,0,1.6,1.66,4.45,4.45,0,0,0,2.28.59,4,4,0,0,0,2.93-1,4.41,4.41,0,0,0,1.25-2.44l1.41.29a5.68,5.68,0,0,1-.9,2.15,5.22,5.22,0,0,1-1.85,1.66A5.87,5.87,0,0,1,830.28,518.18Z"/>
    <path class="cls-4" d="M839.42,517.85v-16.8h1.44v10.12h.29l6-5h2.11l-6.91,5.69,7.1,6h-2.09l-6.19-5.26h-.29v5.26Z"/>
    <path class="cls-4" d="M853.54,522.65v-1.3h6.81a.64.64,0,0,0,.72-.72v-4.8h-.29a4.24,4.24,0,0,1-.8,1.09,3.7,3.7,0,0,1-1.35.84,5.61,5.61,0,0,1-2.07.33,5.2,5.2,0,0,1-2.32-.53,4,4,0,0,1-1.7-1.59,5,5,0,0,1-.64-2.66v-7.13h1.44v7a3.46,3.46,0,0,0,1,2.74,3.77,3.77,0,0,0,2.57.84,4.09,4.09,0,0,0,3-1.18,4.78,4.78,0,0,0,1.2-3.57v-5.86h1.44v14.64a1.66,1.66,0,0,1-1.87,1.83Z"/>
    <path class="cls-4" d="M872.93,517.85V506.18h1.39v2.16h.29a4.4,4.4,0,0,1,1.41-1.67,4.81,4.81,0,0,1,2.86-.73,5.18,5.18,0,0,1,2.33.53,4.06,4.06,0,0,1,1.69,1.6,5.17,5.17,0,0,1,.63,2.67v7.11h-1.44v-7a3.5,3.5,0,0,0-1-2.76,3.74,3.74,0,0,0-2.56-.84,4.06,4.06,0,0,0-3,1.19,4.82,4.82,0,0,0-1.2,3.58v5.84Z"/>
    <path class="cls-4" d="M891.91,518.09a5.23,5.23,0,0,1-2.32-.53,4,4,0,0,1-1.7-1.6,5.17,5.17,0,0,1-.64-2.67v-7.11h1.44v7a3.52,3.52,0,0,0,1,2.75,3.73,3.73,0,0,0,2.57.85,4.1,4.1,0,0,0,3-1.19,4.85,4.85,0,0,0,1.2-3.59v-5.83h1.44v11.67h-1.39v-2.16h-.29a4.39,4.39,0,0,1-1.41,1.66A4.73,4.73,0,0,1,891.91,518.09Z"/>
    <path class="cls-4" d="M902.09,517.85V506.18h1.39v1.54h.29a3.72,3.72,0,0,1,1.15-1.21,4.55,4.55,0,0,1,4.55.08,3.77,3.77,0,0,1,1.26,1.56H911a3.7,3.7,0,0,1,3.7-2.21,4.33,4.33,0,0,1,2.09.49,3.66,3.66,0,0,1,1.39,1.37,4,4,0,0,1,.5,2.05v8h-1.44V510a2.75,2.75,0,0,0-.75-2,2.89,2.89,0,0,0-2.12-.75,3.22,3.22,0,0,0-2.33.9,3.45,3.45,0,0,0-.94,2.63v7.08h-1.44V510a2.75,2.75,0,0,0-.75-2,2.91,2.91,0,0,0-2.13-.75,3.24,3.24,0,0,0-2.33.9,3.48,3.48,0,0,0-.93,2.63v7.08Z"/>
    <path class="cls-4" d="M929,518.18a5.11,5.11,0,0,1-3-.75,5,5,0,0,1-1.57-1.72h-.29v2.14h-1.39v-16.8h1.43v7.17h.29a4.33,4.33,0,0,1,2.34-2,6.1,6.1,0,0,1,2.17-.34,5.61,5.61,0,0,1,2.86.73,5.28,5.28,0,0,1,2,2.09,6.61,6.61,0,0,1,.74,3.2v.29a6.5,6.5,0,0,1-.75,3.2,5.37,5.37,0,0,1-2,2.09A5.59,5.59,0,0,1,929,518.18Zm-.33-1.29a4.31,4.31,0,0,0,3.23-1.28,4.8,4.8,0,0,0,1.23-3.5v-.19a4.84,4.84,0,0,0-1.23-3.51,4.73,4.73,0,0,0-6.45,0,4.81,4.81,0,0,0-1.25,3.51v.19a4.77,4.77,0,0,0,1.25,3.5A4.32,4.32,0,0,0,928.68,516.89Z"/>
    <path class="cls-4" d="M943.66,518.18a6.32,6.32,0,0,1-3.14-.75,5.3,5.3,0,0,1-2.07-2.13,6.42,6.42,0,0,1-.75-3.14v-.29a6.45,6.45,0,0,1,.75-3.16,5.4,5.4,0,0,1,2-2.11,6.41,6.41,0,0,1,5.88-.07,4.94,4.94,0,0,1,2,2,6.13,6.13,0,0,1,.72,3.06v.77h-9.94a4.64,4.64,0,0,0,1.33,3.37,4.5,4.5,0,0,0,3.19,1.19,3.86,3.86,0,0,0,2.53-.75,4.87,4.87,0,0,0,1.38-1.82l1.29.57a6.74,6.74,0,0,1-1,1.55,5,5,0,0,1-1.65,1.25A5.78,5.78,0,0,1,943.66,518.18Zm-4.49-7.1h8.45a4.06,4.06,0,0,0-1.23-2.92,4.16,4.16,0,0,0-2.9-1,4.23,4.23,0,0,0-2.91,1A4.58,4.58,0,0,0,939.17,511.08Z"/>
    <path class="cls-4" d="M952.63,517.85V506.18H954v1.47h.29a2.26,2.26,0,0,1,1-1.16,3.86,3.86,0,0,1,1.83-.36h1.37v1.35H957a3,3,0,0,0-2.11.74,3.05,3.05,0,0,0-.79,2.33v7.3Z"/>
    <path class="cls-4" d="M959.78,520.63v-1h.58a.68.68,0,0,0,.77-.77v-.76h-.32a1.38,1.38,0,0,1-1-.38,1.23,1.23,0,0,1-.39-.94,1.25,1.25,0,0,1,.39-.95,1.37,1.37,0,0,1,1-.37,1.33,1.33,0,0,1,1.37,1.36v2a1.6,1.6,0,0,1-1.8,1.82Z"/>
    <path class="cls-4" d="M971.06,517.85v-16.8h1.54v7.68h8.54v-7.68h1.54v16.8h-1.54v-7.73H972.6v7.73Z"/>
    <path class="cls-4" d="M990.43,518.18a5.63,5.63,0,0,1-2.22-.42,3.58,3.58,0,0,1-1.57-1.23,3.3,3.3,0,0,1-.58-2,3.14,3.14,0,0,1,.58-1.95,3.47,3.47,0,0,1,1.56-1.15,6,6,0,0,1,2.18-.38h4.27v-.94a3,3,0,0,0-.81-2.21,3.33,3.33,0,0,0-2.38-.79,3.63,3.63,0,0,0-2.43.76,3.73,3.73,0,0,0-1.22,2l-1.39-.41a5.56,5.56,0,0,1,.91-1.86,4.47,4.47,0,0,1,1.66-1.32,5.67,5.67,0,0,1,2.47-.49,4.77,4.77,0,0,1,3.42,1.15,4.21,4.21,0,0,1,1.21,3.21v5.67c0,.48.23.72.68.72h1.12v1.25h-1.53a1.56,1.56,0,0,1-1.18-.45,1.64,1.64,0,0,1-.43-1.21V516h-.24a5.73,5.73,0,0,1-.8,1,3.62,3.62,0,0,1-1.29.82A5.43,5.43,0,0,1,990.43,518.18Zm.1-1.29a4.09,4.09,0,0,0,3-1.12,4.22,4.22,0,0,0,1.14-3.16v-.28h-4.24a3.72,3.72,0,0,0-2.08.54,1.85,1.85,0,0,0-.83,1.66,2,2,0,0,0,.85,1.74A3.65,3.65,0,0,0,990.53,516.89Z"/>
    <path class="cls-4" d="M1000.63,522.65V506.18H1002v2.14h.29a5.06,5.06,0,0,1,1.57-1.72,5.14,5.14,0,0,1,3-.75,5.55,5.55,0,0,1,2.83.73,5.39,5.39,0,0,1,2,2.07,6.52,6.52,0,0,1,.76,3.22v.29a6.5,6.5,0,0,1-.75,3.2,5.26,5.26,0,0,1-2,2.09,5.61,5.61,0,0,1-2.86.73,5.84,5.84,0,0,1-2.17-.35,4.26,4.26,0,0,1-1.47-.9,4.85,4.85,0,0,1-.87-1.12h-.29v6.84Zm5.9-5.76a4.29,4.29,0,0,0,3.23-1.28,4.77,4.77,0,0,0,1.24-3.5v-.19a4.81,4.81,0,0,0-1.24-3.51,4.72,4.72,0,0,0-6.44,0,4.81,4.81,0,0,0-1.25,3.51v.19a4.77,4.77,0,0,0,1.25,3.5A4.29,4.29,0,0,0,1006.53,516.89Z"/>
    <path class="cls-4" d="M1016.13,522.65V506.18h1.4v2.14h.28a5,5,0,0,1,1.58-1.72,5.11,5.11,0,0,1,3-.75,5.59,5.59,0,0,1,2.84.73,5.43,5.43,0,0,1,2,2.07,6.42,6.42,0,0,1,.76,3.22v.29a6.61,6.61,0,0,1-.74,3.2,5.28,5.28,0,0,1-2,2.09,5.61,5.61,0,0,1-2.86.73,5.88,5.88,0,0,1-2.17-.35,4.12,4.12,0,0,1-1.46-.9,4.65,4.65,0,0,1-.88-1.12h-.29v6.84Zm5.91-5.76a4.31,4.31,0,0,0,3.23-1.28,4.8,4.8,0,0,0,1.23-3.5v-.19a4.84,4.84,0,0,0-1.23-3.51,4.73,4.73,0,0,0-6.45,0,4.81,4.81,0,0,0-1.25,3.51v.19a4.77,4.77,0,0,0,1.25,3.5A4.32,4.32,0,0,0,1022,516.89Z"/>
    <path class="cls-4" d="M1033.1,522.65v-1.3h6.82a.64.64,0,0,0,.72-.72v-4.8h-.29a4.06,4.06,0,0,1-.81,1.09,3.66,3.66,0,0,1-1.34.84,5.63,5.63,0,0,1-2.08.33,5.16,5.16,0,0,1-2.31-.53,4,4,0,0,1-1.7-1.59,5,5,0,0,1-.64-2.66v-7.13h1.44v7a3.46,3.46,0,0,0,1,2.74,3.77,3.77,0,0,0,2.57.84,4.09,4.09,0,0,0,3-1.18,4.78,4.78,0,0,0,1.2-3.57v-5.86h1.44v14.64a1.66,1.66,0,0,1-1.87,1.83Z"/>
    <path class="cls-4" d="M1052.49,517.85V506.18h1.39v2.16h.29a4.43,4.43,0,0,1,1.42-1.67,4.81,4.81,0,0,1,2.86-.73,5.14,5.14,0,0,1,2.32.53,3.94,3.94,0,0,1,1.69,1.6,5.08,5.08,0,0,1,.64,2.67v7.11h-1.44v-7a3.5,3.5,0,0,0-1-2.76,3.75,3.75,0,0,0-2.57-.84,4.06,4.06,0,0,0-3,1.19,4.82,4.82,0,0,0-1.2,3.58v5.84Z"/>
    <path class="cls-4" d="M1071.48,518.09a5.17,5.17,0,0,1-2.32-.53,4,4,0,0,1-1.7-1.6,5.08,5.08,0,0,1-.64-2.67v-7.11h1.44v7a3.52,3.52,0,0,0,1,2.75,3.73,3.73,0,0,0,2.57.85,4.1,4.1,0,0,0,3-1.19A4.85,4.85,0,0,0,1076,512v-5.83h1.44v11.67H1076v-2.16h-.29a4.34,4.34,0,0,1-1.42,1.66A4.7,4.7,0,0,1,1071.48,518.09Z"/>
    <path class="cls-4" d="M1081.65,517.85V506.18H1083v1.54h.29a4.23,4.23,0,0,1,5.7-1.13,3.62,3.62,0,0,1,1.26,1.56h.29a4,4,0,0,1,1.27-1.56,4,4,0,0,1,2.43-.65,4.36,4.36,0,0,1,2.09.49,3.66,3.66,0,0,1,1.39,1.37,4.12,4.12,0,0,1,.5,2.05v8h-1.44V510a2.75,2.75,0,0,0-.75-2,2.91,2.91,0,0,0-2.13-.75,3.24,3.24,0,0,0-2.33.9,3.48,3.48,0,0,0-.93,2.63v7.08h-1.44V510a2.71,2.71,0,0,0-.76-2,2.87,2.87,0,0,0-2.12-.75,3.22,3.22,0,0,0-2.33.9,3.49,3.49,0,0,0-.94,2.63v7.08Z"/>
    <path class="cls-4" d="M1108.58,518.18a5.16,5.16,0,0,1-3-.75,5.06,5.06,0,0,1-1.57-1.72h-.29v2.14h-1.39v-16.8h1.44v7.17h.29a4.33,4.33,0,0,1,2.34-2,6.07,6.07,0,0,1,2.17-.34,5.61,5.61,0,0,1,2.86.73,5.19,5.19,0,0,1,2,2.09,6.5,6.5,0,0,1,.75,3.2v.29a6.39,6.39,0,0,1-.76,3.2,5.31,5.31,0,0,1-2,2.09A5.53,5.53,0,0,1,1108.58,518.18Zm-.33-1.29a4.29,4.29,0,0,0,3.22-1.28,4.77,4.77,0,0,0,1.24-3.5v-.19a4.81,4.81,0,0,0-1.24-3.51,4.72,4.72,0,0,0-6.44,0,4.81,4.81,0,0,0-1.25,3.51v.19a4.77,4.77,0,0,0,1.25,3.5A4.3,4.3,0,0,0,1108.25,516.89Z"/>
    <path class="cls-4" d="M1123.22,518.18a6.28,6.28,0,0,1-3.13-.75,5.39,5.39,0,0,1-2.08-2.13,6.53,6.53,0,0,1-.74-3.14v-.29a6.56,6.56,0,0,1,.74-3.16,5.43,5.43,0,0,1,2.06-2.11,5.86,5.86,0,0,1,3-.75,6,6,0,0,1,2.9.68,4.94,4.94,0,0,1,2,2,6.13,6.13,0,0,1,.72,3.06v.77h-9.94a4.64,4.64,0,0,0,1.33,3.37,4.46,4.46,0,0,0,3.18,1.19,3.84,3.84,0,0,0,2.53-.75,4.87,4.87,0,0,0,1.38-1.82l1.3.57a6.47,6.47,0,0,1-1,1.55,4.86,4.86,0,0,1-1.64,1.25A5.83,5.83,0,0,1,1123.22,518.18Zm-4.49-7.1h8.45a4,4,0,0,0-1.22-2.92,4.17,4.17,0,0,0-2.91-1,4.23,4.23,0,0,0-2.9,1A4.59,4.59,0,0,0,1118.73,511.08Z"/>
    <path class="cls-4" d="M1132.2,517.85V506.18h1.39v1.47h.29a2.24,2.24,0,0,1,1-1.16,3.87,3.87,0,0,1,1.84-.36h1.37v1.35h-1.54a3,3,0,0,0-2.11.74,3.05,3.05,0,0,0-.79,2.33v7.3Z"/>
  </g>
</svg>
