<svg id="Layer_1" data-name="Layer 1" xmlns="http://www.w3.org/2000/svg" xmlns:xlink="http://www.w3.org/1999/xlink" viewBox="0 0 1226 390">
  <defs>
    <style>
      .cls-1 {
        fill: #e6e6e6;
        stroke: #fff;
      }

      .cls-1, .cls-2, .cls-3, .cls-4 {
        stroke-miterlimit: 10;
      }

      .cls-1, .cls-2, .cls-3 {
        stroke-width: 2px;
      }

      .cls-2, .cls-3, .cls-4 {
        fill: none;
      }

      .cls-2 {
        stroke: #333;
      }

      .cls-3 {
        stroke: #e6e6e6;
      }

      .cls-4 {
        stroke: gray;
        stroke-linecap: round;
      }

      .cls-5 {
        fill: gray;
      }
    </style>
  </defs>
  <g>
    <g>
      <g id="_0f1fzT.tif" data-name="0f1fzT.tif" transform="translate(873.8 40) scale(0.97)">
        <svg xmlns="http://www.w3.org/2000/svg" width="350" height="350"><style>.p #bg{fill:#ddd} .c #bg{fill:#222} .p .factor,.p #text{fill:#222} .c .factor,.c #text{fill:#ddd} .sexy{fill:#e44C21} .cousin{fill:#348C47} .twin {fill:#3C4CE1} #grid .factor{r: 8} .c #icons *{fill: #ddd} .p #icons * {fill:#222} #icons .stroke *{fill:none} #icons .stroke {fill:none;stroke:#222;stroke-width:8} .c #icons .stroke{stroke:#ddd} .square{stroke-width:2;fill:none;stroke:#222;r:8} .c .square{stroke:#ddd} #icons #i-4 circle{stroke-width:20}</style><g class="c"><rect id="bg" width="100%" height="100%" /><g id="grid" transform="translate(26,26)"><g opacity=".2"><circle r="8" cx="0" cy="46" class="square"><animate attributeName="opacity" values="1;.3;1" dur="1.379280s" repeatCount="indefinite"/></circle><circle r="8" cx="69" cy="46" class="square"><animate attributeName="opacity" values="1;.3;1" dur="1.250000s" repeatCount="indefinite"/></circle><circle r="8" cx="92" cy="46" class="square"><animate attributeName="opacity" values="1;.3;1" dur="1.212120s" repeatCount="indefinite"/></circle><circle r="8" cx="138" cy="46" class="square"><animate attributeName="opacity" values="1;.3;1" dur="1.142840s" repeatCount="indefinite"/></circle><circle r="8" cx="299" cy="46" class="square"><animate attributeName="opacity" values="1;.3;1" dur="0.952360s" repeatCount="indefinite"/></circle></g><circle r="8" cx="0" cy="0" class="factor"><animate attributeName="opacity" values="1;.3;1" dur="40s" repeatCount="indefinite"/></circle><circle r="8" cx="23" cy="0" class="factor"><animate attributeName="opacity" values="1;.3;1" dur="20.000000s" repeatCount="indefinite"/></circle><circle r="8" cx="46" cy="0" class="factor"><animate attributeName="opacity" values="1;.3;1" dur="13.333320s" repeatCount="indefinite"/></circle><circle r="8" cx="0" cy="23" class="factor"><animate attributeName="opacity" values="1;.3;1" dur="2.666640s" repeatCount="indefinite"/></circle><circle r="8" cx="46" cy="23" class="factor"><animate attributeName="opacity" values="1;.3;1" dur="2.352920s" repeatCount="indefinite"/></circle><circle r="8" cx="69" cy="23" class="factor"><animate attributeName="opacity" values="1;.3;1" dur="2.222200s" repeatCount="indefinite"/></circle></g><g id="text" transform="translate(18,318)"><g transform="translate(0,0)"><path d="M1.8 9.8c0 .8.3 1.5.8 2a3 3 0 0 0 2.1.8c.5 0 .9-.1 1.2-.3.4-.1.7-.3 1-.6.3-.3.5-.6.6-1 .2-.4.2-.9.2-1.4v-2h-.2c-.3.6-.7 1-1.3 1.4-.5.3-1.2.5-1.9.5a5 5 0 0 1-1.7-.3A3.8 3.8 0 0 1 .3 6.6C.1 6.1 0 5.5 0 4.8v-.2c0-.7.1-1.3.3-1.9A4.2 4.2 0 0 1 2.8.3 5 5 0 0 1 4.7 0 4.9 4.9 0 0 1 8 1.3c.4.4.8.8 1 1.4.2.5.3 1.1.3 1.8v4.8a5 5 0 0 1-.3 2 4.3 4.3 0 0 1-2.5 2.4 5.5 5.5 0 0 1-3.6 0L1.5 13l-1-1.3-.3-1.8h1.6Zm2.9-8.4c-.5 0-1 .1-1.3.3a2.8 2.8 0 0 0-1.6 1.6l-.2 1.2v.3c0 .4 0 .8.2 1.2l.7 1 1 .5c.3.2.7.2 1.2.2.4 0 .8 0 1.2-.2a3 3 0 0 0 1-.6l.6-1c.2-.3.2-.7.2-1v-.4c0-.5 0-.9-.2-1.2-.1-.4-.3-.7-.6-1-.3-.3-.6-.5-1-.6-.3-.2-.8-.3-1.2-.3Z" /></g><g transform="translate(12,0)"><path d="M4 12.2V1h-.2L1.6 6H0L2.5.2h3.2v12h3.8v1.4H.2v-1.5H4Z" /></g></g><g id="icons" transform="translate(317,317)"><g id="i-24" transform="scale(.266) translate(-0,0)"><circle class="stroke" cx="30" cy="30" r="26"/></g><g id="i-19" transform="scale(.266) translate(-86,0)"><path fill-rule="evenodd" clip-rule="evenodd" d="M30 60a30 30 0 1 0 0-60 30 30 0 0 0 0 60ZM17.5 23c5 0 6.5 3.7 6.5-1.5S21 12 17.5 12c-3.6 0-6.5 4.3-6.5 9.5s1.5 1.5 6.5 1.5ZM49 21.5c0 5.2-2 1.5-6.5 1.5-5 0-6.5 3.7-6.5-1.5s3-9.5 6.5-9.5c3.6 0 6.5 4.3 6.5 9.5Zm-2.8 21.9c1.3-1.8 1.4-5.6-.8-5.6H13.6a4 4 0 0 0-.8 5.6 20.5 20.5 0 0 0 33.4 0Z"/></g><g id="i-10" transform="scale(.266) translate(-172,0)"><path d="M2 51 28.2 8.6a2 2 0 0 1 3.4 0L58.1 51a2 2 0 0 1-1.7 3.1H3.6A2 2 0 0 1 2 51Z"/></g></g></g></svg>
      </g>
      <g id="pQzxGL.tif" transform="translate(445.94 40) scale(0.97)">
      <svg xmlns="http://www.w3.org/2000/svg" width="350" height="350"><style>.p #bg{fill:#ddd} .c #bg{fill:#222} .p .factor,.p #text{fill:#222} .c .factor,.c #text{fill:#ddd} .sexy{fill:#e44C21} .cousin{fill:#348C47} .twin {fill:#3C4CE1} #grid .factor{r: 8} .c #icons *{fill: #ddd} .p #icons * {fill:#222} #icons .stroke *{fill:none} #icons .stroke {fill:none;stroke:#222;stroke-width:8} .c #icons .stroke{stroke:#ddd} .square{stroke-width:2;fill:none;stroke:#222;r:8} .c .square{stroke:#ddd} #icons #i-4 circle{stroke-width:20}</style><g class="p"><rect id="bg" width="100%" height="100%" /><g id="grid" transform="translate(26,26)"><g opacity=".2"><circle r="8" cx="0" cy="23" class="square"><animate attributeName="opacity" values="1;.3;1" dur="2.666640s" repeatCount="indefinite"/></circle><circle r="8" cx="69" cy="23" class="square"><animate attributeName="opacity" values="1;.3;1" dur="2.222200s" repeatCount="indefinite"/></circle><circle r="8" cx="115" cy="23" class="square"><animate attributeName="opacity" values="1;.3;1" dur="2.000000s" repeatCount="indefinite"/></circle><circle r="8" cx="161" cy="23" class="square"><animate attributeName="opacity" values="1;.3;1" dur="1.818160s" repeatCount="indefinite"/></circle><circle r="8" cx="0" cy="46" class="square"><animate attributeName="opacity" values="1;.3;1" dur="1.379280s" repeatCount="indefinite"/></circle><circle r="8" cx="46" cy="46" class="square"><animate attributeName="opacity" values="1;.3;1" dur="1.290320s" repeatCount="indefinite"/></circle><circle r="8" cx="92" cy="46" class="square"><animate attributeName="opacity" values="1;.3;1" dur="1.212120s" repeatCount="indefinite"/></circle><circle r="8" cx="161" cy="46" class="square"><animate attributeName="opacity" values="1;.3;1" dur="1.111080s" repeatCount="indefinite"/></circle><circle r="8" cx="253" cy="46" class="square"><animate attributeName="opacity" values="1;.3;1" dur="1.000000s" repeatCount="indefinite"/></circle></g><circle r="8" cx="0" cy="23" class="twin"><animate attributeName="opacity" values="1;.3;1" dur="2.666640s" repeatCount="indefinite"/></circle><circle r="8" cx="23" cy="23" class="twin"><animate attributeName="opacity" values="1;.3;1" dur="2.500000s" repeatCount="indefinite"/></circle><circle r="8" cx="69" cy="23" class="twin"><animate attributeName="opacity" values="1;.3;1" dur="2.222200s" repeatCount="indefinite"/></circle><circle r="8" cx="0" cy="92" class="cousin"><animate attributeName="opacity" values="1;.3;1" dur="0.701720s" repeatCount="indefinite"/></circle><circle r="8" cx="92" cy="92" class="cousin"><animate attributeName="opacity" values="1;.3;1" dur="0.655720s" repeatCount="indefinite"/></circle><circle r="8" cx="0" cy="115" class="sexy"><animate attributeName="opacity" values="1;.3;1" dur="0.563360s" repeatCount="indefinite"/></circle><circle r="8" cx="23" cy="115" class="sexy"><animate attributeName="opacity" values="1;.3;1" dur="0.555520s" repeatCount="indefinite"/></circle><circle r="8" cx="46" cy="115" class="sexy"><animate attributeName="opacity" values="1;.3;1" dur="0.547920s" repeatCount="indefinite"/></circle><circle r="8" cx="0" cy="138" class="sexy"><animate attributeName="opacity" values="1;.3;1" dur="0.470560s" repeatCount="indefinite"/></circle><circle r="8" cx="23" cy="138" class="sexy"><animate attributeName="opacity" values="1;.3;1" dur="0.465080s" repeatCount="indefinite"/></circle><circle r="8" cx="92" cy="138" class="sexy"><animate attributeName="opacity" values="1;.3;1" dur="0.449400s" repeatCount="indefinite"/></circle><circle r="8" cx="0" cy="0" class="factor"><animate attributeName="opacity" values="1;.3;1" dur="40s" repeatCount="indefinite"/></circle><circle r="8" cx="46" cy="0" class="factor"><animate attributeName="opacity" values="1;.3;1" dur="13.333320s" repeatCount="indefinite"/></circle><circle r="8" cx="69" cy="0" class="factor"><animate attributeName="opacity" values="1;.3;1" dur="10.000000s" repeatCount="indefinite"/></circle></g><g id="text" transform="translate(18,318)"><g transform="translate(0,0)"><path d="M4 12.2V1h-.2L1.6 6H0L2.5.2h3.2v12h3.8v1.4H.2v-1.5H4Z" /></g><g transform="translate(12,0)"><path d="M3.3 7V4.8L7.7 2v-.2H.1V.3h9v2.4L4.7 5.5v.3h.8a3.7 3.7 0 0 1 4 3.8v.3a3.8 3.8 0 0 1-1.3 3A4.8 4.8 0 0 1 4.9 14c-.8 0-1.5-.1-2-.3a4.4 4.4 0 0 1-2.5-2.4C0 10.7 0 10.2 0 9.5v-1h1.6v1c0 .4 0 .8.2 1.2l.7 1 1 .6a3.8 3.8 0 0 0 2.5 0 3 3 0 0 0 1-.6c.3-.2.5-.5.6-.9.2-.3.2-.7.2-1v-.2c0-.8-.2-1.4-.7-1.9-.5-.4-1.2-.7-2-.7H3.4Z" /></g></g><g id="icons" transform="translate(317,317)"><g id="i-24" transform="scale(.266) translate(-0,0)"><circle cx="30" cy="30" r="30"/></g><g id="i-19" transform="scale(.266) translate(-86,0)"><path fill-rule="evenodd" clip-rule="evenodd" d="M30 60a30 30 0 1 0 0-60 30 30 0 0 0 0 60ZM17.5 23c5 0 6.5 3.7 6.5-1.5S21 12 17.5 12c-3.6 0-6.5 4.3-6.5 9.5s1.5 1.5 6.5 1.5ZM49 21.5c0 5.2-2 1.5-6.5 1.5-5 0-6.5 3.7-6.5-1.5s3-9.5 6.5-9.5c3.6 0 6.5 4.3 6.5 9.5Zm-2.8 21.9c1.3-1.8 1.4-5.6-.8-5.6H13.6a4 4 0 0 0-.8 5.6 20.5 20.5 0 0 0 33.4 0Z"/></g><g id="i-17" transform="scale(.266) translate(-172,0)"><path d="M31.3 23.8a2 2 0 0 1-2.6 0C20.3 16.4 16 12.4 16 7.5 16 3.4 19.3 0 23.5 0a9 9 0 0 1 4.8 1.3c1 .7 2.4.7 3.4 0C33 .5 34.7 0 36.3 0 40.5 0 44 3.2 44 7.3c0 5-4.3 9.1-12.7 16.5Z"/><path d="M23.8 28.7C16.4 20.3 12.4 16 7.3 16c-4 0-7.3 3.5-7.3 7.7 0 1.7.5 3.3 1.3 4.6.7 1 .7 2.4 0 3.4A9 9 0 0 0 0 36.5C0 40.7 3.4 44 7.5 44c4.9 0 9-4.3 16.3-12.7a2 2 0 0 0 0-2.6Z"/><path d="M52.7 44c-5 0-9.1-4.3-16.5-12.7a2 2 0 0 1 0-2.6C43.6 20.3 47.6 16 52.5 16c4 0 7.5 3.3 7.5 7.5a9 9 0 0 1-1.3 4.8c-.7 1-.7 2.4 0 3.4.8 1.3 1.3 3 1.3 4.6 0 4.2-3.2 7.7-7.3 7.7Z"/><path d="M28.7 36.2C20.3 43.6 16 47.6 16 52.7c0 4 3.5 7.3 7.7 7.3 1.7 0 3.3-.5 4.6-1.3 1-.7 2.4-.7 3.4 0a9 9 0 0 0 4.8 1.3c4.2 0 7.5-3.4 7.5-7.5 0-4.9-4.3-9-12.7-16.3a2 2 0 0 0-2.6 0Z"/></g><g id="i-15" transform="scale(.266) translate(-258,0)"><path d="m14.8 27.7 21.4-16.1a4 4 0 0 0 1.6-3.2V4a2 2 0 0 0-3.2-1.6L2.3 26.8l-.6.4c-.9.6-1.7 1.2-1.7 2.1 0 .7.3 1.4.7 1.7l33.8 28a2 2 0 0 0 3.3-1.5v-5.1a4 4 0 0 0-1.4-3L14.7 30.8a2 2 0 0 1 .1-3.2ZM59.8 5v52.6a2 2 0 0 1-3.3 1.5L22.7 31a2 2 0 0 1 0-3l34-25.7c1.2-1 3.1 1 3.1 2.6Z"/></g><g id="i-7" transform="scale(.266) translate(-344,0)"><path class="stroke" d="M31.3 23a.6.6 0 0 0 0-.4.6.6 0 0 0-.5-.2h-.3a.8.8 0 0 0-.5.3l-.1.4v.3a1 1 0 0 0 .5.7 1.2 1.2 0 0 0 .9.2l.5-.2.4-.5.2-.5a1.7 1.7 0 0 0-.3-1.3 2 2 0 0 0-1.3-.8h-.9l-.8.4c-.3.1-.5.4-.7.7-.2.3-.3.6-.3 1a3 3 0 0 0 .5 2.2 3.3 3.3 0 0 0 2.2 1.4h1.5a4 4 0 0 0 1.4-.7c.5-.3.9-.7 1.2-1.2a5.1 5.1 0 0 0-.2-5.6 5.8 5.8 0 0 0-3.9-2.4c-.8-.2-1.7-.2-2.6 0a7 7 0 0 0-2.5 1.2 8 8 0 0 0-2 2.1c-.5.9-.9 1.9-1 3a8.8 8.8 0 0 0 1.5 6.7 10 10 0 0 0 6.6 4.1c1.4.3 3 .3 4.4 0a13 13 0 0 0 7.8-5.6c1-1.6 1.6-3.4 2-5.2a15.2 15.2 0 0 0-2.7-11.6 17.2 17.2 0 0 0-11.5-7.2c-2.4-.4-5-.4-7.6.2-2.6.6-5.2 1.7-7.5 3.3a22.6 22.6 0 0 0-6 6.4 24.5 24.5 0 0 0-3.3 8.9A26.3 26.3 0 0 0 11 43a29.7 29.7 0 0 0 19.8 12.4A33.5 33.5 0 0 0 54.2 51"/></g></g></g></svg>
      </g>
      <g id="SxLJ9x.tif" transform="translate(10 40) scale(0.97)">
        <svg xmlns="http://www.w3.org/2000/svg" width="350" height="350"><style>.p #bg{fill:#ddd} .c #bg{fill:#222} .p .factor,.p #text{fill:#222} .c .factor,.c #text{fill:#ddd} .sexy{fill:#e44C21} .cousin{fill:#348C47} .twin {fill:#3C4CE1} #grid .factor{r: 8} .c #icons *{fill: #ddd} .p #icons * {fill:#222} #icons .stroke *{fill:none} #icons .stroke {fill:none;stroke:#222;stroke-width:8} .c #icons .stroke{stroke:#ddd} .square{stroke-width:2;fill:none;stroke:#222;r:8} .c .square{stroke:#ddd} #icons #i-4 circle{stroke-width:20}</style><g class="p"><rect id="bg" width="100%" height="100%" /><g id="grid" transform="translate(26,26)"><g opacity=".2"><circle r="8" cx="0" cy="23" class="square"><animate attributeName="opacity" values="1;.3;1" dur="2.666640s" repeatCount="indefinite"/></circle><circle r="8" cx="92" cy="23" class="square"><animate attributeName="opacity" values="1;.3;1" dur="2.105240s" repeatCount="indefinite"/></circle><circle r="8" cx="115" cy="23" class="square"><animate attributeName="opacity" values="1;.3;1" dur="2.000000s" repeatCount="indefinite"/></circle><circle r="8" cx="0" cy="46" class="square"><animate attributeName="opacity" values="1;.3;1" dur="1.379280s" repeatCount="indefinite"/></circle><circle r="8" cx="23" cy="46" class="square"><animate attributeName="opacity" values="1;.3;1" dur="1.333320s" repeatCount="indefinite"/></circle><circle r="8" cx="46" cy="46" class="square"><animate attributeName="opacity" values="1;.3;1" dur="1.290320s" repeatCount="indefinite"/></circle><circle r="8" cx="92" cy="46" class="square"><animate attributeName="opacity" values="1;.3;1" dur="1.212120s" repeatCount="indefinite"/></circle><circle r="8" cx="138" cy="46" class="square"><animate attributeName="opacity" values="1;.3;1" dur="1.142840s" repeatCount="indefinite"/></circle><circle r="8" cx="184" cy="46" class="square"><animate attributeName="opacity" values="1;.3;1" dur="1.081080s" repeatCount="indefinite"/></circle><circle r="8" cx="0" cy="69" class="square"><animate attributeName="opacity" values="1;.3;1" dur="0.930200s" repeatCount="indefinite"/></circle><circle r="8" cx="115" cy="69" class="square"><animate attributeName="opacity" values="1;.3;1" dur="0.833320s" repeatCount="indefinite"/></circle><circle r="8" cx="138" cy="69" class="square"><animate attributeName="opacity" values="1;.3;1" dur="0.816320s" repeatCount="indefinite"/></circle><circle r="8" cx="184" cy="69" class="square"><animate attributeName="opacity" values="1;.3;1" dur="0.784280s" repeatCount="indefinite"/></circle><circle r="8" cx="253" cy="69" class="square"><animate attributeName="opacity" values="1;.3;1" dur="0.740720s" repeatCount="indefinite"/></circle></g><circle r="8" cx="0" cy="23" class="twin"><animate attributeName="opacity" values="1;.3;1" dur="2.666640s" repeatCount="indefinite"/></circle><circle r="8" cx="46" cy="23" class="twin"><animate attributeName="opacity" values="1;.3;1" dur="2.352920s" repeatCount="indefinite"/></circle><circle r="8" cx="0" cy="69" class="cousin"><animate attributeName="opacity" values="1;.3;1" dur="0.930200s" repeatCount="indefinite"/></circle><circle r="8" cx="23" cy="69" class="cousin"><animate attributeName="opacity" values="1;.3;1" dur="0.909080s" repeatCount="indefinite"/></circle><circle r="8" cx="0" cy="92" class="cousin"><animate attributeName="opacity" values="1;.3;1" dur="0.701720s" repeatCount="indefinite"/></circle><circle r="8" cx="23" cy="92" class="cousin"><animate attributeName="opacity" values="1;.3;1" dur="0.689640s" repeatCount="indefinite"/></circle><circle r="8" cx="69" cy="92" class="cousin"><animate attributeName="opacity" values="1;.3;1" dur="0.666640s" repeatCount="indefinite"/></circle><circle r="8" cx="0" cy="115" class="sexy"><animate attributeName="opacity" values="1;.3;1" dur="0.563360s" repeatCount="indefinite"/></circle><circle r="8" cx="0" cy="138" class="sexy"><animate attributeName="opacity" values="1;.3;1" dur="0.470560s" repeatCount="indefinite"/></circle><circle r="8" cx="46" cy="138" class="sexy"><animate attributeName="opacity" values="1;.3;1" dur="0.459760s" repeatCount="indefinite"/></circle><circle r="8" cx="69" cy="138" class="sexy"><animate attributeName="opacity" values="1;.3;1" dur="0.454520s" repeatCount="indefinite"/></circle><circle r="8" cx="0" cy="0" class="factor"><animate attributeName="opacity" values="1;.3;1" dur="40s" repeatCount="indefinite"/></circle><circle r="8" cx="23" cy="0" class="factor"><animate attributeName="opacity" values="1;.3;1" dur="20.000000s" repeatCount="indefinite"/></circle><circle r="8" cx="46" cy="0" class="factor"><animate attributeName="opacity" values="1;.3;1" dur="13.333320s" repeatCount="indefinite"/></circle></g><g id="text" transform="translate(18,318)"><g transform="translate(0,0)"><path d="M0 .3h9v2.3l-5.7 8.6-.6 1a2 2 0 0 0-.2 1v.5H.9V12.4a3.9 3.9 0 0 1 .7-1.3l.5-.8L7.6 2v-.2H0V.3Z" /></g></g><g id="icons" transform="translate(317,317)"><g id="i-24" transform="scale(.266) translate(-0,0)"><circle cx="30" cy="30" r="30"/></g><g id="i-22" transform="scale(.266) translate(-86,0)"><path d="M16 8A8 8 0 1 1 0 8a8 8 0 0 1 16 0Z"/><path d="M3.2 57.8a4 4 0 0 1 0-5.6l49-49a4 4 0 0 1 5.6 5.6l-49 49a4 4 0 0 1-5.6 0Z"/><path d="M52 60a8 8 0 1 0 0-16 8 8 0 0 0 0 16Z"/></g><g id="i-19" transform="scale(.266) translate(-172,0)"><path fill-rule="evenodd" clip-rule="evenodd" d="M30 60a30 30 0 1 0 0-60 30 30 0 0 0 0 60ZM17.5 23c5 0 6.5 3.7 6.5-1.5S21 12 17.5 12c-3.6 0-6.5 4.3-6.5 9.5s1.5 1.5 6.5 1.5ZM49 21.5c0 5.2-2 1.5-6.5 1.5-5 0-6.5 3.7-6.5-1.5s3-9.5 6.5-9.5c3.6 0 6.5 4.3 6.5 9.5Zm-2.8 21.9c1.3-1.8 1.4-5.6-.8-5.6H13.6a4 4 0 0 0-.8 5.6 20.5 20.5 0 0 0 33.4 0Z"/></g><g id="i-17" transform="scale(.266) translate(-258,0)"><path d="M31.3 23.8a2 2 0 0 1-2.6 0C20.3 16.4 16 12.4 16 7.5 16 3.4 19.3 0 23.5 0a9 9 0 0 1 4.8 1.3c1 .7 2.4.7 3.4 0C33 .5 34.7 0 36.3 0 40.5 0 44 3.2 44 7.3c0 5-4.3 9.1-12.7 16.5Z"/><path d="M23.8 28.7C16.4 20.3 12.4 16 7.3 16c-4 0-7.3 3.5-7.3 7.7 0 1.7.5 3.3 1.3 4.6.7 1 .7 2.4 0 3.4A9 9 0 0 0 0 36.5C0 40.7 3.4 44 7.5 44c4.9 0 9-4.3 16.3-12.7a2 2 0 0 0 0-2.6Z"/><path d="M52.7 44c-5 0-9.1-4.3-16.5-12.7a2 2 0 0 1 0-2.6C43.6 20.3 47.6 16 52.5 16c4 0 7.5 3.3 7.5 7.5a9 9 0 0 1-1.3 4.8c-.7 1-.7 2.4 0 3.4.8 1.3 1.3 3 1.3 4.6 0 4.2-3.2 7.7-7.3 7.7Z"/><path d="M28.7 36.2C20.3 43.6 16 47.6 16 52.7c0 4 3.5 7.3 7.7 7.3 1.7 0 3.3-.5 4.6-1.3 1-.7 2.4-.7 3.4 0a9 9 0 0 0 4.8 1.3c4.2 0 7.5-3.4 7.5-7.5 0-4.9-4.3-9-12.7-16.3a2 2 0 0 0-2.6 0Z"/></g><g id="i-16" transform="scale(.266) translate(-344,0)"><path d="M28.1 2.9a2 2 0 0 1 3.8 0l5.5 16.9a2 2 0 0 0 2 1.4H57a2 2 0 0 1 1.2 3.6L44 35.3a2 2 0 0 0-.7 2.2l5.5 17a2 2 0 0 1-3.1 2.2L31.2 46.2a2 2 0 0 0-2.4 0L14.4 56.7a2 2 0 0 1-3-2.2l5.4-17a2 2 0 0 0-.7-2.2L1.7 24.8a2 2 0 0 1 1.2-3.6h17.8a2 2 0 0 0 1.9-1.4l5.5-17Z"/></g><g id="i-8" transform="scale(.266) translate(-430,0)"><g class="stroke"><path d="M44 20.8h13.8V7"/><path d="M12 11a25.4 25.4 0 0 1 36 0l9.8 9.8"/><path d="M16 37.2H2.3V51"/><path d="M48 47a25.4 25.4 0 0 1-36 0l-9.8-9.8"/></g></g></g></g></svg>
      </g>
    </g>
    <g>
      <line class="cls-1" x1="375.87" y1="239" x2="424.56" y2="190.31"/>
      <line class="cls-1" x1="424.56" y1="239" x2="375.87" y2="190.31"/>
    </g>
    <g>
      <line class="cls-1" x1="801.79" y1="226.66" x2="861" y2="226.66"/>
      <line class="cls-1" x1="801.79" y1="202.66" x2="861" y2="202.66"/>
    </g>
    <polyline class="cls-2" points="27 51.84 18.74 51.84 18.74 65.89 18.74 78 27 78"/>
    <polyline class="cls-3" points="891 76 882.75 76 882.75 86.75 882.75 96 891 96"/>
    <polyline class="cls-3" points="972.75 96 981 96 981 85.26 981 76 972.75 76"/>
    <polyline class="cls-2" points="464.72 51 456.47 51 456.47 65.44 456.47 77.87 464.72 77.87"/>
    <polyline class="cls-2" points="543.47 77.87 551.72 77.87 551.72 63.44 551.72 51 543.47 51"/>
    <polyline class="cls-2" points="86.74 78 95 78 95 63.94 95 51.84 86.74 51.84"/>
    <polyline class="cls-3" points="891 56 882.75 56 882.75 66.75 882.75 76 891 76"/>
    <polyline class="cls-3" points="952.75 76 961 76 961 65.26 961 56 952.75 56"/>
  </g>
  <g>
    <path class="cls-4" d="M58.87,50.89S203.25,6,482.35,6C730.07,6,879.66,41.36,910.18,49.31"/>
    <path class="cls-5" d="M916,50.89a30,30,0,0,0-9.49,2.38l2.9-4.15-.43-5A30.33,30.33,0,0,0,916,50.89Z"/>
  </g>
  <g>
    <path class="cls-4" d="M550.39,80.51s56.26,37.47,161.85,39c89.06,1.32,141.65-12.77,158.19-18.08"/>
    <path class="cls-5" d="M876.13,99.49a30.47,30.47,0,0,0-6.59,7.24l.12-5.06-3.15-4A30.38,30.38,0,0,0,876.13,99.49Z"/>
  </g>
</svg>
