<svg width="579.4" height="570.5" fill="none" xmlns="http://www.w3.org/2000/svg"><path d="M429.8 569.4v-134h-23v-22h153v22H537v102.7c0 6.4 3.1 9.6 9.3 9.6h13.7v21.6h-20.4a28 28 0 0 1-20.7-7.3 27.1 27.1 0 0 1-7.4-20V435.4H455v133.9Z" fill="url(#a)" style="fill:url(#a)" transform="translate(-197 -205.6)"/><g clip-path="url(#b)" transform="translate(-197 -205.6)"><g clip-path="url(#c)"><path fill-rule="evenodd" clip-rule="evenodd" d="m202.9 217.5 110.4 116.6H764v-18.2H320.8L219.2 213.3Z" fill="url(#d)" style="fill:url(#d)"/><path d="M654.7 666.6v-15.4l-443.6.5 20.3 14.9z" fill="url(#e)" style="fill:url(#e)"/><path d="m655.5 652.2 5.9-13.8H203.6l24.6 13.6-21 .2 104 106.3 17-12-100-94.5z" fill="url(#f)" style="fill:url(#f)"/><path fill-rule="evenodd" clip-rule="evenodd" d="M774.9 324.8 659.9 207H200.4v454.9L315 771.2H775zm-16.1 0 3.4 434.7H315l-105.4-97.7 9.6-443.8h435.5z" fill="url(#g)" style="fill:url(#g)"/><path d="M759.3 775.1v-448H775v448z" fill="url(#h)" style="fill:url(#h)"/><path d="M761.8 327v11.5H328.5V775h-16.3v-448Z" fill="url(#i)" style="fill:url(#i)"/><path d="M312.4 758.3h463V775h-463Z" fill="url(#j)" style="fill:url(#j)"/></g><path fill-rule="evenodd" clip-rule="evenodd" d="M312.1 755.8V328.5l-112-121.9-2.1 452.7L312.2 775v-19.3zm-100-501.6 82.8 90V739l-84.4-83z" fill="url(#k)" style="fill:url(#k)"/><path d="m654.2 651.2 96.2 101-22.3 3.1-73.9-89.2z" fill="url(#l)" style="fill:url(#l)"/><path d="M750.5 316h-16.1L669 252.5v399.7h-14.9V217.5Z" fill="url(#m)" style="fill:url(#m)"/><path d="M654.5 217.5v434.2l-10.7-12.9v-411H234L222 217.6z" fill="url(#n)" style="fill:url(#n)"/><path d="m668.6 651.4 104.6 107.1-445.3 1.9v-14.8h410.2l-84-94.2z" fill="url(#o)" style="fill:url(#o)"/><path d="M761.8 338.5h-11.4v396.7l11.4 11.7z" fill="url(#p)" style="fill:url(#p)"/><path d="M210 654.2h18.4V270.3l-18.3-20z" fill="url(#q)" style="fill:url(#q)"/></g><defs><linearGradient id="a" x1="439.2" y1="402.5" x2="485.2" y2="644.6" gradientUnits="userSpaceOnUse"><stop stop-color="#F4D04D"/><stop offset="1" stop-color="#1EE79F"/></linearGradient><linearGradient id="d" x1="671.5" y1="161.5" x2="481.2" y2="334.1" gradientUnits="userSpaceOnUse"><stop stop-color="#F9FE00"/><stop offset="1" stop-color="#FF9838"/></linearGradient><linearGradient id="e" x1="623.9" y1="522.4" x2="386.5" y2="682.5" gradientUnits="userSpaceOnUse"><stop stop-color="#23B2B2"/><stop offset="1" stop-color="#694FB2"/></linearGradient><linearGradient id="f" x1="625.4" y1="597.9" x2="331.5" y2="808.6" gradientUnits="userSpaceOnUse"><stop stop-color="#F9FE00"/><stop offset=".7" stop-color="#FDB827"/><stop offset="1" stop-color="#FF9838"/></linearGradient><linearGradient id="g" x1="738.2" y1="280.7" x2="232.8" y2="700.9" gradientUnits="userSpaceOnUse"><stop stop-color="#F9FE00"/><stop offset="1" stop-color="#FF9838"/></linearGradient><linearGradient id="h" x1="718.7" y1="772.7" x2="859.4" y2="684.6" gradientUnits="userSpaceOnUse"><stop stop-color="#FF9939"/><stop offset="1" stop-color="#1EE79E"/></linearGradient><linearGradient id="i" x1="314.6" y1="-818.3" x2="627.4" y2="-800.6" gradientUnits="userSpaceOnUse"><stop stop-color="#FF9939"/><stop offset="1" stop-color="#1EE79E"/></linearGradient><linearGradient id="j" x1="314.9" y1="715.2" x2="409.7" y2="862.3" gradientUnits="userSpaceOnUse"><stop stop-color="#FF9939"/><stop offset="1" stop-color="#1EE79E"/></linearGradient><linearGradient id="k" x1="366.7" y1="67.4" x2="415" y2="78.2" gradientUnits="userSpaceOnUse"><stop stop-color="#23B2B2"/><stop offset=".9" stop-color="#694FB2"/></linearGradient><linearGradient id="l" x1="796.3" y1="625.7" x2="803.9" y2="708.4" gradientUnits="userSpaceOnUse"><stop stop-color="#23B2B2"/><stop offset=".9" stop-color="#694FB2"/></linearGradient><linearGradient id="m" x1="654.7" y1="-893.6" x2="721.9" y2="-892.8" gradientUnits="userSpaceOnUse"><stop stop-color="#FF9939"/><stop offset="1" stop-color="#1EE79E"/></linearGradient><linearGradient id="n" x1="861.1" y1="111.2" x2="947.5" y2="206.8" gradientUnits="userSpaceOnUse"><stop stop-color="#23B2B2"/><stop offset=".9" stop-color="#694FB2"/></linearGradient><linearGradient id="o" x1="690.4" y1="505" x2="393.5" y2="799.9" gradientUnits="userSpaceOnUse"><stop stop-color="#F9FE00"/><stop offset="1" stop-color="#FF9838"/></linearGradient><linearGradient id="p" x1="714.4" y1="415.8" x2="761.8" y2="746.9" gradientUnits="userSpaceOnUse"><stop stop-color="#23B2B2"/><stop offset=".9" stop-color="#694FB2"/></linearGradient><linearGradient id="q" x1="275.3" y1="252.4" x2="137.6" y2="363" gradientUnits="userSpaceOnUse"><stop stop-color="#FF9939"/><stop offset="1" stop-color="#1EE79E"/></linearGradient><clipPath id="b"><path fill="#fff" transform="matrix(-1 0 0 1 782.6 196)" d="M0 0h593.6v593.6H0z"/></clipPath><clipPath id="c"><path fill="#fff" transform="matrix(-1 0 0 1 782.6 196.2)" d="M0 0h597.8v593.8H0z"/></clipPath></defs></svg>