<svg width="438" height="452" viewBox="0 0 438 452" fill="none" xmlns="http://www.w3.org/2000/svg">
<rect x="1.5" y="77.2671" width="366.143" height="366.143" rx="7.54025" fill="#EAEAEA"/>
<path d="M185.888 274.271C184.115 274.271 182.527 273.926 181.124 273.237C179.745 272.523 178.65 271.514 177.837 270.209C177.05 268.904 176.656 267.353 176.656 265.556V256.545C176.656 254.6 177.037 252.95 177.801 251.596C178.564 250.242 179.635 249.208 181.013 248.494C182.417 247.756 184.079 247.386 185.999 247.386C187.895 247.386 189.507 247.731 190.837 248.42C192.191 249.085 193.212 250.008 193.902 251.19C194.616 252.347 194.973 253.689 194.973 255.215H191.944C191.944 253.689 191.452 252.458 190.467 251.522C189.483 250.562 187.993 250.082 185.999 250.082C183.98 250.082 182.417 250.636 181.309 251.744C180.201 252.827 179.647 254.329 179.647 256.249V259.832H180.164C180.607 259.093 181.346 258.416 182.38 257.8C183.414 257.16 184.854 256.84 186.701 256.84C188.252 256.84 189.667 257.185 190.947 257.874C192.228 258.564 193.249 259.536 194.013 260.792C194.776 262.047 195.157 263.537 195.157 265.26V265.703C195.157 267.451 194.751 268.965 193.939 270.246C193.151 271.526 192.055 272.523 190.652 273.237C189.249 273.926 187.661 274.271 185.888 274.271ZM185.888 271.575C187.759 271.575 189.273 271.046 190.43 269.987C191.587 268.928 192.166 267.488 192.166 265.666V265.371C192.166 264.14 191.895 263.081 191.354 262.195C190.837 261.309 190.11 260.619 189.175 260.127C188.239 259.61 187.144 259.351 185.888 259.351C184.657 259.351 183.574 259.61 182.638 260.127C181.703 260.619 180.964 261.309 180.423 262.195C179.905 263.081 179.647 264.14 179.647 265.371V265.666C179.647 267.488 180.226 268.928 181.383 269.987C182.54 271.046 184.042 271.575 185.888 271.575Z" fill="#131313"/>
<rect x="1.5" y="77.2671" width="366.143" height="366.143" rx="7.54025" stroke="#131313" stroke-width="3"/>
<circle cx="63.4246" cy="244.04" r="20.1844" fill="#131313"/>
<circle cx="190.71" cy="131.172" r="20.1844" fill="#131313"/>
<path fill-rule="evenodd" clip-rule="evenodd" d="M69.1418 230.277C67.5256 228.271 65.9761 226.16 64.4987 223.95C59.9671 237.56 57.5132 252.119 57.5132 267.251C57.5132 342.898 118.837 404.222 194.484 404.222C270.131 404.222 331.455 342.898 331.455 267.251C331.455 191.604 270.131 130.28 194.484 130.28C189.788 130.28 185.147 130.517 180.573 130.978C180.968 133.035 181.316 135.12 181.617 137.229C185.85 136.815 190.142 136.603 194.484 136.603C266.639 136.603 325.132 195.096 325.132 267.251C325.132 339.406 266.639 397.899 194.484 397.899C122.329 397.899 63.8363 339.406 63.8363 267.251C63.8363 254.41 65.689 242.001 69.1418 230.277Z" fill="#131313"/>
<circle cx="275.979" cy="370.501" r="20.1844" fill="#EAEAEA" stroke="#131313" stroke-width="4.55757"/>
<path d="M264.49 273.613C261.68 314.395 226.343 345.177 185.561 342.367C144.78 339.558 113.997 304.22 116.807 263.439C119.616 222.657 154.954 191.875 195.736 194.684" stroke="#131313" stroke-width="6.36839"/>
<circle cx="266.726" cy="288.526" r="20.1033" transform="rotate(3.94112 266.726 288.526)" fill="#131313"/>
<circle cx="213.057" cy="195.877" r="17.3868" transform="rotate(3.94112 213.057 195.877)" fill="#EAEAEA" stroke="#131313" stroke-width="5.43283"/>
<rect x="22.6445" y="61.9937" width="359.239" height="359.239" rx="7.37116" fill="#EAEAEA"/>
<path d="M200.91 247.655V245.445C200.91 244.334 201.116 243.464 201.526 242.836C201.937 242.183 202.662 241.628 203.701 241.169L204.715 240.734C205.972 240.202 206.95 239.574 207.651 238.849C208.351 238.101 208.702 237.062 208.702 235.733C208.702 234.742 208.448 233.909 207.941 233.232C207.433 232.556 206.745 232.037 205.875 231.674C205.005 231.312 204.027 231.131 202.94 231.131C201.853 231.131 200.838 231.324 199.896 231.71C198.978 232.073 198.229 232.641 197.649 233.414C197.093 234.163 196.815 235.117 196.815 236.277V237.545H193.88V236.277C193.88 234.61 194.267 233.208 195.04 232.073C195.837 230.913 196.912 230.043 198.265 229.464C199.642 228.86 201.2 228.558 202.94 228.558C204.655 228.558 206.165 228.872 207.47 229.5C208.798 230.104 209.825 230.949 210.55 232.037C211.299 233.1 211.673 234.332 211.673 235.733C211.673 237.11 211.407 238.258 210.876 239.176C210.369 240.07 209.704 240.818 208.883 241.422C208.061 242.002 207.155 242.51 206.165 242.944L205.187 243.379C204.727 243.573 204.401 243.826 204.208 244.14C204.015 244.454 203.918 244.901 203.918 245.481V247.655H200.91ZM202.469 254.939C201.744 254.939 201.152 254.71 200.693 254.251C200.234 253.792 200.004 253.2 200.004 252.475C200.004 251.75 200.234 251.159 200.693 250.7C201.152 250.241 201.744 250.011 202.469 250.011C203.169 250.011 203.749 250.241 204.208 250.7C204.691 251.159 204.933 251.75 204.933 252.475C204.933 253.2 204.691 253.792 204.208 254.251C203.749 254.71 203.169 254.939 202.469 254.939Z" fill="#131313"/>
<rect x="22.6445" y="61.9937" width="359.239" height="359.239" rx="7.37116" stroke="#131313" stroke-width="3"/>
<circle cx="83.3757" cy="225.597" r="19.8045" fill="#131313"/>
<circle cx="208.265" cy="114.853" r="19.8045" fill="#131313"/>
<path fill-rule="evenodd" clip-rule="evenodd" d="M88.9853 212.093C87.3995 210.125 85.8792 208.053 84.4296 205.885C79.9834 219.239 77.5757 233.524 77.5757 248.371C77.5757 322.594 137.745 382.764 211.968 382.764C286.191 382.764 346.361 322.594 346.361 248.371C346.361 174.148 286.191 113.979 211.968 113.979C207.361 113.979 202.807 114.21 198.319 114.663C198.706 116.682 199.048 118.727 199.343 120.796C203.496 120.39 207.708 120.183 211.968 120.183C282.765 120.183 340.157 177.575 340.157 248.371C340.157 319.168 282.765 376.56 211.968 376.56C141.172 376.56 83.7797 319.168 83.7797 248.371C83.7797 235.771 85.5976 223.596 88.9853 212.093Z" fill="#131313"/>
<circle cx="291.929" cy="349.677" r="19.8045" fill="#EAEAEA" stroke="#131313" stroke-width="4.47178"/>
<path d="M280.656 254.613C277.899 294.627 243.227 324.829 203.213 322.073C163.199 319.316 132.996 284.644 135.753 244.63C138.51 204.616 173.182 174.413 213.196 177.17" stroke="#131313" stroke-width="6.24851"/>
<circle cx="282.85" cy="269.245" r="19.7248" transform="rotate(3.94112 282.85 269.245)" fill="#131313"/>
<circle cx="230.191" cy="178.341" r="17.0596" transform="rotate(3.94112 230.191 178.341)" fill="#EAEAEA" stroke="#131313" stroke-width="5.33056"/>
<rect x="47.3125" y="39.9683" width="359.239" height="359.239" rx="7.37116" fill="#EAEAEA"/>
<path d="M225.578 225.63V223.419C225.578 222.308 225.784 221.438 226.194 220.81C226.605 220.158 227.33 219.602 228.369 219.143L229.383 218.708C230.64 218.177 231.618 217.548 232.319 216.824C233.019 216.075 233.37 215.036 233.37 213.707C233.37 212.717 233.116 211.883 232.609 211.207C232.101 210.53 231.413 210.011 230.543 209.648C229.673 209.286 228.695 209.105 227.608 209.105C226.521 209.105 225.506 209.298 224.564 209.685C223.646 210.047 222.897 210.615 222.317 211.388C221.761 212.137 221.483 213.091 221.483 214.251V215.519H218.548V214.251C218.548 212.584 218.935 211.182 219.708 210.047C220.505 208.887 221.58 208.018 222.933 207.438C224.31 206.834 225.868 206.532 227.608 206.532C229.323 206.532 230.833 206.846 232.138 207.474C233.466 208.078 234.493 208.924 235.218 210.011C235.967 211.074 236.341 212.306 236.341 213.707C236.341 215.084 236.075 216.232 235.544 217.15C235.037 218.044 234.372 218.793 233.551 219.397C232.729 219.976 231.823 220.484 230.833 220.919L229.854 221.353C229.395 221.547 229.069 221.8 228.876 222.114C228.683 222.429 228.586 222.875 228.586 223.455V225.63H225.578ZM227.137 232.914C226.412 232.914 225.82 232.684 225.361 232.225C224.902 231.766 224.672 231.174 224.672 230.449C224.672 229.725 224.902 229.133 225.361 228.674C225.82 228.215 226.412 227.985 227.137 227.985C227.837 227.985 228.417 228.215 228.876 228.674C229.359 229.133 229.601 229.725 229.601 230.449C229.601 231.174 229.359 231.766 228.876 232.225C228.417 232.684 227.837 232.914 227.137 232.914Z" fill="#131313"/>
<rect x="47.3125" y="39.9683" width="359.239" height="359.239" rx="7.37116" stroke="#131313" stroke-width="3"/>
<circle cx="108.044" cy="203.572" r="19.8045" fill="#131313"/>
<circle cx="232.933" cy="92.8279" r="19.8045" fill="#131313"/>
<path fill-rule="evenodd" clip-rule="evenodd" d="M113.653 190.068C112.067 188.1 110.547 186.028 109.098 183.86C104.651 197.213 102.244 211.498 102.244 226.346C102.244 300.569 162.413 360.738 236.636 360.738C310.859 360.738 371.029 300.569 371.029 226.346C371.029 152.123 310.859 91.9531 236.636 91.9531C232.029 91.9531 227.475 92.185 222.987 92.6377C223.374 94.6564 223.716 96.7016 224.011 98.7711C228.164 98.365 232.376 98.1572 236.636 98.1572C307.433 98.1572 364.825 155.549 364.825 226.346C364.825 297.142 307.433 354.534 236.636 354.534C165.84 354.534 108.448 297.142 108.448 226.346C108.448 213.746 110.266 201.571 113.653 190.068Z" fill="#131313"/>
<circle cx="316.597" cy="327.652" r="19.8045" fill="#EAEAEA" stroke="#131313" stroke-width="4.47178"/>
<path d="M305.324 232.587C302.567 272.601 267.895 302.804 227.881 300.047C187.867 297.291 157.664 262.618 160.421 222.604C163.178 182.59 197.85 152.388 237.864 155.144" stroke="#131313" stroke-width="6.24851"/>
<circle cx="307.518" cy="247.22" r="19.7248" transform="rotate(3.94112 307.518 247.22)" fill="#131313"/>
<circle cx="254.859" cy="156.315" r="17.0596" transform="rotate(3.94112 254.859 156.315)" fill="#EAEAEA" stroke="#131313" stroke-width="5.33056"/>
<rect x="71.1001" y="17.062" width="359.239" height="359.239" rx="7.37116" fill="#EAEAEA"/>
<path d="M249.366 202.723V200.513C249.366 199.401 249.571 198.532 249.982 197.904C250.393 197.251 251.117 196.696 252.156 196.237L253.171 195.802C254.427 195.27 255.406 194.642 256.106 193.917C256.807 193.168 257.157 192.13 257.157 190.801C257.157 189.81 256.904 188.977 256.396 188.3C255.889 187.624 255.2 187.104 254.331 186.742C253.461 186.38 252.482 186.199 251.395 186.199C250.308 186.199 249.293 186.392 248.351 186.778C247.433 187.141 246.684 187.708 246.104 188.482C245.549 189.23 245.271 190.185 245.271 191.344V192.613H242.336V191.344C242.336 189.677 242.722 188.276 243.495 187.141C244.292 185.981 245.368 185.111 246.72 184.532C248.098 183.928 249.656 183.626 251.395 183.626C253.111 183.626 254.621 183.94 255.925 184.568C257.254 185.172 258.281 186.017 259.005 187.104C259.754 188.167 260.129 189.4 260.129 190.801C260.129 192.178 259.863 193.325 259.332 194.244C258.824 195.137 258.16 195.886 257.338 196.49C256.517 197.07 255.611 197.577 254.621 198.012L253.642 198.447C253.183 198.64 252.857 198.894 252.664 199.208C252.47 199.522 252.374 199.969 252.374 200.549V202.723H249.366ZM250.924 210.007C250.199 210.007 249.608 209.778 249.148 209.319C248.689 208.86 248.46 208.268 248.46 207.543C248.46 206.818 248.689 206.226 249.148 205.767C249.608 205.308 250.199 205.079 250.924 205.079C251.625 205.079 252.205 205.308 252.664 205.767C253.147 206.226 253.388 206.818 253.388 207.543C253.388 208.268 253.147 208.86 252.664 209.319C252.205 209.778 251.625 210.007 250.924 210.007Z" fill="#131313"/>
<rect x="71.1001" y="17.062" width="359.239" height="359.239" rx="7.37116" stroke="#131313" stroke-width="3"/>
<circle cx="132.828" cy="180.665" r="19.8045" fill="#131313"/>
<circle cx="257.717" cy="69.9216" r="19.8045" fill="#131313"/>
<path fill-rule="evenodd" clip-rule="evenodd" d="M135.777 163.678C135.133 162.788 134.501 161.879 133.882 160.954C129.436 174.307 127.028 188.592 127.028 203.439C127.028 277.662 187.197 337.832 261.42 337.832C335.643 337.832 395.813 277.662 395.813 203.439C395.813 129.216 335.643 69.0469 261.42 69.0469C256.813 69.0469 252.259 69.2787 247.771 69.7315C247.937 70.5964 248.095 71.4661 248.244 72.3406C252.578 71.9102 256.973 71.6899 261.42 71.6899C334.184 71.6899 393.17 130.676 393.17 203.439C393.17 276.203 334.184 335.189 261.42 335.189C188.657 335.189 129.671 276.203 129.671 203.439C129.671 189.582 131.81 176.224 135.777 163.678Z" fill="#131313"/>
<circle cx="341.381" cy="304.746" r="19.8045" fill="#EAEAEA" stroke="#131313" stroke-width="3"/>
<path d="M330.108 209.681C327.352 249.695 292.679 279.898 252.665 277.141C212.651 274.384 182.449 239.712 185.205 199.698C187.962 159.684 222.634 129.481 262.648 132.238" stroke="#131313" stroke-width="2.64303"/>
<circle cx="332.302" cy="224.314" r="19.7248" transform="rotate(3.94112 332.302 224.314)" fill="#131313"/>
<circle cx="279.643" cy="133.409" r="18.2248" transform="rotate(3.94112 279.643 133.409)" fill="#EAEAEA" stroke="#131313" stroke-width="3"/>
</svg>
