<svg width="438" height="452" fill="none" xmlns="http://www.w3.org/2000/svg"><rect x="1.5" y="77.3" width="366.1" height="366.1" rx="7.5" fill="#EAEAEA"/><path d="M185.9 274.3c-1.8 0-3.4-.4-4.8-1a8.3 8.3 0 0 1-3.3-3 8.8 8.8 0 0 1-1.1-4.7v-9c0-2 .3-3.7 1.1-5a7.7 7.7 0 0 1 3.2-3.1c1.4-.7 3-1.1 5-1.1 1.9 0 3.5.3 4.8 1a7 7 0 0 1 3.1 2.8c.7 1.1 1 2.5 1 4h-3c0-1.5-.4-2.7-1.4-3.7-1-1-2.5-1.4-4.5-1.4s-3.6.5-4.7 1.6a6 6 0 0 0-1.7 4.5v3.6h.6c.4-.7 1.1-1.4 2.2-2 1-.6 2.5-1 4.3-1 1.6 0 3 .4 4.2 1a8 8 0 0 1 4.3 7.5v.4c0 1.8-.4 3.3-1.3 4.5a8 8 0 0 1-3.2 3c-1.5.7-3 1-4.8 1Zm0-2.7c1.9 0 3.4-.6 4.5-1.6 1.2-1 1.8-2.5 1.8-4.3v-.3a6 6 0 0 0-.8-3.2 5.4 5.4 0 0 0-2.2-2c-1-.6-2-.8-3.3-.8-1.2 0-2.3.2-3.3.7-.9.5-1.6 1.2-2.2 2-.5 1-.8 2-.8 3.3v.3c0 1.8.6 3.2 1.8 4.3 1.1 1 2.6 1.6 4.5 1.6Z" fill="#131313"/><rect x="1.5" y="77.3" width="366.1" height="366.1" rx="7.5" stroke="#131313" stroke-width="3"/><circle cx="63.4" cy="244" r="20.2" fill="#131313"/><circle cx="190.7" cy="131.2" r="20.2" fill="#131313"/><path fill-rule="evenodd" clip-rule="evenodd" d="M69.1 230.3c-1.6-2-3.1-4.1-4.6-6.4a137 137 0 1 0 116-93c.5 2.1.8 4.2 1.1 6.3a130.6 130.6 0 1 1-112.5 93Z" fill="#131313"/><circle cx="276" cy="370.5" r="20.2" fill="#EAEAEA" stroke="#131313" stroke-width="4.6"/><path d="M264.5 273.6a74 74 0 1 1-68.8-79" stroke="#131313" stroke-width="6.4"/><circle cx="266.7" cy="288.5" r="20.1" transform="rotate(4 266.7 288.5)" fill="#131313"/><circle cx="213.1" cy="195.9" r="17.4" transform="rotate(4 213 195.9)" fill="#EAEAEA" stroke="#131313" stroke-width="5.4"/><rect x="22.6" y="62" width="359.2" height="359.2" rx="7.4" fill="#EAEAEA"/><path d="M201 247.7v-2.3c0-1 .1-2 .5-2.6.4-.6 1.2-1.2 2.2-1.6l1-.5a8.8 8.8 0 0 0 3-1.9c.7-.7 1-1.7 1-3a4 4 0 0 0-.8-2.6 4.9 4.9 0 0 0-2-1.5 8 8 0 0 0-6 0 5 5 0 0 0-2.3 1.7c-.5.8-.8 1.7-.8 2.9v1.2h-3v-1.2c0-1.7.5-3 1.2-4.2.8-1.2 2-2 3.3-2.6 1.3-.6 2.9-1 4.6-1 1.8 0 3.3.4 4.6 1 1.3.6 2.3 1.4 3 2.5.8 1.1 1.2 2.3 1.2 3.7 0 1.4-.3 2.6-.8 3.5-.5.9-1.2 1.6-2 2.2-.8.6-1.7 1.1-2.7 1.5l-1 .5a2 2 0 0 0-1 .7c-.2.4-.3.8-.3 1.4v2.2h-3Zm1.5 7.2c-.8 0-1.3-.2-1.8-.6-.5-.5-.7-1.1-.7-1.8 0-.8.2-1.3.7-1.8.5-.5 1-.7 1.8-.7.7 0 1.2.2 1.7.7.5.5.7 1 .7 1.8 0 .7-.2 1.3-.7 1.8-.5.4-1 .6-1.7.6Z" fill="#131313"/><rect x="22.6" y="62" width="359.2" height="359.2" rx="7.4" stroke="#131313" stroke-width="3"/><circle cx="83.4" cy="225.6" r="19.8" fill="#131313"/><circle cx="208.3" cy="114.9" r="19.8" fill="#131313"/><path fill-rule="evenodd" clip-rule="evenodd" d="M89 212c-1.6-1.9-3.1-4-4.6-6.1a134.4 134.4 0 1 0 113.9-91.2l1 6.1A128.2 128.2 0 1 1 89 212.1Z" fill="#131313"/><circle cx="291.9" cy="349.7" r="19.8" fill="#EAEAEA" stroke="#131313" stroke-width="4.5"/><path d="M280.7 254.6a72.6 72.6 0 1 1-67.5-77.4" stroke="#131313" stroke-width="6.2"/><circle cx="282.9" cy="269.2" r="19.7" transform="rotate(4 282.9 269.2)" fill="#131313"/><circle cx="230.2" cy="178.3" r="17.1" transform="rotate(4 230.2 178.3)" fill="#EAEAEA" stroke="#131313" stroke-width="5.3"/><rect x="47.3" y="40" width="359.2" height="359.2" rx="7.4" fill="#EAEAEA"/><path d="M225.6 225.6v-2.2c0-1 .2-2 .6-2.6.4-.6 1.1-1.2 2.2-1.7l1-.4a8.8 8.8 0 0 0 3-1.9c.6-.7 1-1.8 1-3a4 4 0 0 0-.8-2.6 4.8 4.8 0 0 0-2-1.6c-1-.3-2-.5-3-.5a8 8 0 0 0-3 .6 5 5 0 0 0-2.3 1.7c-.5.7-.8 1.7-.8 2.9v1.2h-3v-1.2c0-1.7.4-3.1 1.2-4.3.8-1.1 1.9-2 3.2-2.6 1.4-.6 3-.9 4.7-.9 1.7 0 3.2.3 4.5 1 1.4.6 2.4 1.4 3.1 2.5.8 1 1.1 2.3 1.1 3.7 0 1.4-.2 2.5-.8 3.5-.5.8-1.1 1.6-2 2.2-.8.6-1.7 1-2.7 1.5l-1 .5a2 2 0 0 0-1 .7l-.2 1.4v2.1h-3Zm1.5 7.3c-.7 0-1.3-.2-1.7-.7-.5-.4-.7-1-.7-1.8 0-.7.2-1.3.7-1.7.4-.5 1-.7 1.7-.7s1.3.2 1.8.7c.5.4.7 1 .7 1.7 0 .8-.2 1.4-.7 1.8-.5.5-1 .7-1.8.7Z" fill="#131313"/><rect x="47.3" y="40" width="359.2" height="359.2" rx="7.4" stroke="#131313" stroke-width="3"/><circle cx="108" cy="203.6" r="19.8" fill="#131313"/><circle cx="232.9" cy="92.8" r="19.8" fill="#131313"/><path fill-rule="evenodd" clip-rule="evenodd" d="M113.7 190c-1.6-1.9-3.2-4-4.6-6.1A134.4 134.4 0 1 0 223 92.7l1 6A128.2 128.2 0 1 1 113.6 190Z" fill="#131313"/><circle cx="316.6" cy="327.7" r="19.8" fill="#EAEAEA" stroke="#131313" stroke-width="4.5"/><path d="M305.3 232.6A72.6 72.6 0 1 1 238 155" stroke="#131313" stroke-width="6.2"/><circle cx="307.5" cy="247.2" r="19.7" transform="rotate(4 307.5 247.2)" fill="#131313"/><circle cx="254.9" cy="156.3" r="17.1" transform="rotate(4 254.9 156.3)" fill="#EAEAEA" stroke="#131313" stroke-width="5.3"/><rect x="71.1" y="17.1" width="359.2" height="359.2" rx="7.4" fill="#EAEAEA"/><path d="M247.5 208.6v-4.4c0-2.2.4-4 1.2-5.2a9.4 9.4 0 0 1 4.4-3.3l2-1c2.5-1 4.5-2.2 5.9-3.7a8.8 8.8 0 0 0 2-6.2 8 8 0 0 0-1.4-5 9.7 9.7 0 0 0-4.2-3.1c-1.7-.8-3.7-1.1-5.8-1.1-2.2 0-4.2.4-6.1 1.1-1.9.8-3.4 1.9-4.5 3.4a9.4 9.4 0 0 0-1.7 5.8v2.5h-5.9V186c0-3.4.8-6.2 2.4-8.4 1.6-2.4 3.7-4 6.4-5.3a23 23 0 0 1 9.4-1.8c3.4 0 6.4.7 9 2 2.7 1.1 4.7 2.8 6.2 5 1.5 2.1 2.2 4.6 2.2 7.4 0 2.7-.5 5-1.6 6.9-1 1.8-2.3 3.3-4 4.5a31 31 0 0 1-5.4 3l-2 .9a4 4 0 0 0-1.9 1.5c-.4.6-.6 1.5-.6 2.7v4.3zm3.1 14.6c-1.4 0-2.6-.5-3.5-1.4-1-.9-1.4-2-1.4-3.5s.4-2.7 1.4-3.6c.9-.9 2-1.4 3.5-1.4 1.4 0 2.6.5 3.5 1.4 1 1 1.4 2.1 1.4 3.6 0 1.4-.4 2.6-1.4 3.5-1 1-2 1.4-3.5 1.4z" fill="#131313" style="stroke-width:1"/><rect x="71.1" y="17.1" width="359.2" height="359.2" rx="7.4" stroke="#131313" stroke-width="3"/><circle cx="122.8" cy="69.4" r="19.8" fill="#131313"/><circle cx="170.8" cy="69.4" r="19.8" fill="#131313"/><circle cx="266.8" cy="69.4" r="19.8" fill="#131313"/><circle cx="362.8" cy="69.4" r="19.8" fill="#131313"/></svg>